<?xml version="1.0" encoding="utf-8"?>
<!-- Generator: Adobe Illustrator 16.0.3, SVG Export Plug-In . SVG Version: 6.00 Build 0)  -->
<!DOCTYPE svg PUBLIC "-//W3C//DTD SVG 1.1//EN" "http://www.w3.org/Graphics/SVG/1.1/DTD/svg11.dtd">
<svg version="1.1" xmlns="http://www.w3.org/2000/svg" xmlns:xlink="http://www.w3.org/1999/xlink" x="0px" y="0px" width="266px"
	 height="100px" viewBox="0 0 266 100" enable-background="new 0 0 266 100" xml:space="preserve">
<g id="guides">
</g>
<g id="Layer_2">
	<g>
		<g>
			<path fill="#3686BE" d="M23.135,66.479C34.855,58.943,48.137,64.385,54.76,68C45.588,64.347,32.154,63.51,23.135,66.479z"/>
			<path fill="#3686BE" d="M43.686,32c5.631,0,10.465,3.311,12.633,8.067h-4.375c-1.941-2.397-4.947-3.92-8.297-3.92
				c-3.311,0-6.24,1.485-8.182,3.806c0.113-0.076,0.229-0.152,0.305-0.229c4.605-3.272,10.73,0.343,10.73,0.343
				s-5.822-1.712-9.74,1.065c-3.959,2.778-3.313,8.297-3.313,8.297s-0.037-0.076-0.076-0.19c0,0.076,0.039,0.114,0.039,0.19
				c-0.951-0.686-2.094-1.143-3.35-1.256c-0.152-0.8-0.229-1.637-0.229-2.474C29.871,38.127,36.074,32,43.686,32L43.686,32z
				 M25.99,63.281v-1.18c3.652-2.701,10.389-6.203,18.494-3.691c12.328,3.844,20.131,9.096,29.645,6.735
				c9.514-2.358,10.352-7.572,10.352-7.572s-1.676,7.344-11.037,8.942s-18-0.189-28.998-4.3
				C37.063,59.514,29.871,61.645,25.99,63.281L25.99,63.281z M25.99,60.922c0.684-0.457,1.369-0.875,2.016-1.218
				c-0.305-0.19-0.609-0.419-0.875-0.685c-0.494-0.495-0.875-1.028-1.141-1.561v2.55l0.074,0.038
				c0.115,0.114,0.268,0.229,0.381,0.342c-0.152-0.075-0.305-0.151-0.455-0.228V60.922L25.99,60.922z M25.99,49.049v-4.338
				c0.912-0.305,1.863-0.496,2.854-0.533c-0.039,0.494-0.076,0.989-0.076,1.522c0,0.875,0.076,1.712,0.229,2.511
				C27.891,48.25,26.863,48.555,25.99,49.049z M25.99,44.711v4.338c-1.941,1.104-3.236,3.158-3.236,5.556
				c0,2.359,1.295,4.415,3.236,5.557v0.761c-0.762,0.532-1.523,1.104-2.17,1.561c-2.779-1.789-4.605-4.871-4.605-8.373
				C19.215,49.733,22.031,46.042,25.99,44.711L25.99,44.711z M25.99,57.421c-1.219-2.397-0.801-5.1-0.801-5.1
				s-2.092,4.795,0.801,7.649V57.421L25.99,57.421z M25.99,62.102c-1.904,1.408-2.969,2.588-2.969,2.588
				c0,0.038,1.102-0.609,2.969-1.408V62.102z"/>
			<path fill="#3686BE" d="M56.965,60.237c0,0,5.861,3.006,11.418,2.511c5.518-0.494,7.191-2.435,7.191-2.435
				s-2.016,3.729-7.344,3.957C62.902,64.461,56.965,60.352,56.965,60.237z"/>
			<rect x="52.438" y="41.209" fill="#3686BE" width="4.947" height="4.947"/>
			<rect x="72.074" y="54.908" fill="#3686BE" width="3.805" height="3.807"/>
			<rect x="58.412" y="36.681" fill="#3686BE" width="6.584" height="6.583"/>
			<rect x="77.516" y="48.098" fill="#3686BE" width="6.584" height="6.583"/>
			<rect x="65.643" y="43.797" fill="#3686BE" width="3.654" height="3.653"/>
			<rect x="68.078" y="51.027" fill="#3686BE" width="3.652" height="3.653"/>
			<rect x="60.352" y="51.37" fill="#3686BE" width="3.691" height="3.653"/>
			<rect x="73.215" y="43.911" fill="#3686BE" width="3.654" height="3.653"/>
		</g>
		<g>
			<path fill="#3686BE" d="M114.01,51.256c0,1.522-0.266,2.968-0.76,4.225c-0.496,1.293-1.219,2.396-2.17,3.311
				c-0.914,0.913-2.055,1.636-3.35,2.169c-1.293,0.494-2.738,0.761-4.338,0.761h-8.066V40.752h8.029
				c1.598,0,3.043,0.268,4.338,0.762c1.295,0.533,2.436,1.256,3.348,2.169c0.914,0.913,1.639,2.018,2.17,3.311
				C113.744,48.326,114.01,49.733,114.01,51.256z M110.014,51.256c0-1.142-0.15-2.169-0.455-3.121
				c-0.305-0.913-0.762-1.674-1.332-2.32c-0.572-0.647-1.256-1.104-2.094-1.447c-0.836-0.342-1.75-0.494-2.777-0.494h-4.072v14.803
				h4.072c1.027,0,1.941-0.151,2.777-0.494c0.838-0.343,1.521-0.837,2.094-1.446c0.57-0.646,1.027-1.407,1.332-2.321
				C109.824,53.463,110.014,52.397,110.014,51.256z"/>
			<path fill="#3686BE" d="M119.758,42.503c0,0.305-0.076,0.609-0.191,0.875c-0.113,0.267-0.305,0.495-0.494,0.724
				c-0.191,0.189-0.457,0.381-0.725,0.494c-0.266,0.115-0.57,0.191-0.912,0.191c-0.305,0-0.609-0.076-0.875-0.191
				c-0.266-0.113-0.533-0.266-0.723-0.494c-0.191-0.19-0.381-0.457-0.496-0.724c-0.113-0.266-0.189-0.57-0.189-0.875
				c0-0.304,0.076-0.608,0.189-0.913c0.115-0.266,0.268-0.533,0.496-0.723c0.189-0.191,0.457-0.381,0.723-0.495
				s0.57-0.19,0.875-0.19s0.609,0.076,0.912,0.19c0.268,0.114,0.533,0.267,0.725,0.495c0.189,0.189,0.381,0.457,0.494,0.723
				C119.682,41.895,119.758,42.199,119.758,42.503z M119.225,46.841v14.918h-3.578V46.841H119.225z"/>
			<path fill="#3686BE" d="M126.988,46.613c0.646,0,1.254,0.076,1.787,0.189c0.57,0.114,1.066,0.305,1.523,0.571h4.299v1.332
				c0,0.229-0.076,0.381-0.189,0.533c-0.113,0.114-0.305,0.229-0.609,0.267l-1.332,0.228c0.115,0.267,0.189,0.533,0.229,0.799
				c0.037,0.267,0.076,0.571,0.076,0.876c0,0.723-0.152,1.408-0.457,1.979c-0.305,0.609-0.686,1.104-1.217,1.521
				c-0.533,0.42-1.143,0.725-1.828,0.952c-0.723,0.229-1.482,0.343-2.32,0.343c-0.57,0-1.104-0.038-1.637-0.152
				c-0.457,0.267-0.686,0.609-0.686,0.951c0,0.305,0.152,0.533,0.42,0.685c0.266,0.152,0.646,0.229,1.104,0.305
				s0.951,0.076,1.521,0.076s1.143,0.038,1.75,0.076c0.609,0.038,1.182,0.152,1.752,0.267s1.064,0.305,1.521,0.57
				c0.457,0.268,0.799,0.609,1.104,1.066c0.268,0.456,0.42,1.027,0.42,1.75c0,0.646-0.152,1.295-0.496,1.941
				c-0.342,0.608-0.799,1.179-1.408,1.674c-0.609,0.494-1.369,0.875-2.244,1.18c-0.877,0.305-1.904,0.457-3.045,0.457
				c-1.143,0-2.131-0.114-2.93-0.343c-0.838-0.228-1.523-0.495-2.057-0.876c-0.531-0.38-0.951-0.799-1.217-1.255
				c-0.266-0.457-0.418-0.951-0.418-1.483c0-0.686,0.229-1.295,0.646-1.752c0.418-0.456,1.027-0.837,1.789-1.141
				c-0.381-0.19-0.648-0.457-0.877-0.799c-0.227-0.344-0.342-0.762-0.342-1.333c0-0.229,0.039-0.456,0.115-0.685
				c0.074-0.229,0.189-0.457,0.342-0.723c0.152-0.229,0.342-0.457,0.609-0.647c0.229-0.19,0.533-0.38,0.875-0.571
				c-0.762-0.418-1.332-0.951-1.789-1.636c-0.418-0.685-0.646-1.484-0.646-2.397c0-0.724,0.152-1.408,0.457-1.979
				c0.303-0.609,0.723-1.104,1.217-1.523c0.533-0.418,1.143-0.761,1.865-0.951C125.352,46.728,126.111,46.613,126.988,46.613z
				 M130.906,62.406c0-0.305-0.076-0.533-0.266-0.724s-0.418-0.343-0.723-0.456c-0.305-0.114-0.648-0.19-1.066-0.229
				s-0.838-0.076-1.293-0.076c-0.457,0-0.914,0-1.408,0c-0.496,0-0.951-0.038-1.371-0.152c-0.418,0.229-0.723,0.495-0.988,0.799
				c-0.266,0.305-0.381,0.647-0.381,1.066c0,0.266,0.076,0.494,0.189,0.723c0.115,0.229,0.344,0.419,0.609,0.571
				c0.305,0.151,0.646,0.304,1.104,0.38s1.027,0.152,1.676,0.152c0.684,0,1.254-0.038,1.711-0.152
				c0.494-0.114,0.875-0.229,1.18-0.418c0.305-0.19,0.533-0.419,0.686-0.647C130.83,62.977,130.906,62.672,130.906,62.406z
				 M126.988,53.958c0.455,0,0.836-0.076,1.178-0.19c0.344-0.114,0.609-0.305,0.838-0.495c0.229-0.228,0.381-0.456,0.494-0.761
				c0.115-0.305,0.152-0.646,0.152-0.99c0-0.723-0.229-1.331-0.646-1.75c-0.457-0.418-1.104-0.646-1.979-0.646
				s-1.561,0.229-1.979,0.646c-0.457,0.419-0.646,1.027-0.646,1.75c0,0.344,0.037,0.686,0.15,0.99
				c0.115,0.305,0.268,0.571,0.496,0.761c0.229,0.229,0.494,0.381,0.836,0.495C126.227,53.882,126.531,53.958,126.988,53.958z"/>
			<path fill="#3686BE" d="M139.773,42.503c0,0.305-0.076,0.609-0.189,0.875c-0.115,0.267-0.305,0.495-0.496,0.724
				c-0.189,0.229-0.455,0.381-0.723,0.494c-0.266,0.115-0.57,0.191-0.912,0.191c-0.305,0-0.609-0.076-0.877-0.191
				c-0.266-0.113-0.531-0.266-0.723-0.494c-0.189-0.19-0.381-0.457-0.494-0.724c-0.113-0.266-0.189-0.57-0.189-0.875
				c0-0.304,0.076-0.608,0.189-0.913c0.113-0.266,0.266-0.533,0.494-0.723c0.191-0.191,0.457-0.381,0.723-0.495
				c0.268-0.114,0.572-0.19,0.877-0.19s0.607,0.076,0.912,0.19c0.268,0.114,0.533,0.267,0.723,0.495
				c0.191,0.189,0.381,0.457,0.496,0.723C139.697,41.895,139.773,42.199,139.773,42.503z M139.24,46.841v14.918h-3.576V46.841
				H139.24z"/>
			<path fill="#3686BE" d="M146.738,61.987c-1.295,0-2.283-0.381-2.969-1.104s-1.027-1.751-1.027-3.045v-8.296h-1.521
				c-0.191,0-0.344-0.075-0.496-0.189s-0.229-0.305-0.229-0.571v-1.408l2.398-0.381l0.76-4.071c0.039-0.19,0.115-0.343,0.268-0.457
				c0.152-0.113,0.305-0.151,0.533-0.151h1.863v4.68h3.92v2.55h-3.92v8.068c0,0.456,0.115,0.837,0.344,1.104
				c0.229,0.266,0.531,0.381,0.912,0.381c0.229,0,0.42-0.039,0.572-0.076c0.152-0.039,0.266-0.115,0.381-0.152
				c0.113-0.076,0.229-0.115,0.303-0.152c0.076-0.039,0.191-0.076,0.268-0.076c0.113,0,0.189,0.037,0.266,0.076
				c0.076,0.037,0.152,0.152,0.229,0.229l1.064,1.75c-0.531,0.419-1.141,0.761-1.787,0.989
				C148.146,61.873,147.461,61.987,146.738,61.987z"/>
			<path fill="#3686BE" d="M163.291,61.759h-1.598c-0.342,0-0.609-0.038-0.799-0.152c-0.191-0.114-0.344-0.304-0.42-0.608
				l-0.303-1.065c-0.381,0.343-0.762,0.646-1.104,0.875c-0.381,0.267-0.725,0.457-1.143,0.646c-0.381,0.19-0.799,0.305-1.217,0.381
				c-0.42,0.076-0.914,0.114-1.447,0.114c-0.646,0-1.217-0.076-1.75-0.267c-0.533-0.152-0.99-0.418-1.369-0.761
				c-0.381-0.343-0.686-0.761-0.877-1.256c-0.189-0.494-0.305-1.104-0.305-1.751c0-0.57,0.152-1.104,0.457-1.674
				c0.305-0.532,0.801-1.028,1.484-1.484c0.686-0.457,1.598-0.799,2.74-1.104s2.549-0.419,4.262-0.419v-0.875
				c0-0.989-0.227-1.751-0.646-2.245c-0.418-0.495-1.027-0.723-1.826-0.723c-0.57,0-1.066,0.076-1.445,0.189
				c-0.381,0.114-0.725,0.305-1.029,0.457s-0.533,0.305-0.799,0.456c-0.266,0.152-0.494,0.19-0.799,0.19
				c-0.229,0-0.457-0.076-0.609-0.19c-0.189-0.113-0.305-0.266-0.418-0.456l-0.646-1.142c1.711-1.561,3.768-2.359,6.201-2.359
				c0.877,0,1.639,0.152,2.322,0.418c0.686,0.305,1.256,0.686,1.75,1.18c0.457,0.495,0.838,1.104,1.066,1.827
				s0.381,1.483,0.381,2.321v9.476H163.291z M156.328,59.514c0.381,0,0.723-0.038,1.027-0.113c0.305-0.076,0.607-0.152,0.875-0.305
				c0.266-0.152,0.533-0.305,0.799-0.496c0.268-0.189,0.533-0.418,0.762-0.685v-2.511c-1.027,0-1.904,0.076-2.627,0.189
				c-0.684,0.115-1.254,0.305-1.674,0.495c-0.418,0.19-0.723,0.457-0.914,0.723c-0.189,0.267-0.266,0.571-0.266,0.875
				c0,0.647,0.189,1.104,0.57,1.37C155.225,59.4,155.719,59.514,156.328,59.514z"/>
			<path fill="#3686BE" d="M169.189,40.182v21.577h-3.576V40.182H169.189z"/>
			<path fill="#3686BE" d="M192.139,51.256c0,1.522-0.268,2.968-0.762,4.262c-0.496,1.294-1.219,2.436-2.17,3.426
				c-0.912,0.951-2.055,1.712-3.35,2.245c-1.293,0.532-2.738,0.799-4.338,0.799c-1.598,0-3.043-0.267-4.338-0.799
				c-1.293-0.533-2.436-1.294-3.387-2.245c-0.951-0.952-1.674-2.094-2.17-3.426c-0.494-1.294-0.76-2.739-0.76-4.262
				s0.266-2.969,0.76-4.263c0.496-1.293,1.256-2.435,2.17-3.425c0.951-0.951,2.055-1.712,3.387-2.244
				c1.295-0.533,2.777-0.8,4.338-0.8s3.045,0.267,4.338,0.8c1.295,0.532,2.438,1.293,3.35,2.244c0.914,0.951,1.637,2.094,2.17,3.387
				C191.91,48.287,192.139,49.733,192.139,51.256z M188.143,51.256c0-1.142-0.152-2.169-0.457-3.121
				c-0.305-0.913-0.762-1.674-1.332-2.32c-0.57-0.647-1.256-1.143-2.094-1.484c-0.838-0.343-1.75-0.495-2.777-0.495
				s-1.941,0.152-2.779,0.495c-0.836,0.342-1.521,0.837-2.092,1.484c-0.572,0.646-1.027,1.407-1.332,2.32
				c-0.305,0.914-0.457,1.941-0.457,3.121c0,1.142,0.152,2.169,0.457,3.082c0.305,0.914,0.76,1.675,1.332,2.322
				c0.57,0.646,1.293,1.103,2.092,1.445c0.838,0.343,1.752,0.494,2.779,0.494s1.939-0.151,2.777-0.494s1.523-0.837,2.094-1.445
				c0.57-0.647,1.027-1.408,1.332-2.322C187.99,53.463,188.143,52.397,188.143,51.256z"/>
			<path fill="#3686BE" d="M204.049,50c-0.115,0.152-0.229,0.229-0.305,0.305c-0.113,0.076-0.266,0.114-0.457,0.114
				c-0.189,0-0.379-0.038-0.531-0.152s-0.381-0.229-0.609-0.381s-0.533-0.267-0.877-0.38c-0.342-0.114-0.76-0.152-1.254-0.152
				c-0.648,0-1.18,0.114-1.676,0.342c-0.457,0.229-0.875,0.571-1.18,0.989c-0.305,0.419-0.531,0.952-0.723,1.562
				c-0.152,0.608-0.229,1.293-0.229,2.054c0,0.8,0.076,1.485,0.268,2.132c0.152,0.608,0.418,1.142,0.723,1.56
				c0.305,0.419,0.723,0.724,1.18,0.952s0.951,0.342,1.521,0.342s1.027-0.076,1.369-0.229c0.344-0.152,0.648-0.305,0.877-0.457
				c0.229-0.151,0.457-0.342,0.646-0.456c0.191-0.114,0.381-0.229,0.609-0.229c0.305,0,0.494,0.114,0.646,0.343l1.027,1.294
				c-0.381,0.457-0.838,0.837-1.293,1.18c-0.457,0.343-0.951,0.571-1.447,0.761c-0.494,0.19-1.027,0.305-1.561,0.381
				c-0.531,0.076-1.064,0.114-1.598,0.114c-0.914,0-1.789-0.19-2.588-0.533c-0.799-0.342-1.521-0.837-2.131-1.521
				s-1.104-1.446-1.447-2.436c-0.342-0.951-0.531-2.056-0.531-3.273c0-1.103,0.152-2.093,0.457-3.044
				c0.303-0.951,0.76-1.75,1.369-2.436s1.371-1.218,2.283-1.599c0.914-0.38,1.941-0.57,3.121-0.57c1.104,0,2.092,0.19,2.93,0.532
				c0.838,0.343,1.598,0.875,2.244,1.522L204.049,50z"/>
			<path fill="#3686BE" d="M212.154,46.613c0.951,0,1.789,0.152,2.588,0.456c0.799,0.305,1.484,0.724,2.055,1.333
				c0.572,0.57,1.027,1.293,1.332,2.13c0.305,0.838,0.494,1.789,0.494,2.854c0,0.267,0,0.495-0.037,0.685
				c-0.039,0.19-0.076,0.305-0.115,0.419c-0.076,0.114-0.15,0.19-0.266,0.229c-0.113,0.038-0.229,0.076-0.418,0.076h-9.211
				c0.115,1.522,0.533,2.664,1.219,3.387c0.723,0.723,1.674,1.066,2.854,1.066c0.572,0,1.066-0.076,1.523-0.191
				c0.418-0.152,0.799-0.305,1.104-0.457c0.305-0.151,0.607-0.304,0.836-0.456s0.457-0.19,0.686-0.19
				c0.152,0,0.268,0.038,0.381,0.076c0.115,0.076,0.191,0.152,0.268,0.229l1.025,1.294c-0.379,0.457-0.836,0.837-1.33,1.18
				c-0.496,0.343-1.029,0.571-1.561,0.761c-0.533,0.19-1.104,0.305-1.637,0.381c-0.57,0.076-1.104,0.114-1.637,0.114
				c-1.027,0-2.016-0.19-2.893-0.533c-0.875-0.342-1.674-0.837-2.32-1.521s-1.18-1.522-1.561-2.512s-0.572-2.132-0.572-3.463
				c0-1.027,0.152-1.979,0.496-2.854c0.342-0.913,0.799-1.674,1.408-2.321s1.369-1.18,2.244-1.561
				C210.023,46.803,211.014,46.613,212.154,46.613z M212.191,49.201c-1.027,0-1.863,0.305-2.473,0.875
				c-0.609,0.608-0.951,1.445-1.143,2.512h6.736c0-0.457-0.076-0.914-0.189-1.332c-0.115-0.419-0.305-0.762-0.57-1.065
				c-0.268-0.305-0.609-0.571-0.99-0.723C213.221,49.277,212.725,49.201,212.191,49.201z"/>
			<path fill="#3686BE" d="M231.754,61.759h-1.6c-0.342,0-0.609-0.038-0.799-0.152s-0.342-0.304-0.418-0.608l-0.305-1.065
				c-0.381,0.343-0.762,0.646-1.104,0.875c-0.381,0.267-0.725,0.457-1.143,0.646c-0.381,0.19-0.799,0.305-1.217,0.381
				c-0.42,0.076-0.914,0.114-1.447,0.114c-0.646,0-1.217-0.076-1.75-0.267c-0.533-0.152-0.988-0.418-1.369-0.761
				s-0.686-0.761-0.877-1.256c-0.189-0.494-0.305-1.104-0.305-1.751c0-0.57,0.152-1.104,0.457-1.674
				c0.305-0.532,0.801-1.028,1.484-1.484c0.686-0.457,1.598-0.799,2.74-1.104s2.549-0.419,4.264-0.419v-0.875
				c0-0.989-0.229-1.751-0.648-2.245c-0.418-0.495-1.027-0.723-1.826-0.723c-0.57,0-1.066,0.076-1.445,0.189
				c-0.381,0.114-0.725,0.305-1.029,0.457s-0.533,0.305-0.799,0.456c-0.266,0.152-0.494,0.19-0.799,0.19
				c-0.229,0-0.457-0.076-0.607-0.19c-0.191-0.113-0.305-0.266-0.42-0.456l-0.646-1.142c1.713-1.561,3.768-2.359,6.203-2.359
				c0.875,0,1.637,0.152,2.32,0.418c0.686,0.305,1.256,0.686,1.75,1.18c0.457,0.495,0.838,1.104,1.066,1.827
				s0.381,1.483,0.381,2.321v9.476H231.754z M224.75,59.514c0.381,0,0.725-0.038,1.027-0.113c0.305-0.076,0.609-0.152,0.875-0.305
				c0.268-0.152,0.533-0.305,0.801-0.496c0.266-0.189,0.533-0.418,0.762-0.685v-2.511c-1.029,0-1.904,0.076-2.627,0.189
				c-0.686,0.115-1.256,0.305-1.674,0.495c-0.42,0.19-0.725,0.457-0.914,0.723c-0.189,0.267-0.266,0.571-0.266,0.875
				c0,0.647,0.189,1.104,0.57,1.37C223.686,59.4,224.143,59.514,224.75,59.514z"/>
			<path fill="#3686BE" d="M233.807,61.759V46.841h2.209c0.455,0,0.76,0.229,0.912,0.647l0.229,1.18
				c0.305-0.305,0.609-0.609,0.951-0.838c0.344-0.266,0.686-0.456,1.066-0.646s0.762-0.343,1.18-0.418
				c0.418-0.114,0.875-0.152,1.408-0.152c0.799,0,1.521,0.152,2.168,0.418c0.646,0.267,1.143,0.647,1.561,1.18
				c0.42,0.495,0.725,1.104,0.951,1.789c0.229,0.685,0.344,1.445,0.344,2.283v9.476h-3.578v-9.476c0-0.913-0.229-1.599-0.646-2.131
				c-0.418-0.495-1.066-0.761-1.902-0.761c-0.609,0-1.219,0.151-1.75,0.418c-0.533,0.267-1.066,0.647-1.523,1.142v10.77h-3.578
				V61.759z"/>
		</g>
	</g>
</g>
</svg>
