<?xml version="1.0" encoding="utf-8"?>
<!-- Generator: Adobe Illustrator 16.0.3, SVG Export Plug-In . SVG Version: 6.00 Build 0)  -->
<!DOCTYPE svg PUBLIC "-//W3C//DTD SVG 1.1//EN" "http://www.w3.org/Graphics/SVG/1.1/DTD/svg11.dtd">
<svg version="1.1" xmlns="http://www.w3.org/2000/svg" xmlns:xlink="http://www.w3.org/1999/xlink" x="0px" y="0px" width="130px"
	 height="100px" viewBox="0 0 130 100" enable-background="new 0 0 130 100" xml:space="preserve">
<g id="guides">
</g>
<g id="Layer_2">
	<g>
		<g>
			<path fill="#0071C5" d="M62.727,73.485c-17.979,1.659-36.718-0.953-39.342-15.003c-1.285-6.928,1.874-14.271,6.062-18.837v-2.438
				c-7.54,6.612-11.627,14.981-9.273,24.865C23.18,74.75,39.258,81.931,63.806,79.547c9.717-0.941,22.425-4.066,31.266-8.923v-6.893
				C87.048,68.512,73.781,72.461,62.727,73.485z M110.088,37.043c-4.264-20.82-44.69-22.14-70.749-6.278v1.753
				c26.029-13.383,62.951-13.301,66.312,5.879c1.129,6.344-2.445,12.954-8.83,16.76v4.977
				C104.5,57.315,112.379,48.204,110.088,37.043z"/>
			<path fill="#0071C5" d="M93.617,34.011h-4.714v20.996c0,2.461,1.19,4.6,4.714,4.941V34.011z"/>
			<path fill="#0071C5" d="M37.488,41.678h-4.722l-0.004,13.715c0,2.47,1.194,4.607,4.726,4.942V41.678z"/>
			<rect x="32.767" y="34.649" fill="#0071C5" width="4.707" height="4.47"/>
			<path fill="#0071C5" d="M65.72,60.118c-3.816,0-5.431-2.65-5.431-5.265V36.642h4.672v5.036h3.521v3.773h-3.521v9.115
				c0,1.065,0.507,1.657,1.617,1.657h1.903v3.895H65.72"/>
			<path fill="#0071C5" d="M74.316,52.359c0,2.391,1.497,4.148,4.144,4.148c2.072,0,3.095-0.576,4.291-1.758l2.887,2.751
				c-1.851,1.829-3.79,2.94-7.213,2.94c-4.473,0-8.757-2.44-8.757-9.556c0-6.083,3.744-9.521,8.652-9.521
				c4.99,0,7.857,4.023,7.857,9.309v1.686H74.316 M78.115,45.23c-1.598,0-2.827,0.822-3.348,1.934
				c-0.306,0.668-0.415,1.188-0.451,2.008h7.203C81.429,47.164,80.517,45.23,78.115,45.23z"/>
			<path fill="#0071C5" d="M50.181,45.451c1.369,0,1.938,0.678,1.938,1.776v12.918h4.674V47.201c0-2.623-1.397-5.52-5.501-5.52
				l-9.654-0.004v18.468h4.675V45.451H50.181z"/>
			<g>
				<path fill="#0071C5" d="M98.688,37.763c-1.039,0-1.868-0.838-1.868-1.876c0-1.032,0.829-1.876,1.868-1.876
					c1.035,0,1.883,0.844,1.883,1.876C100.571,36.925,99.724,37.763,98.688,37.763z M98.688,34.324
					c-0.856,0-1.545,0.707-1.545,1.563c0,0.86,0.688,1.556,1.545,1.556s1.567-0.695,1.567-1.556
					C100.256,35.031,99.545,34.324,98.688,34.324z M99.521,37.011h-0.352c-0.03,0-0.059-0.02-0.07-0.046l-0.474-0.807
					c-0.016-0.018-0.055-0.036-0.066-0.036c0,0-0.079,0-0.139,0c-0.034,0-0.066,0-0.08,0v0.803c0,0.04-0.026,0.086-0.078,0.086
					h-0.315c-0.048,0-0.079-0.046-0.079-0.086v-2.025c0-0.12,0.04-0.169,0.144-0.183c0.112-0.012,0.409-0.027,0.575-0.027
					c0.583,0,0.928,0.172,0.928,0.714v0.04c0,0.336-0.165,0.518-0.423,0.6l0.494,0.84c0.007,0.013,0.013,0.042,0.013,0.06
					C99.598,36.974,99.58,37.011,99.521,37.011z M99.066,35.403c0-0.227-0.142-0.297-0.441-0.297c-0.039,0-0.14,0-0.218,0
					c-0.034,0-0.067,0-0.081,0v0.644c0.047,0,0.26,0.009,0.299,0.009c0.3,0,0.441-0.102,0.441-0.315V35.403z"/>
			</g>
		</g>
	</g>
</g>
</svg>
