<?xml version="1.0" encoding="utf-8"?>
<!-- Generator: Adobe Illustrator 16.0.3, SVG Export Plug-In . SVG Version: 6.00 Build 0)  -->
<!DOCTYPE svg PUBLIC "-//W3C//DTD SVG 1.1//EN" "http://www.w3.org/Graphics/SVG/1.1/DTD/svg11.dtd">
<svg version="1.1" xmlns="http://www.w3.org/2000/svg" xmlns:xlink="http://www.w3.org/1999/xlink" x="0px" y="0px" width="176px"
	 height="100px" viewBox="0 0 176 100" enable-background="new 0 0 176 100" xml:space="preserve">
<g id="guides">
</g>
<g id="Layer_2">
	<g>
		<g>
			<path fill-rule="evenodd" clip-rule="evenodd" fill="#425463" d="M127.709,46.985c0-5.75,0.067-11.496-0.03-17.25
				c-0.043-1.833,0.833-2.084,2.317-2.058c2.63,0.052,2.817,0.119,2.85,2.109c0.036,2.838,0,5.688,0.014,8.531
				c0,2.51,0,2.485,2.381,1.994c4.282-0.891,8.521-1.046,12.646,0.715c3.771,1.599,6.157,4.411,7.251,8.317
				c1.459,5.192,1.4,10.4-0.313,15.541c-1.891,5.672-6.478,8.953-12.438,9.078c-2.807,0.063-5.567-0.125-8.217-1.145
				c-4.193-1.599-6.443-4.813-6.46-9.324C127.689,57.99,127.709,52.485,127.709,46.985z M150.96,56.506
				c0.077-1.989-0.178-4.09-0.824-6.119c-0.942-3.042-2.957-4.882-6.109-5.522c-3.301-0.671-6.483-0.259-9.671,0.662
				c-1,0.297-1.51,0.85-1.51,1.943c0.036,5.567,0,11.119,0.066,16.688c0.017,2.271,1.304,3.755,3.401,4.421
				c2.5,0.802,5.063,1.11,7.676,0.484c2.934-0.692,4.987-2.374,5.939-5.275C150.693,61.463,151.013,59.084,150.96,56.506z"/>
		</g>
		<g>
			<path fill-rule="evenodd" clip-rule="evenodd" fill="#425463" d="M120.236,57.032c0.066,1.76-0.012,3.494-0.345,5.245
				c-1.322,6.822-6.025,11.104-12.989,11.625c-2.714,0.203-5.423,0.146-8.073-0.72c-4.474-1.437-7.531-4.281-8.87-8.817
				c-1.344-4.568-1.484-9.208-0.313-13.802c1.72-6.735,6.47-10.469,13.47-10.839c2.114-0.12,4.23,0.011,6.308,0.506
				c6.557,1.562,10.438,6.546,10.813,13.906C120.283,55.101,120.236,56.068,120.236,57.032z M115.156,56.859
				c-0.041,0-0.094,0-0.145,0c0-1.146,0.114-2.307-0.021-3.438c-0.38-3.088-1.228-6.108-4.214-7.614
				c-4.036-2.036-8.26-2.004-12.37,0.031c-1.574,0.791-2.541,2.188-3.156,3.833c-1.348,3.605-1.457,7.328-0.854,11.073
				c0.913,5.683,3.36,8.151,9.037,8.563c6.38,0.452,10.567-1.865,11.496-8.47C115.115,59.526,115.096,58.183,115.156,56.859z"/>
		</g>
		<g>
			<path fill-rule="evenodd" clip-rule="evenodd" fill="#187ADD" d="M23.178,54.637c-2.439-0.037-3.923-2.323-3.143-4.424
				c0.304-0.832,0.903-1.416,1.5-2.015c6.81-6.802,13.61-13.593,20.417-20.39c0.203-0.214,0.413-0.429,0.646-0.626
				c1.787-1.537,3.663-1.572,5.026-0.13c1.304,1.38,1.239,3.214-0.39,4.844c-7.12,7.162-14.277,14.286-21.417,21.422
				C25.012,54.1,24.062,54.589,23.178,54.637z"/>
		</g>
		<g>
			<path fill-rule="evenodd" clip-rule="evenodd" fill="#2994EC" d="M60.286,30.558c-0.014,1.042-0.374,1.792-0.994,2.417
				c-7.344,7.343-14.673,14.688-22.054,22.016c-1.394,1.401-3.227,1.38-4.547,0.151c-1.343-1.261-1.42-3.229,0.033-4.688
				c7.274-7.334,14.587-14.625,21.906-21.907c1.011-1,2.265-1.441,3.65-0.833C59.548,28.277,60.229,29.297,60.286,30.558z"/>
		</g>
		<g>
			<path fill-rule="evenodd" clip-rule="evenodd" fill="#40ABF4" d="M30.322,73.162c-1.42,0.104-2.344-0.589-2.953-1.75
				c-0.598-1.131-0.401-2.224,0.355-3.219c0.254-0.338,0.567-0.636,0.864-0.932c6.953-6.953,13.923-13.907,20.886-20.86
				c0.333-0.338,0.677-0.688,1.073-0.963c1.321-0.907,3.057-0.745,4.141,0.416c1.141,1.234,1.141,2.609,0.27,3.983
				c-0.28,0.459-0.703,0.834-1.083,1.209c-6.826,6.84-13.672,13.662-20.494,20.5C32.516,72.402,31.636,73.234,30.322,73.162z"/>
		</g>
		<g>
			<path fill-rule="evenodd" clip-rule="evenodd" fill="#425463" d="M80.702,50.75c0,6.839,0.017,13.673,0,20.505
				c-0.004,2.188-0.113,2.282-2.41,2.287c-2.386,0-2.517-0.083-2.521-2.192c0-13.797,0-27.583,0-41.375
				c0-2.229,0.098-2.281,2.604-2.271c2.232,0.011,2.322,0.078,2.326,2.355C80.719,36.964,80.702,43.855,80.702,50.75z"/>
		</g>
	</g>
</g>
</svg>
