<?xml version="1.0" encoding="utf-8"?>
<!-- Generator: Adobe Illustrator 16.0.3, SVG Export Plug-In . SVG Version: 6.00 Build 0)  -->
<!DOCTYPE svg PUBLIC "-//W3C//DTD SVG 1.1//EN" "http://www.w3.org/Graphics/SVG/1.1/DTD/svg11.dtd">
<svg version="1.1" xmlns="http://www.w3.org/2000/svg" xmlns:xlink="http://www.w3.org/1999/xlink" x="0px" y="0px" width="230px"
	 height="100px" viewBox="0 0 230 100" enable-background="new 0 0 230 100" xml:space="preserve">
<g id="guides">
</g>
<g id="Layer_2">
	<g>
		
			<linearGradient id="SVGID_2_" gradientUnits="userSpaceOnUse" x1="-2162.5352" y1="-1478.4458" x2="-2179.064" y2="-1478.5587" gradientTransform="matrix(-0.9771 -0.323 0.2901 -0.8773 -1660.4773 -1945.8794)">
			<stop  offset="0.2308" style="stop-color:#9B9976"/>
			<stop  offset="0.5643" style="stop-color:#9C9A78"/>
			<stop  offset="0.6844" style="stop-color:#A2A07F"/>
			<stop  offset="0.7701" style="stop-color:#ABA98A"/>
			<stop  offset="0.8393" style="stop-color:#B9B79B"/>
			<stop  offset="0.8986" style="stop-color:#CAC8B1"/>
			<stop  offset="0.9501" style="stop-color:#DFDDCC"/>
			<stop  offset="0.9966" style="stop-color:#F8F6EB"/>
			<stop  offset="1" style="stop-color:#FAF8EE"/>
		</linearGradient>
		<path fill="url(#SVGID_2_)" d="M32.912,75.272l-1.404-0.467c0,0,0.182-7.093-2.38-7.593c-1.688-1.955,0.26-83.521,6.391-0.277
			c0,0-2.096,1.055-2.495,2.843C32.624,71.57,32.912,75.272,32.912,75.272z"/>
		<path fill="#008E46" d="M33.666,68.418c0,0,12.183-8.022,9.329-24.688c-2.748-12.104-9.236-16.086-9.934-17.607
			c-0.771-1.072-1.545-2.979-1.545-2.979l0.52,33.73C32.036,56.875,30.966,67.179,33.666,68.418z"/>
		<path fill="#36A348" d="M30.797,68.869c0,0-11.429-7.797-10.77-21.553c0.656-13.757,8.727-20.519,10.301-21.745
			c1.014-1.086,1.058-1.504,1.134-2.571c0.715,1.53,0.598,22.854,0.67,25.351C32.428,58.055,31.596,67.036,30.797,68.869z"/>
		<path fill="#8F7954" d="M161.271,43.648c0.652,0,3.146,0.113,4.298,0.113c2.156,0,3.662-0.113,7.708-0.113
			c3.391,0,6.241,0.911,8.283,2.661c2.464,2.129,3.773,5.101,3.773,8.713c0,5.139-2.348,8.106-4.699,9.781
			c-2.348,1.749-5.393,2.739-9.748,2.739c-2.313,0-6.28-0.079-9.596-0.118h-0.04c-0.154-0.301,0.281-1.489,0.552-1.517
			c0.896-0.103,1.141-0.139,1.558-0.309c0.696-0.29,0.861-0.644,0.937-1.899c0.12-2.361,0.08-5.174,0.08-8.373
			c0-2.281,0.04-6.736-0.04-8.141c-0.115-1.183-0.617-1.487-1.619-1.714c-0.499-0.114-1.191-0.229-2.153-0.341
			C160.485,44.899,161.077,43.875,161.271,43.648z M168.963,64.804c0.807,0.646,2.427,0.912,3.853,0.912
			c1.849,0,3.658-0.341,5.432-1.941c1.809-1.637,3.045-4.145,3.045-8.142c0-3.844-1.465-6.964-4.47-8.792
			c-1.695-1.063-3.893-1.482-6.395-1.482c-0.733,0-1.465,0.039-1.89,0.227c-0.114,0.079-0.349,0.385-0.349,0.532
			c-0.074,0.686-0.074,5.898-0.074,8.984c0,3.158,0,7.568,0.074,8.101C168.229,63.66,168.459,64.459,168.963,64.804z"/>
		<path fill="#8F7954" d="M188.581,43.648c0.344,0,1.373,0.113,3.994,0.113c2.462,0,4.465-0.079,6.857-0.079
			c2.965,0,7.048,1.064,7.048,5.479c0,2.169-1.541,3.919-3.544,4.757c-0.115,0.038-0.115,0.112,0,0.152
			c2.851,0.724,5.357,2.473,5.357,5.824c0,3.271-2.044,5.327-5.008,6.618c-1.815,0.798-4.048,1.064-6.321,1.064
			c-1.734,0-6.38-0.188-8.962-0.153c-0.27-0.113,0.249-1.33,0.479-1.517c0.617-0.04,1.094-0.086,1.747-0.277
			c0.927-0.227,1.035-0.526,1.149-1.897c0.076-1.177,0.076-5.399,0.076-8.406c0-4.11,0.039-6.889,0-8.259
			c-0.036-1.064-0.425-1.404-1.157-1.596c-0.577-0.114-1.539-0.229-2.308-0.341C187.795,44.939,188.388,43.797,188.581,43.648z
			 M204.287,60.728c0-3.346-2.467-5.247-6.979-5.247c-0.188,0-1.614-0.04-1.963,0.04c-0.115,0.033-0.229,0.112-0.229,0.186
			c0,2.401-0.039,6.245,0.074,7.763c0.08,0.649,0.54,1.562,1.117,1.827c0.619,0.346,2.004,0.42,2.971,0.42
			C201.935,65.716,204.287,64.232,204.287,60.728z M195.54,45.512c-0.154,0.039-0.35,0.418-0.35,0.605
			c-0.037,1.369-0.074,4.948-0.074,7.421c0,0.079,0.114,0.192,0.19,0.192c0.503,0.034,1.733,0.074,2.775,0.074
			c1.465,0,2.313-0.188,2.776-0.419c1.23-0.606,1.809-1.941,1.809-3.386c0-3.311-2.313-4.568-5.74-4.568
			C196.695,45.432,196.038,45.432,195.54,45.512z"/>
		<path fill="#3C1604" d="M50.745,67.522c-0.063-0.103-0.131-0.401-0.117-0.766c0.01-0.28,0.063-0.454,0.116-0.515
			c0.728-0.113,1.069-0.193,1.479-0.302c0.682-0.169,0.939-0.536,0.979-1.405c0.112-2.053,0.118-5.9,0.075-8.61l0.001-0.077
			c0.003-0.293,0.007-0.688-0.357-0.966c-0.534-0.354-1.197-0.646-2.041-0.896c-0.326-0.097-0.503-0.266-0.494-0.465
			c0.01-0.192,0.212-0.432,0.633-0.515c1.115-0.115,4.043-0.811,5.191-1.339c0.067,0.079,0.174,0.261,0.156,0.544
			c-0.014,0.119-0.022,0.247-0.033,0.375c-0.034,0.381-0.067,0.818-0.067,1.251c0,0.124,0.135,0.244,0.282,0.244
			c0.078,0,0.146-0.027,0.2-0.082c2.186-1.715,4.143-2.323,5.154-2.323c1.652,0,2.938,0.79,3.934,2.416
			c0.059,0.083,0.14,0.129,0.229,0.129c0.081,0,0.162-0.044,0.204-0.112c2.016-1.523,4.006-2.433,5.342-2.433
			c3.155,0,5.035,2.354,5.035,6.305c0,1.138-0.011,2.574-0.019,3.919c-0.009,1.177-0.021,2.281-0.021,3.044
			c0,0.188,0.249,0.703,0.622,0.805c0.463,0.224,1.132,0.337,1.973,0.484l0.029,0.005c0.063,0.225-0.068,1.105-0.199,1.284
			c-0.204-0.001-0.495-0.015-0.857-0.031c-0.652-0.035-1.549-0.081-2.596-0.081c-2.097,0-3.193,0.042-4.234,0.108
			c-0.081-0.263-0.106-1.104-0.015-1.278c0.612-0.113,0.915-0.193,1.282-0.302c0.663-0.218,0.857-0.522,0.897-1.403
			c0.014-0.63,0.133-6.168-0.081-7.483c-0.199-1.363-1.226-2.957-3.477-2.957c-0.834,0-2.18,0.343-3.462,1.319
			c-0.083,0.075-0.13,0.226-0.13,0.325l0.002,0.024c0.152,0.712,0.152,1.535,0.152,2.79c0,0.716-0.004,1.472-0.008,2.223
			c-0.008,1.527-0.016,2.972,0.008,4.058c0,0.742,0.452,0.922,0.81,1.063c0.197,0.044,0.354,0.083,0.51,0.121
			c0.305,0.071,0.617,0.149,1.083,0.223c0.062,0.147,0.067,0.583-0.021,0.955c-0.049,0.208-0.104,0.301-0.131,0.327
			c-1.166-0.036-2.363-0.073-4.09-0.073c-0.522,0-1.377,0.021-2.128,0.044c-0.613,0.015-1.191,0.029-1.52,0.029
			c-0.047-0.072-0.113-0.315-0.113-0.659c0-0.322,0.06-0.553,0.119-0.621c0.162-0.032,0.316-0.058,0.464-0.086
			c0.407-0.07,0.753-0.132,1.092-0.216c0.566-0.173,0.781-0.489,0.823-1.216c0.111-1.693,0.2-6.568-0.042-7.794
			c-0.404-1.96-1.521-2.954-3.314-2.954c-1.054,0-2.386,0.508-3.469,1.318c-0.185,0.137-0.319,0.473-0.319,0.784
			c0,0.581-0.001,1.272-0.003,2.019c-0.007,2.448-0.021,5.498,0.038,6.817c0.039,0.407,0.182,0.89,0.945,1.065
			c0.171,0.047,0.458,0.096,0.792,0.151c0.193,0.028,0.405,0.065,0.621,0.106c0.081,0.209,0.033,1.028-0.104,1.284
			c-0.333-0.001-0.746-0.019-1.218-0.037c-0.724-0.034-1.622-0.075-2.643-0.075c-1.206,0-2.045,0.041-2.719,0.075
			C51.527,67.504,51.133,67.521,50.745,67.522L50.745,67.522z"/>
		<path fill="#3C1604" d="M89.587,67.868c-5.79,0-7.851-4.244-7.851-8.212c0-2.77,1.131-4.94,3.373-6.44
			c1.591-0.979,3.491-1.539,5.205-1.539c4.418,0,7.506,3.173,7.506,7.714c0,3.091-1.235,5.527-3.566,7.052
			C93.137,67.128,91.195,67.868,89.587,67.868L89.587,67.868z M88.968,53.291c-0.699,0-1.357,0.187-1.843,0.519
			c-1.336,0.815-2.018,2.435-2.018,4.822c0,4.461,2.236,7.578,5.44,7.578c0.946,0,1.713-0.271,2.353-0.826
			c0.986-0.807,1.509-2.445,1.509-4.737C94.409,56.246,92.225,53.291,88.968,53.291L88.968,53.291z"/>
		<path fill="#3C1604" d="M149.526,67.868c-5.789,0-7.852-4.243-7.852-8.211c0-2.771,1.138-4.942,3.375-6.442
			c1.596-0.979,3.495-1.538,5.209-1.538c4.419,0,7.502,3.173,7.502,7.713c0,3.092-1.231,5.529-3.562,7.053
			C153.081,67.128,151.141,67.868,149.526,67.868L149.526,67.868z M148.913,53.291c-0.705,0-1.358,0.187-1.844,0.519
			c-1.341,0.815-2.022,2.434-2.022,4.822c0,4.461,2.241,7.578,5.445,7.578c0.941,0,1.714-0.271,2.353-0.827
			c0.986-0.806,1.51-2.443,1.51-4.735C154.354,56.246,152.164,53.291,148.913,53.291L148.913,53.291z"/>
		<path fill="#3C1604" d="M129.54,77c-2.077,0-3.577-0.437-4.854-1.421c-1.242-0.96-1.802-2.382-1.802-3.367
			c0-0.28,0.065-1.012,0.683-1.708c0.363-0.412,1.202-1.184,3.136-2.514c0.063-0.021,0.101-0.078,0.101-0.153
			c0-0.076-0.051-0.14-0.119-0.158c-1.596-0.607-2.076-1.609-2.223-2.157c-0.003-0.018-0.009-0.05-0.016-0.08
			c-0.046-0.213-0.09-0.416,0.197-0.624c0.227-0.159,0.582-0.371,0.966-0.594c0.559-0.335,1.193-0.709,1.548-1.008
			c0.055-0.055,0.081-0.137,0.063-0.214c-0.012-0.083-0.059-0.147-0.126-0.184c-2.364-0.793-3.557-2.545-3.557-5.217
			c0-1.726,0.801-3.28,2.186-4.274c0.95-0.749,3.335-1.651,4.879-1.651l0.092,0.001c1.589,0.034,2.485,0.37,3.728,0.831
			c0.675,0.245,1.313,0.347,2.204,0.347c1.316,0,1.887-0.417,2.383-0.896c0.026,0.059,0.097,0.249,0.124,0.681
			c0.034,0.44-0.091,1.099-0.427,1.565c-0.269,0.372-0.893,0.643-1.481,0.643c-0.059,0-0.116-0.003-0.171-0.009
			c-0.609-0.06-0.892-0.149-0.894-0.15l-0.15,0.053c-0.047,0.066-0.015,0.146,0.021,0.237c0.008,0.026,0.022,0.045,0.024,0.063
			c0.075,0.305,0.214,1.203,0.214,1.456c0,2.799-1.106,4.025-2.302,4.928c-1.139,0.858-2.476,1.376-3.976,1.535h-0.001
			c-0.032,0-0.177,0.012-0.461,0.033c-0.183,0.021-0.416,0.04-0.452,0.04l-0.031,0.004c-0.261,0.077-0.938,0.397-0.938,0.995
			c0,0.501,0.308,1.115,1.773,1.225c0.294,0.025,0.612,0.046,0.948,0.07c1.931,0.133,4.347,0.3,5.486,0.688
			c1.56,0.565,2.535,1.967,2.535,3.65c0,2.515-1.789,4.872-4.785,6.319C132.609,76.669,131.139,77,129.54,77L129.54,77z
			 M129.311,68.173c-0.672,0-1.158,0.192-1.451,0.354c-1.409,0.908-2.066,1.812-2.066,2.848c0,0.982,0.38,1.764,1.201,2.455
			c0.992,0.84,2.328,1.25,4.085,1.25c3.462,0,5.011-1.862,5.011-3.705c0-1.28-0.643-2.138-1.966-2.622
			C133.104,68.375,131.395,68.173,129.311,68.173L129.311,68.173z M129.54,53.145c-1.786,0-2.935,1.403-2.935,3.585
			c0,2.195,0.987,4.764,3.781,4.764c0.479,0,1.352-0.213,1.782-0.688c0.646-0.594,1.07-1.828,1.07-3.125
			C133.239,54.839,131.857,53.145,129.54,53.145L129.54,53.145z"/>
		<g>
			<g>
				<path fill="#3C1604" d="M120.136,66.127c-0.848-0.113-1.466-0.23-2.198-0.571c-0.114-0.073-0.27-0.419-0.27-0.532
					c-0.075-1.178-0.075-4.603-0.075-6.85c0-1.828-0.309-3.425-1.081-4.569c-0.922-1.29-2.232-2.054-3.928-2.054
					c-1.505,0-3.509,1.03-5.162,2.439c-0.041,0.034-0.296,0.278-0.291-0.097c0.006-0.374,0.067-1.138,0.1-1.617
					c0.036-0.479-0.254-0.703-0.254-0.703c-1.076,0.531-4.117,1.255-5.237,1.369c-0.823,0.158-1.063,0.945-0.156,1.217l0,0
					c0.018,0.005,0.032,0.011,0.05,0.017c0.895,0.271,1.501,0.562,1.955,0.855c0.349,0.271,0.31,0.651,0.31,0.957
					c0.039,2.548,0.039,6.466-0.075,8.599c-0.04,0.819-0.271,1.127-0.863,1.281c-0.448,0.109-0.829,0.183-1.394,0.259
					c-0.195,0.188-0.195,1.291,0,1.523c0.383,0,2.348-0.119,3.967-0.119c2.233,0,3.39,0.119,3.968,0.119
					c0.233-0.267,0.309-1.297,0.153-1.523c-0.652-0.039-1.116-0.113-1.579-0.23c-0.619-0.149-0.768-0.454-0.808-1.14
					c-0.079-1.788-0.079-5.593-0.079-8.18c0-0.725,0.193-1.069,0.423-1.257c0.772-0.686,2.043-1.143,3.16-1.143
					c1.081,0,1.813,0.345,2.353,0.798c0.732,0.611,1.002,1.488,1.077,2.134c0.153,1.444,0.118,4.337,0.118,6.85
					c0,1.369-0.118,1.71-0.617,1.863c-0.234,0.112-0.848,0.227-1.58,0.305c-0.229,0.227-0.155,1.291,0,1.523
					c1.002,0,2.158-0.119,3.853-0.119c2.118,0,3.468,0.119,4.007,0.119C120.21,67.384,120.289,66.394,120.136,66.127z"/>
			</g>
		</g>
	</g>
</g>
</svg>
