<?xml version="1.0" encoding="utf-8"?>
<!-- Generator: Adobe Illustrator 17.1.0, SVG Export Plug-In . SVG Version: 6.00 Build 0)  -->
<!DOCTYPE svg PUBLIC "-//W3C//DTD SVG 1.1//EN" "http://www.w3.org/Graphics/SVG/1.1/DTD/svg11.dtd">
<svg version="1.1" id="Layer_1" xmlns="http://www.w3.org/2000/svg" xmlns:xlink="http://www.w3.org/1999/xlink" x="0px" y="0px"
	 viewBox="0 0 600 95" enable-background="new 0 0 600 95" xml:space="preserve">
<g>
	<g>
		<path fill-rule="evenodd" clip-rule="evenodd" fill="#FFFFFF" d="M11.3,90.9c30.8-19.8,65.7-5.5,83.1,4
			C70.3,85.3,35,83.1,11.3,90.9z"/>
		<path fill-rule="evenodd" clip-rule="evenodd" fill="#FFFFFF" d="M65.3,0.3c14.8,0,27.5,8.7,33.2,21.2H87
			c-5.1-6.3-13-10.3-21.8-10.3c-8.7,0-16.4,3.9-21.5,10c0.3-0.2,0.6-0.4,0.8-0.6c12.1-8.6,28.2,0.9,28.2,0.9S57.4,17,47.1,24.3
			c-10.4,7.3-8.7,21.8-8.7,21.8s-0.1-0.2-0.2-0.5c0,0.2,0.1,0.3,0.1,0.5c-2.5-1.8-5.5-3-8.8-3.3c-0.4-2.1-0.6-4.3-0.6-6.5
			C29,16.4,45.3,0.3,65.3,0.3L65.3,0.3z M18.8,82.5v-3.1c9.6-7.1,27.3-16.3,48.6-9.7c32.4,10.1,52.9,23.9,77.9,17.7
			c25-6.2,27.2-19.9,27.2-19.9s-4.4,19.3-29,23.5c-24.6,4.2-47.3-0.5-76.2-11.3C47.9,72.6,29,78.2,18.8,82.5L18.8,82.5z M18.8,76.3
			c1.8-1.2,3.6-2.3,5.3-3.2c-0.8-0.5-1.6-1.1-2.3-1.8c-1.3-1.3-2.3-2.7-3-4.1v6.7L19,74c0.3,0.3,0.7,0.6,1,0.9
			c-0.4-0.2-0.8-0.4-1.2-0.6V76.3L18.8,76.3z M18.8,45.1V33.7c2.4-0.8,4.9-1.3,7.5-1.4c-0.1,1.3-0.2,2.6-0.2,4
			c0,2.3,0.2,4.5,0.6,6.6C23.8,43,21.1,43.8,18.8,45.1z M18.8,33.7v11.4c-5.1,2.9-8.5,8.3-8.5,14.6c0,6.2,3.4,11.6,8.5,14.6v2
			c-2,1.4-4,2.9-5.7,4.1C5.8,75.7,1,67.6,1,58.4C1,46.9,8.4,37.2,18.8,33.7L18.8,33.7z M18.8,67.1c-3.2-6.3-2.1-13.4-2.1-13.4
			s-5.5,12.6,2.1,20.1V67.1L18.8,67.1z M18.8,79.4c-5,3.7-7.8,6.8-7.8,6.8c0,0.1,2.9-1.6,7.8-3.7V79.4z"/>
		<path fill-rule="evenodd" clip-rule="evenodd" fill="#FFFFFF" d="M100.2,74.5c0,0,15.4,7.9,30,6.6c14.5-1.3,18.9-6.4,18.9-6.4
			s-5.3,9.8-19.3,10.4C115.8,85.6,100.2,74.8,100.2,74.5z"/>
		<rect x="88.3" y="24.5" fill-rule="evenodd" clip-rule="evenodd" fill="#FFFFFF" width="13" height="13"/>
		<rect x="139.9" y="60.5" fill-rule="evenodd" clip-rule="evenodd" fill="#FFFFFF" width="10" height="10"/>
		<rect x="104" y="12.6" fill-rule="evenodd" clip-rule="evenodd" fill="#FFFFFF" width="17.3" height="17.3"/>
		<rect x="154.2" y="42.6" fill-rule="evenodd" clip-rule="evenodd" fill="#FFFFFF" width="17.3" height="17.3"/>
		<rect x="123" y="31.3" fill-rule="evenodd" clip-rule="evenodd" fill="#FFFFFF" width="9.6" height="9.6"/>
		<rect x="129.4" y="50.3" fill-rule="evenodd" clip-rule="evenodd" fill="#FFFFFF" width="9.6" height="9.6"/>
		<rect x="109.1" y="51.2" fill-rule="evenodd" clip-rule="evenodd" fill="#FFFFFF" width="9.7" height="9.6"/>
		<rect x="142.9" y="31.6" fill-rule="evenodd" clip-rule="evenodd" fill="#FFFFFF" width="9.6" height="9.6"/>
	</g>
	<g>
		<path fill="#FFFFFF" d="M250.1,50.9c0,4-0.7,7.8-2,11.1c-1.3,3.4-3.2,6.3-5.7,8.7c-2.4,2.4-5.4,4.3-8.8,5.7c-3.4,1.3-7.2,2-11.4,2
			H201V23.3h21.1c4.2,0,8,0.7,11.4,2c3.4,1.4,6.4,3.3,8.8,5.7c2.4,2.4,4.3,5.3,5.7,8.7C249.4,43.2,250.1,46.9,250.1,50.9z
			 M239.6,50.9c0-3-0.4-5.7-1.2-8.2c-0.8-2.4-2-4.4-3.5-6.1c-1.5-1.7-3.3-2.9-5.5-3.8c-2.2-0.9-4.6-1.3-7.3-1.3h-10.7v38.9h10.7
			c2.7,0,5.1-0.4,7.3-1.3c2.2-0.9,4-2.2,5.5-3.8c1.5-1.7,2.7-3.7,3.5-6.1C239.1,56.7,239.6,53.9,239.6,50.9z"/>
		<path fill="#FFFFFF" d="M265.2,27.9c0,0.8-0.2,1.6-0.5,2.3c-0.3,0.7-0.8,1.3-1.3,1.9c-0.5,0.5-1.2,1-1.9,1.3
			c-0.7,0.3-1.5,0.5-2.4,0.5c-0.8,0-1.6-0.2-2.3-0.5c-0.7-0.3-1.4-0.7-1.9-1.3c-0.5-0.5-1-1.2-1.3-1.9c-0.3-0.7-0.5-1.5-0.5-2.3
			c0-0.8,0.2-1.6,0.5-2.4c0.3-0.7,0.7-1.4,1.3-1.9c0.5-0.5,1.2-1,1.9-1.3c0.7-0.3,1.5-0.5,2.3-0.5c0.8,0,1.6,0.2,2.4,0.5
			c0.7,0.3,1.4,0.7,1.9,1.3c0.5,0.5,1,1.2,1.3,1.9C265,26.3,265.2,27.1,265.2,27.9z M263.8,39.3v39.2h-9.4V39.3H263.8z"/>
		<path fill="#FFFFFF" d="M284.2,38.7c1.7,0,3.3,0.2,4.7,0.5c1.5,0.3,2.8,0.8,4,1.5h11.3v3.5c0,0.6-0.2,1-0.5,1.4
			c-0.3,0.3-0.8,0.6-1.6,0.7l-3.5,0.6c0.3,0.7,0.5,1.4,0.6,2.1c0.1,0.7,0.2,1.5,0.2,2.3c0,1.9-0.4,3.7-1.2,5.2
			c-0.8,1.6-1.8,2.9-3.2,4c-1.4,1.1-3,1.9-4.8,2.5c-1.9,0.6-3.9,0.9-6.1,0.9c-1.5,0-2.9-0.1-4.3-0.4c-1.2,0.7-1.8,1.6-1.8,2.5
			c0,0.8,0.4,1.4,1.1,1.8c0.7,0.4,1.7,0.6,2.9,0.8c1.2,0.2,2.5,0.2,4,0.2c1.5,0,3,0.1,4.6,0.2c1.6,0.1,3.1,0.4,4.6,0.7
			c1.5,0.3,2.8,0.8,4,1.5c1.2,0.7,2.1,1.6,2.9,2.8c0.7,1.2,1.1,2.7,1.1,4.6c0,1.7-0.4,3.4-1.3,5.1c-0.9,1.6-2.1,3.1-3.7,4.4
			c-1.6,1.3-3.6,2.3-5.9,3.1c-2.3,0.8-5,1.2-8,1.2c-3,0-5.6-0.3-7.7-0.9c-2.2-0.6-4-1.3-5.4-2.3c-1.4-1-2.5-2.1-3.2-3.3
			c-0.7-1.2-1.1-2.5-1.1-3.9c0-1.8,0.6-3.4,1.7-4.6c1.1-1.2,2.7-2.2,4.7-3c-1-0.5-1.7-1.2-2.3-2.1c-0.6-0.9-0.9-2-0.9-3.5
			c0-0.6,0.1-1.2,0.3-1.8c0.2-0.6,0.5-1.2,0.9-1.9c0.4-0.6,0.9-1.2,1.6-1.7c0.6-0.5,1.4-1,2.3-1.5c-2-1.1-3.5-2.5-4.7-4.3
			c-1.1-1.8-1.7-3.9-1.7-6.3c0-1.9,0.4-3.7,1.2-5.2c0.8-1.6,1.9-2.9,3.2-4c1.4-1.1,3-2,4.9-2.5C279.9,39,281.9,38.7,284.2,38.7z
			 M294.5,80.2c0-0.8-0.2-1.4-0.7-1.9c-0.5-0.5-1.1-0.9-1.9-1.2c-0.8-0.3-1.7-0.5-2.8-0.6c-1.1-0.1-2.2-0.2-3.4-0.2s-2.4,0-3.7,0
			s-2.5-0.1-3.6-0.4c-1.1,0.6-1.9,1.3-2.6,2.1s-1,1.7-1,2.8c0,0.7,0.2,1.3,0.5,1.9s0.9,1.1,1.6,1.5c0.8,0.4,1.7,0.8,2.9,1
			c1.2,0.2,2.7,0.4,4.4,0.4c1.8,0,3.3-0.1,4.5-0.4c1.3-0.3,2.3-0.6,3.1-1.1c0.8-0.5,1.4-1.1,1.8-1.7
			C294.3,81.7,294.5,80.9,294.5,80.2z M284.2,58c1.2,0,2.2-0.2,3.1-0.5c0.9-0.3,1.6-0.8,2.2-1.3c0.6-0.6,1-1.2,1.3-2
			c0.3-0.8,0.4-1.7,0.4-2.6c0-1.9-0.6-3.5-1.7-4.6c-1.2-1.1-2.9-1.7-5.2-1.7c-2.3,0-4.1,0.6-5.2,1.7c-1.2,1.1-1.7,2.7-1.7,4.6
			c0,0.9,0.1,1.8,0.4,2.6c0.3,0.8,0.7,1.5,1.3,2c0.6,0.6,1.3,1,2.2,1.3S283,58,284.2,58z"/>
		<path fill="#FFFFFF" d="M317.8,27.9c0,0.8-0.2,1.6-0.5,2.3c-0.3,0.7-0.8,1.3-1.3,1.9s-1.2,1-1.9,1.3c-0.7,0.3-1.5,0.5-2.4,0.5
			c-0.8,0-1.6-0.2-2.3-0.5c-0.7-0.3-1.4-0.7-1.9-1.3c-0.5-0.5-1-1.2-1.3-1.9c-0.3-0.7-0.5-1.5-0.5-2.3c0-0.8,0.2-1.6,0.5-2.4
			c0.3-0.7,0.7-1.4,1.3-1.9c0.5-0.5,1.2-1,1.9-1.3c0.7-0.3,1.5-0.5,2.3-0.5c0.8,0,1.6,0.2,2.4,0.5c0.7,0.3,1.4,0.7,1.9,1.3
			c0.5,0.5,1,1.2,1.3,1.9C317.6,26.3,317.8,27.1,317.8,27.9z M316.4,39.3v39.2h-9.4V39.3H316.4z"/>
		<path fill="#FFFFFF" d="M336.1,79.1c-3.4,0-6-1-7.8-2.9c-1.8-1.9-2.7-4.6-2.7-8V46.4h-4c-0.5,0-0.9-0.2-1.3-0.5s-0.6-0.8-0.6-1.5
			v-3.7l6.3-1l2-10.7c0.1-0.5,0.3-0.9,0.7-1.2c0.4-0.3,0.8-0.4,1.4-0.4h4.9v12.3h10.3v6.7h-10.3v21.2c0,1.2,0.3,2.2,0.9,2.9
			c0.6,0.7,1.4,1,2.4,1c0.6,0,1.1-0.1,1.5-0.2c0.4-0.1,0.7-0.3,1-0.4c0.3-0.2,0.6-0.3,0.8-0.4c0.2-0.1,0.5-0.2,0.7-0.2
			c0.3,0,0.5,0.1,0.7,0.2c0.2,0.1,0.4,0.4,0.6,0.6l2.8,4.6c-1.4,1.1-3,2-4.7,2.6C339.8,78.8,338,79.1,336.1,79.1z"/>
		<path fill="#FFFFFF" d="M379.6,78.5h-4.2c-0.9,0-1.6-0.1-2.1-0.4c-0.5-0.3-0.9-0.8-1.1-1.6l-0.8-2.8c-1,0.9-2,1.7-2.9,2.3
			c-1,0.7-1.9,1.2-3,1.7c-1,0.5-2.1,0.8-3.2,1c-1.1,0.2-2.4,0.3-3.8,0.3c-1.7,0-3.2-0.2-4.6-0.7c-1.4-0.4-2.6-1.1-3.6-2
			c-1-0.9-1.8-2-2.3-3.3s-0.8-2.9-0.8-4.6c0-1.5,0.4-2.9,1.2-4.4c0.8-1.4,2.1-2.7,3.9-3.9s4.2-2.1,7.2-2.9s6.7-1.1,11.2-1.1v-2.3
			c0-2.6-0.6-4.6-1.7-5.9c-1.1-1.3-2.7-1.9-4.8-1.9c-1.5,0-2.8,0.2-3.8,0.5s-1.9,0.8-2.7,1.2c-0.8,0.4-1.4,0.8-2.1,1.2
			s-1.3,0.5-2.1,0.5c-0.6,0-1.2-0.2-1.6-0.5c-0.5-0.3-0.8-0.7-1.1-1.2l-1.7-3c4.5-4.1,9.9-6.2,16.3-6.2c2.3,0,4.3,0.4,6.1,1.1
			c1.8,0.8,3.3,1.8,4.6,3.1c1.2,1.3,2.2,2.9,2.8,4.8c0.6,1.9,1,3.9,1,6.1V78.5z M361.3,72.6c1,0,1.9-0.1,2.7-0.3
			c0.8-0.2,1.6-0.4,2.3-0.8c0.7-0.4,1.4-0.8,2.1-1.3c0.7-0.5,1.4-1.1,2-1.8v-6.6c-2.7,0-5,0.2-6.9,0.5c-1.8,0.3-3.3,0.8-4.4,1.3
			c-1.1,0.5-1.9,1.2-2.4,1.9c-0.5,0.7-0.7,1.5-0.7,2.3c0,1.7,0.5,2.9,1.5,3.6C358.4,72.3,359.7,72.6,361.3,72.6z"/>
		<path fill="#FFFFFF" d="M395.1,21.8v56.7h-9.4V21.8H395.1z"/>
		<path fill="#FFFFFF" d="M455.4,50.9c0,4-0.7,7.8-2,11.2c-1.3,3.4-3.2,6.4-5.7,9c-2.4,2.5-5.4,4.5-8.8,5.9
			c-3.4,1.4-7.2,2.1-11.4,2.1s-8-0.7-11.4-2.1c-3.4-1.4-6.4-3.4-8.9-5.9c-2.5-2.5-4.4-5.5-5.7-9c-1.3-3.4-2-7.2-2-11.2
			c0-4,0.7-7.8,2-11.2c1.3-3.4,3.3-6.4,5.7-9c2.5-2.5,5.4-4.5,8.9-5.9c3.4-1.4,7.3-2.1,11.4-2.1s8,0.7,11.4,2.1
			c3.4,1.4,6.4,3.4,8.8,5.9c2.4,2.5,4.3,5.5,5.7,8.9C454.8,43.1,455.4,46.9,455.4,50.9z M444.9,50.9c0-3-0.4-5.7-1.2-8.2
			c-0.8-2.4-2-4.4-3.5-6.1c-1.5-1.7-3.3-3-5.5-3.9c-2.2-0.9-4.6-1.3-7.3-1.3s-5.1,0.4-7.3,1.3c-2.2,0.9-4,2.2-5.5,3.9
			c-1.5,1.7-2.7,3.7-3.5,6.1c-0.8,2.4-1.2,5.1-1.2,8.2c0,3,0.4,5.7,1.2,8.1c0.8,2.4,2,4.4,3.5,6.1c1.5,1.7,3.4,2.9,5.5,3.8
			c2.2,0.9,4.6,1.3,7.3,1.3s5.1-0.4,7.3-1.3c2.2-0.9,4-2.2,5.5-3.8c1.5-1.7,2.7-3.7,3.5-6.1C444.5,56.7,444.9,53.9,444.9,50.9z"/>
		<path fill="#FFFFFF" d="M486.7,47.6c-0.3,0.4-0.6,0.6-0.8,0.8c-0.3,0.2-0.7,0.3-1.2,0.3c-0.5,0-1-0.1-1.4-0.4s-1-0.6-1.6-1
			c-0.6-0.4-1.4-0.7-2.3-1s-2-0.4-3.3-0.4c-1.7,0-3.1,0.3-4.4,0.9c-1.2,0.6-2.3,1.5-3.1,2.6c-0.8,1.1-1.4,2.5-1.9,4.1
			c-0.4,1.6-0.6,3.4-0.6,5.4c0,2.1,0.2,3.9,0.7,5.6c0.4,1.6,1.1,3,1.9,4.1c0.8,1.1,1.9,1.9,3.1,2.5c1.2,0.6,2.5,0.9,4,0.9
			c1.5,0,2.7-0.2,3.6-0.6c0.9-0.4,1.7-0.8,2.3-1.2c0.6-0.4,1.2-0.9,1.7-1.2s1-0.6,1.6-0.6c0.8,0,1.3,0.3,1.7,0.9l2.7,3.4
			c-1,1.2-2.2,2.2-3.4,3.1s-2.5,1.5-3.8,2c-1.3,0.5-2.7,0.8-4.1,1c-1.4,0.2-2.8,0.3-4.2,0.3c-2.4,0-4.7-0.5-6.8-1.4
			c-2.1-0.9-4-2.2-5.6-4s-2.9-3.8-3.8-6.4c-0.9-2.5-1.4-5.4-1.4-8.6c0-2.9,0.4-5.5,1.2-8c0.8-2.5,2-4.6,3.6-6.4
			c1.6-1.8,3.6-3.2,6-4.2c2.4-1,5.1-1.5,8.2-1.5c2.9,0,5.5,0.5,7.7,1.4c2.2,0.9,4.2,2.3,5.9,4L486.7,47.6z"/>
		<path fill="#FFFFFF" d="M508,38.7c2.5,0,4.7,0.4,6.8,1.2c2.1,0.8,3.9,1.9,5.4,3.5c1.5,1.5,2.7,3.4,3.5,5.6
			c0.8,2.2,1.3,4.7,1.3,7.5c0,0.7,0,1.3-0.1,1.8c-0.1,0.5-0.2,0.8-0.3,1.1c-0.2,0.3-0.4,0.5-0.7,0.6c-0.3,0.1-0.6,0.2-1.1,0.2h-24.2
			c0.3,4,1.4,7,3.2,8.9c1.9,1.9,4.4,2.8,7.5,2.8c1.5,0,2.8-0.2,4-0.5c1.1-0.4,2.1-0.8,2.9-1.2s1.6-0.8,2.2-1.2
			c0.6-0.4,1.2-0.5,1.8-0.5c0.4,0,0.7,0.1,1,0.2c0.3,0.2,0.5,0.4,0.7,0.6l2.7,3.4c-1,1.2-2.2,2.2-3.5,3.1s-2.7,1.5-4.1,2
			c-1.4,0.5-2.9,0.8-4.3,1c-1.5,0.2-2.9,0.3-4.3,0.3c-2.7,0-5.3-0.5-7.6-1.4c-2.3-0.9-4.4-2.2-6.1-4c-1.7-1.8-3.1-4-4.1-6.6
			c-1-2.6-1.5-5.6-1.5-9.1c0-2.7,0.4-5.2,1.3-7.5c0.9-2.4,2.1-4.4,3.7-6.1c1.6-1.7,3.6-3.1,5.9-4.1C502.4,39.2,505,38.7,508,38.7z
			 M508.1,45.5c-2.7,0-4.9,0.8-6.5,2.3c-1.6,1.6-2.5,3.8-3,6.6h17.7c0-1.2-0.2-2.4-0.5-3.5c-0.3-1.1-0.8-2-1.5-2.8
			c-0.7-0.8-1.6-1.5-2.6-1.9C510.8,45.7,509.5,45.5,508.1,45.5z"/>
		<path fill="#FFFFFF" d="M559.5,78.5h-4.2c-0.9,0-1.6-0.1-2.1-0.4c-0.5-0.3-0.9-0.8-1.1-1.6l-0.8-2.8c-1,0.9-2,1.7-2.9,2.3
			c-1,0.7-1.9,1.2-3,1.7c-1,0.5-2.1,0.8-3.2,1c-1.1,0.2-2.4,0.3-3.8,0.3c-1.7,0-3.2-0.2-4.6-0.7c-1.4-0.4-2.6-1.1-3.6-2
			c-1-0.9-1.8-2-2.3-3.3s-0.8-2.9-0.8-4.6c0-1.5,0.4-2.9,1.2-4.4c0.8-1.4,2.1-2.7,3.9-3.9s4.2-2.1,7.2-2.9s6.7-1.1,11.2-1.1v-2.3
			c0-2.6-0.6-4.6-1.7-5.9c-1.1-1.3-2.7-1.9-4.8-1.9c-1.5,0-2.8,0.2-3.8,0.5s-1.9,0.8-2.7,1.2c-0.8,0.4-1.4,0.8-2.1,1.2
			s-1.3,0.5-2.1,0.5c-0.6,0-1.2-0.2-1.6-0.5c-0.5-0.3-0.8-0.7-1.1-1.2l-1.7-3c4.5-4.1,9.9-6.2,16.3-6.2c2.3,0,4.3,0.4,6.1,1.1
			c1.8,0.8,3.3,1.8,4.6,3.1c1.2,1.3,2.2,2.9,2.8,4.8c0.6,1.9,1,3.9,1,6.1V78.5z M541.1,72.6c1,0,1.9-0.1,2.7-0.3
			c0.8-0.2,1.6-0.4,2.3-0.8c0.7-0.4,1.4-0.8,2.1-1.3c0.7-0.5,1.4-1.1,2-1.8v-6.6c-2.7,0-5,0.2-6.9,0.5c-1.8,0.3-3.3,0.8-4.4,1.3
			c-1.1,0.5-1.9,1.2-2.4,1.9c-0.5,0.7-0.7,1.5-0.7,2.3c0,1.7,0.5,2.9,1.5,3.6C538.3,72.3,539.5,72.6,541.1,72.6z"/>
		<path fill="#FFFFFF" d="M564.9,78.5V39.3h5.8c1.2,0,2,0.6,2.4,1.7l0.6,3.1c0.8-0.8,1.6-1.6,2.5-2.2c0.9-0.7,1.8-1.2,2.8-1.7
			c1-0.5,2-0.9,3.1-1.1c1.1-0.3,2.3-0.4,3.7-0.4c2.1,0,4,0.4,5.7,1.1c1.7,0.7,3,1.7,4.1,3.1c1.1,1.3,1.9,2.9,2.5,4.7
			c0.6,1.8,0.9,3.8,0.9,6v24.9h-9.4V53.6c0-2.4-0.6-4.2-1.7-5.6c-1.1-1.3-2.8-2-5-2c-1.6,0-3.2,0.4-4.6,1.1c-1.4,0.7-2.8,1.7-4,3
			v28.3H564.9z"/>
	</g>
</g>
</svg>
