<?xml version="1.0" encoding="UTF-8" standalone="no"?>
<svg width="1595px" height="1595px" viewBox="0 0 1595 1595" version="1.1" xmlns="http://www.w3.org/2000/svg" xmlns:xlink="http://www.w3.org/1999/xlink" xmlns:sketch="http://www.bohemiancoding.com/sketch/ns">
    <!-- Generator: Sketch 3.0.4 (8053) - http://www.bohemiancoding.com/sketch -->
    <title>Group</title>
    <desc>Created with Sketch.</desc>
    <defs></defs>
    <g id="Page-1" stroke="none" stroke-width="1" fill="none" fill-rule="evenodd" sketch:type="MSPage">
        <g id="Group" sketch:type="MSLayerGroup">
            <circle id="Oval-1" fill="#FFFFFF" sketch:type="MSShapeGroup" cx="797.203125" cy="797.203125" r="797.203125"></circle>
            <path d="M574.618748,863.485747 L574.618748,1075.52517 C585.041095,1089.36914 591.395598,1102.79087 591.395598,1119.54727 C591.395598,1140.41878 581.957046,1159.14621 567.127507,1171.63347 L548.6498,1153.17081 C558.82663,1145.51855 565.414079,1133.33759 565.414079,1119.60091 C565.414079,1096.41918 546.63207,1077.62253 523.465344,1077.62253 C500.298619,1077.62253 481.51661,1096.42265 481.51661,1119.6061 C481.51661,1133.22684 488.00032,1145.34031 498.047475,1153.01333 L479.588788,1171.46907 C464.885464,1158.98873 455.203125,1140.37552 455.203125,1119.6061 C455.203125,1102.83067 460.405141,1087.39466 470.779076,1075.52518 L470.779076,746.253284 C472.508065,733.570478 482.305029,723.315557 494.92665,723.315557 L1098.91961,723.389968 C1111.54296,723.389968 1121.50936,733.568747 1123.23835,746.253284 L1123.23835,1075.68957 C1131.8833,1087.55385 1138.8143,1102.90681 1138.8143,1119.68744 C1138.8143,1140.44128 1129.28584,1159.06661 1114.58079,1171.54868 L1096.03047,1153.0964 C1106.07935,1145.42164 1112.51811,1133.30817 1112.51811,1119.68744 C1112.51811,1096.50052 1093.71362,1077.70387 1070.5469,1077.70387 C1047.3819,1077.70387 1028.58606,1096.49879 1028.58606,1119.68744 C1028.58606,1133.41892 1035.16832,1145.60162 1045.34342,1153.26425 L1026.86399,1171.74076 C1012.03445,1159.25869 1002.59589,1140.46031 1002.59589,1119.5888 C1002.59589,1102.83413 1009.31003,1089.36914 1019.39868,1075.52517 L1019.39868,865.229776 L989.977438,865.229776 L989.977438,1310.43311 L1007.28405,1321.86476 L1007.28405,1358.46822 L804.804725,1358.46822 L804.804725,1321.8665 L827.295284,1310.87265 L827.295284,1173.28747 L768.452803,1173.28747 L768.495954,1310.43311 L789.243823,1321.86476 L789.243823,1358.46822 L585.002716,1358.46822 L585.002716,1321.86476 L605.77065,1310.46253 L605.77065,863.485747 L574.618748,863.485747 Z M799.869579,371.525784 C841.808692,371.525784 879.794975,386.470044 903.214282,408.959986 L921.725435,382.581248 C892.480721,356.38596 848.741721,339.743922 799.867848,339.743922 C750.864176,339.743922 707.024797,356.469032 677.783545,382.780274 L696.279122,409.193625 C719.679392,386.572153 757.790282,371.525784 799.869579,371.525784 Z M801.86157,304.135567 C847.687748,304.135567 890.433349,317.375126 922.216942,341.427855 C928.672309,346.311781 934.494253,351.512418 939.634317,356.972654 L958.171429,330.495268 C922.087143,295.132668 865.492791,272.351974 801.86157,272.351974 C736.695253,272.351974 678.915398,296.240291 642.98341,333.070492 L661.613978,359.68287 C667.335544,353.225773 673.984744,347.106155 681.502736,341.426124 C713.284599,317.375126 756.031931,304.135567 801.86157,304.135567 Z M799.869579,239.490179 C872.605808,239.490179 936.901603,265.990064 975.116333,306.281587 L993.518453,280.058609 C948.957389,236.066932 878.789461,207.703125 799.869579,207.703125 C720.814706,207.699664 650.556783,236.151734 606.000911,280.257635 L624.389186,306.52388 C662.572764,266.093903 726.987974,239.490179 799.869579,239.490179 Z M950.035591,442.948442 L643.130516,442.948442 C630.545148,442.948442 620.730568,453.316833 620.730568,465.95239 L620.730568,666.169124 C620.730568,678.726802 630.545148,688.702333 643.130516,688.702333 L950.035591,688.702333 C962.665956,688.702333 973.785454,678.726802 973.785454,666.169124 L973.785454,465.95239 C973.785454,453.316833 962.665956,442.948442 950.035591,442.948442 Z M718.393511,589.883309 C696.845048,589.883309 679.351524,572.336135 679.351524,550.825747 C679.351524,529.209788 696.845048,511.712803 718.393511,511.712803 C739.969664,511.712803 757.463187,529.208057 757.463187,550.825747 C757.463187,572.337865 739.969664,589.883309 718.393511,589.883309 L718.393511,589.883309 Z M875.269296,589.883309 C853.642953,589.883309 836.120009,572.336135 836.120009,550.825747 C836.120009,529.209788 853.642953,511.712803 875.269296,511.712803 C896.850641,511.712803 914.344164,529.208057 914.344164,550.825747 C914.344164,572.337865 896.850641,589.883309 875.269296,589.883309 L875.269296,589.883309 Z M738.412069,550.825747 C738.412069,561.834482 729.471473,570.804499 718.395241,570.804499 C707.400351,570.804499 698.432064,561.834482 698.432064,550.825747 C698.432064,539.71144 707.400351,530.798535 718.395241,530.798535 C729.471473,530.798535 738.412069,539.71144 738.412069,550.825747 L738.412069,550.825747 Z M875.269296,570.804499 C864.224216,570.804499 855.278428,561.834482 855.278428,550.825747 C855.278428,539.71144 864.224216,530.798535 875.269296,530.798535 C886.269378,530.798535 895.338043,539.71144 895.338043,550.825747 C895.338043,561.834482 886.269378,570.804499 875.269296,570.804499 Z" id="Ralph" fill="#C32F34" sketch:type="MSShapeGroup"></path>
        </g>
    </g>
</svg>