<?xml version="1.0" standalone="no"?>
<!DOCTYPE svg PUBLIC "-//W3C//DTD SVG 1.1//EN" "http://www.w3.org/Graphics/SVG/1.1/DTD/svg11.dtd" >
<svg xmlns="http://www.w3.org/2000/svg">
<metadata></metadata>
<defs>
<font id="klinic_slabbold" horiz-adv-x="569" >
<font-face units-per-em="1000" ascent="750" descent="-250" />
<missing-glyph horiz-adv-x="211" />
<glyph unicode="ff" horiz-adv-x="666" d="M38 0v88h71v255h-83v89h83v93q0 94 54 139.5t145 45.5q63 0 161 -28q43 36 117 36q34 0 84 -9v-83q-28 5 -55 5q-38 0 -59.5 -15.5t-21.5 -58.5v-125h107v-89h-107v-255h87v-88h-271v88h71v255h-199v-255h87v-88h-271zM330 623q-54 0 -81 -23t-27 -74v-94h199v127 q0 25 5 50q-58 14 -96 14z" />
<glyph unicode="fi" horiz-adv-x="621" d="M38 0v88h71v255h-83v89h83v111q0 175 198 175q64 0 166 -23l-12 -82q-81 18 -129 18q-52 0 -81 -19t-29 -68v-112h312v-344h66v-88h-238v88h59v256h-199v-256h87v-88h-271z" />
<glyph unicode="fl" horiz-adv-x="621" d="M38 0v88h71v255h-83v89h83v111q0 175 198 175q45 0 109 -11h118v-619h66v-88h-245v88h66v533q-47 10 -89 10q-52 0 -81 -19t-29 -68v-112h107v-89h-107v-255h87v-88h-271z" />
<glyph unicode="ffi" horiz-adv-x="933" d="M38 0v88h71v255h-83v89h83v93q0 94 54 139.5t145 45.5q62 0 170 -30q51 38 141 38q64 0 166 -23l-12 -82q-81 18 -129 18q-52 0 -81 -19t-29 -68v-112h312v-344h66v-88h-238v88h59v256h-199v-256h87v-88h-271v88h71v255h-199v-255h87v-88h-271zM330 623q-54 0 -81 -23 t-27 -74v-94h199v111q0 35 8 65q-56 15 -99 15z" />
<glyph unicode="ffl" horiz-adv-x="933" d="M350 0v88h71v255h-199v-255h87v-88h-271v88h71v255h-83v89h83v93q0 94 54 139.5t145 45.5q62 0 170 -30q51 38 141 38q45 0 109 -11h118v-619h66v-88h-245v88h66v533q-47 10 -89 10q-52 0 -81 -19t-29 -68v-112h107v-89h-107v-255h87v-88h-271zM222 432h199v111 q0 35 8 65q-56 15 -99 15q-54 0 -81 -23t-27 -74v-94z" />
<glyph unicode="ffb" horiz-adv-x="1184" d="M350 0v88h71v255h-199v-255h87v-88h-271v88h71v255h-83v89h83v93q0 94 54 139.5t145 45.5q62 0 170 -30q51 38 141 38q45 0 109 -11h118v-294q53 30 116 30q91 0 141.5 -58t50.5 -160q0 -118 -68.5 -177t-194.5 -59q-80 0 -158 16v616q-47 10 -89 10q-52 0 -81 -19 t-29 -68v-112h107v-89h-107v-255h87v-88h-271zM886 74q153 0 153 150q0 59 -25 97t-80 38q-43 0 -88 -24v-259q24 -2 40 -2zM222 432h199v111q0 35 8 65q-56 15 -99 15q-54 0 -81 -23t-27 -74v-94z" />
<glyph unicode="ffh" horiz-adv-x="1215" d="M350 0v88h71v255h-199v-255h87v-88h-271v88h71v255h-83v89h83v93q0 94 54 139.5t145 45.5q62 0 170 -30q51 38 141 38q45 0 109 -11h118v-326q77 62 157 62q61 0 95 -34.5t34 -99.5v-221h66v-88h-245v88h66v210q0 28 -12 42t-41 14q-55 0 -120 -50v-216h66v-88h-245v88 h66v533q-47 10 -89 10q-52 0 -81 -19t-29 -68v-112h107v-89h-107v-255h87v-88h-271zM222 526v-94h199v111q0 35 8 65q-56 15 -99 15q-54 0 -81 -23t-27 -74z" />
<glyph unicode="ffj" horiz-adv-x="907" d="M38 0v88h71v255h-83v89h83v93q0 94 54 139.5t145 45.5q62 0 170 -30q51 38 141 38q64 0 166 -23l-12 -82q-81 18 -129 18q-52 0 -81 -19t-29 -68v-112h312v-470q0 -44 -12.5 -75.5t-41.5 -53t-50 -31.5t-64 -26l-33 73q28 16 43.5 27.5t30 34.5t14.5 52v381h-199v-256h87 v-88h-271v88h71v255h-199v-255h87v-88h-271zM330 623q-54 0 -81 -23t-27 -74v-94h199v111q0 35 8 65q-56 15 -99 15z" />
<glyph unicode="ffk" horiz-adv-x="1185" d="M350 0v88h71v255h-199v-255h87v-88h-271v88h71v255h-83v89h83v93q0 94 54 139.5t145 45.5q62 0 170 -30q51 38 141 38q45 0 109 -11h118v-619h60v-88h-239v88h66v533q-47 10 -89 10q-52 0 -81 -19t-29 -68v-112h107v-89h-107v-255h87v-88h-271zM222 526v-94h199v111 q0 35 8 65q-56 15 -99 15q-54 0 -81 -23t-27 -74zM1108 -10q-47 0 -82 23t-70 71l-92 127v3l126 134h-61v84h233v-85h-56l-121 -130l55 -73q27 -35 47 -51.5t48 -16.5q13 0 26 3v-80q-27 -9 -53 -9z" />
<glyph unicode="fft" horiz-adv-x="977" d="M350 0v88h71v255h-199v-255h87v-88h-271v88h71v255h-83v89h83v93q0 94 54 139.5t145 45.5q63 0 161 -28q43 36 117 36q34 0 84 -9v-83q-28 5 -55 5q-38 0 -59.5 -15.5t-21.5 -58.5v-125h187v110h113v-110h118v-89h-118v-218q0 -29 14.5 -39t43.5 -10q36 0 67 11v-83 q-56 -15 -103 -15q-76 0 -105.5 33t-29.5 97v224h-187v-255h87v-88h-271zM222 526v-94h199v127q0 25 5 50q-58 14 -96 14q-54 0 -81 -23t-27 -74z" />
<glyph unicode="fb" horiz-adv-x="872" d="M579 -11q-80 0 -158 16v616q-47 10 -89 10q-52 0 -81 -19t-29 -68v-112h107v-91h-107v-253h87v-88h-271v88h71v253h-83v91h83v111q0 175 198 175q45 0 109 -11h118v-294q53 30 116 30q91 0 141.5 -58t50.5 -160q0 -118 -68.5 -177t-194.5 -59zM574 74q153 0 153 150 q0 59 -25 97t-80 38q-43 0 -88 -24v-259q24 -2 40 -2z" />
<glyph unicode="fh" horiz-adv-x="903" d="M355 0v88h66v533q-47 10 -89 10q-52 0 -81 -19t-29 -68v-112h107v-89h-107v-255h87v-88h-271v88h71v255h-83v89h83v111q0 175 198 175q45 0 109 -11h118v-326q77 62 157 62q61 0 95 -34.5t34 -99.5v-221h66v-88h-245v88h66v210q0 28 -12 42t-41 14q-55 0 -120 -50v-216 h66v-88h-245z" />
<glyph unicode="fj" horiz-adv-x="595" d="M38 0v88h71v255h-83v89h83v111q0 175 198 175q64 0 166 -23l-12 -82q-81 18 -129 18q-52 0 -81 -19t-29 -68v-112h312v-470q0 -44 -12.5 -75.5t-41.5 -53t-50 -31.5t-64 -26l-33 73q28 16 43.5 27.5t30 34.5t14.5 52v381h-199v-256h87v-88h-271z" />
<glyph unicode="fk" horiz-adv-x="873" d="M355 0v88h66v533q-47 10 -89 10q-52 0 -81 -19t-29 -68v-112h107v-89h-107v-255h87v-88h-271v88h71v255h-83v89h83v111q0 175 198 175q45 0 109 -11h118v-619h60v-88h-239zM796 -10q-47 0 -82 23t-70 71l-92 127v3l126 134h-61v84h233v-85h-56l-121 -130l55 -73 q27 -35 47 -51.5t48 -16.5q13 0 26 3v-80q-27 -9 -53 -9z" />
<glyph unicode="ft" horiz-adv-x="665" d="M544 -11q-76 0 -105.5 33t-29.5 97v224h-187v-255h87v-88h-271v88h71v255h-83v89h83v127q0 84 45.5 121.5t119.5 37.5q34 0 84 -9v-83q-28 5 -55 5q-38 0 -59.5 -15.5t-21.5 -58.5v-125h187v110h113v-110h118v-89h-118v-218q0 -29 14.5 -39t43.5 -10q36 0 67 11v-83 q-56 -15 -103 -15z" />
<glyph unicode="tt" horiz-adv-x="668" d="M547 -11q-76 0 -105.5 33t-29.5 97v224h-216v-218q0 -29 14.5 -39t43.5 -10q36 0 67 11v-83q-56 -15 -103 -15q-76 0 -105.5 33t-29.5 97v224h-75v89h75v110h113v-110h216v110h113v-110h118v-89h-118v-218q0 -29 14.5 -39t43.5 -10q36 0 67 11v-83q-56 -15 -103 -15z" />
<glyph unicode=" "  horiz-adv-x="211" />
<glyph unicode="&#x09;" horiz-adv-x="211" />
<glyph unicode="&#xa0;" horiz-adv-x="211" />
<glyph unicode="!" horiz-adv-x="262" d="M87 176l-18 433h124l-18 -433h-88zM131 -10q-29 0 -49 20t-20 49t20 49t49 20t49 -20t20 -49t-20 -49t-49 -20z" />
<glyph unicode="&#x22;" horiz-adv-x="384" d="M56 383v239h101v-239h-101zM227 383v239h101v-239h-101z" />
<glyph unicode="#" horiz-adv-x="573" d="M108 12l15 110h-83v72h93l18 127h-86v72h97l15 111h86l-16 -111h112l16 111h87l-16 -111h88v-72h-99l-18 -127h92v-72h-101l-16 -110h-87l16 110h-112l-15 -110h-86zM220 194h112l17 127h-111z" />
<glyph unicode="$" horiz-adv-x="485" d="M232 -102v93q-76 3 -138 34.5t-62 80.5q0 25 16.5 42.5t44.5 17.5q24 0 40.5 -14t16.5 -37q0 -13 -6 -26q32 -18 88 -20v140q-42 11 -66.5 19.5t-55.5 26t-46 44.5t-15 65q0 69 50.5 107.5t132.5 40.5v64h28v-64q71 -3 123 -33t52 -72q0 -23 -15.5 -41.5t-43.5 -18.5 q-25 0 -42 14.5t-17 38.5q0 12 5 23q-27 12 -62 12v-131q43 -12 68 -21.5t57.5 -28t48.5 -47t16 -66.5q0 -71 -54 -109.5t-136 -40.5v-93h-28zM351 130q0 29 -23 44.5t-68 28.5v-134q91 8 91 61zM146 376q0 -26 20 -39t66 -26v124q-86 -5 -86 -59z" />
<glyph unicode="%" horiz-adv-x="659" d="M154 -4l-51 44l402 451l51 -44zM495 0q-60 0 -92 34.5t-32 93.5t32 93.5t92 34.5t92 -34.5t32 -93.5t-32 -93.5t-92 -34.5zM495 58q46 0 46 70t-46 70t-46 -70t46 -70zM164 232q-60 0 -92 34.5t-32 93.5t32 93.5t92 34.5t92 -34.5t32 -93.5t-32 -93.5t-92 -34.5zM164 290 q46 0 46 70t-46 70t-46 -70t46 -70z" />
<glyph unicode="&#x26;" horiz-adv-x="651" d="M237 -13q-92 0 -146.5 43.5t-54.5 123.5q0 56 29 96t93 81l-7 9q-33 43 -47 71.5t-14 61.5q0 64 47.5 105t120.5 41q72 0 113.5 -40t41.5 -100q0 -47 -26.5 -82t-80.5 -73l120 -132q28 52 34 103h-49v83h203v-84h-55q-16 -99 -67 -174q41 -39 83 -39q19 0 35 6v-88 q-33 -10 -63 -10q-68 0 -126 56q-79 -58 -184 -58zM260 540q-25 0 -44 -15.5t-19 -43.5q0 -33 41 -81l11 -13q68 47 68 94q0 25 -15 42t-42 17zM250 79q60 0 107 33l-140 153q-35 -23 -53 -44.5t-18 -54.5q0 -42 27.5 -64.5t76.5 -22.5z" />
<glyph unicode="'" horiz-adv-x="213" d="M56 383v239h101v-239h-101z" />
<glyph unicode="(" horiz-adv-x="290" d="M180 -198q-72 104 -111.5 224t-39.5 229t40 229t111 223h113q-76 -101 -116 -221.5t-40 -230.5t40 -231t116 -222h-113z" />
<glyph unicode=")" horiz-adv-x="290" d="M-3 -198q76 101 116 222t40 231t-40 230.5t-116 221.5h113q71 -103 111 -223t40 -229t-39.5 -229t-111.5 -224h-113z" />
<glyph unicode="*" horiz-adv-x="398" d="M199 308q-15 0 -26.5 10t-11.5 30q0 13 16 56t20 59h4q4 -16 20 -59t16 -56q0 -20 -11.5 -30t-26.5 -10zM199 645q15 0 26.5 -10t11.5 -30q0 -13 -16 -56t-20 -59h-4q-4 16 -20 59t-16 56q0 20 11.5 30t26.5 10zM53 392q-18 34 16 53q12 7 57 14.5t60 11.5l2 -3 q-12 -12 -40.5 -47t-40.5 -42q-20 -9 -33 -4t-21 17zM345 561q18 -34 -16 -53q-12 -7 -57 -14.5t-60 -11.5l-2 3q12 12 40.5 47t40.5 42q20 9 33 4t21 -17zM345 392q-8 -12 -21 -17t-33 4q-12 7 -40.5 42t-40.5 47l2 3q15 -4 60 -11.5t57 -14.5q34 -19 16 -53zM53 561 q8 12 21 17t33 -4q12 -7 40.5 -42t40.5 -47l-2 -3q-15 4 -60 11.5t-57 14.5q-34 19 -16 53z" />
<glyph unicode="+" horiz-adv-x="486" d="M198 27v170h-168v86h168v170h90v-170h168v-86h-168v-170h-90z" />
<glyph unicode="," horiz-adv-x="222" d="M111 128q30 0 49 -21.5t19 -53.5q0 -42 -33.5 -95.5t-75.5 -86.5l-45 38q44 47 59 91q-43 14 -43 59q0 29 20 49t50 20z" />
<glyph unicode="-" horiz-adv-x="394" d="M53 186v95h288v-95h-288z" />
<glyph unicode="." horiz-adv-x="220" d="M110 -10q-28 0 -48.5 20t-20.5 49t20.5 49t48.5 20t48.5 -20t20.5 -49t-20.5 -49t-48.5 -20z" />
<glyph unicode="/" horiz-adv-x="537" d="M19 -198l396 905h105l-395 -905h-106z" />
<glyph unicode="0" horiz-adv-x="528" d="M264 -11q-115 0 -171.5 70t-56.5 179t56.5 179t171.5 70t171.5 -70t56.5 -179t-56.5 -179t-171.5 -70zM264 75q111 0 111 163t-111 163t-111 -163t111 -163z" />
<glyph unicode="1" horiz-adv-x="379" d="M55 0v85h102v297q-36 -36 -74 -36q-31 0 -44.5 19t-8.5 51l140 60h99v-391h80v-85h-294z" />
<glyph unicode="2" horiz-adv-x="468" d="M61 0l-18 78q16 12 56 38.5t70 48t63 50.5t51 59.5t18 60.5q0 26 -16.5 46.5t-61.5 20.5q-36 0 -70 -15q4 -9 4 -21q0 -26 -16.5 -43.5t-44.5 -17.5t-44.5 17.5t-16.5 43.5q0 51 59.5 86t142.5 35q78 0 128 -35t50 -106q0 -74 -54.5 -132.5t-154.5 -117.5h225v-96h-370z " />
<glyph unicode="3" horiz-adv-x="499" d="M242 -140q-83 0 -147 32t-64 87q0 30 19.5 49t48.5 19q30 0 47 -19t17 -46q0 -10 -4 -23q35 -14 77 -14q57 0 87 26t30 72q0 100 -147 100h-33v82h29q131 0 131 94q0 83 -98 83q-40 0 -72 -15q4 -9 4 -22q0 -28 -17.5 -46.5t-46.5 -18.5q-30 0 -48 19t-18 47q1 53 62 87 t145 34q90 0 146.5 -41t56.5 -119q0 -104 -101 -137q123 -33 123 -150q0 -85 -64.5 -132.5t-162.5 -47.5z" />
<glyph unicode="4" horiz-adv-x="498" d="M196 -129v79h92v74h-272v75q70 83 123 190.5t63 194.5q46 10 72 -6.5t26 -56.5q0 -60 -55 -155.5t-111 -159.5h159v68q35 56 57 120h48v-188h81v-82h-78v-74h77v-79h-282z" />
<glyph unicode="5" horiz-adv-x="505" d="M253 -140q-86 0 -153.5 39t-67.5 94q0 28 18 46.5t47 18.5t47 -18.5t18 -45.5q0 -12 -5 -25q33 -22 83 -22q56 0 89 29.5t33 84.5q0 54 -32 84.5t-83 30.5q-76 0 -122 -58l-76 35q42 160 43 322h352q6 -21 6 -37q0 -71 -102 -71q-29 0 -90 7.5t-79 8.5q-5 -85 -25 -155 q55 34 122 34q88 0 144.5 -55t56.5 -144q0 -94 -63 -148.5t-161 -54.5z" />
<glyph unicode="6" horiz-adv-x="531" d="M273 -11q-111 0 -171.5 74t-60.5 216q0 95 26 169t83.5 121t140.5 47q77 0 124.5 -35t47.5 -78q0 -24 -15.5 -43.5t-44.5 -19.5q-28 0 -45.5 17t-17.5 42q0 9 3 20q-19 12 -56 12q-125 0 -135 -211q52 67 151 67q86 0 138 -53.5t52 -140.5q0 -94 -60.5 -149t-159.5 -55z M270 74q50 0 78 31.5t28 83.5t-27.5 85.5t-78.5 33.5q-50 0 -80.5 -32.5t-30.5 -85.5q0 -51 29.5 -83.5t81.5 -32.5z" />
<glyph unicode="7" horiz-adv-x="481" d="M242 -140q-34 0 -52.5 18t-18.5 64q0 78 51.5 201.5t117.5 227.5q-14 -3 -25 -3q-21 0 -63.5 11t-66.5 11q-77 0 -80 -87h-87v173h80v-60q20 64 86 64q33 0 80 -21.5t70 -21.5q8 0 12 1q5 21 22 34t41 13q28 0 45 -17.5t17 -44.5q0 -22 -19 -53q-79 -131 -121 -237.5 t-42 -219.5q0 -29 2 -45q-24 -8 -49 -8z" />
<glyph unicode="8" horiz-adv-x="538" d="M269 -11q-110 0 -170.5 46.5t-60.5 126.5q0 61 34.5 101t93.5 56q-46 15 -75 50t-29 87q0 70 54 115t153 45t153 -45t54 -115q0 -52 -29 -87t-75 -50q59 -16 93.5 -56t34.5 -101q0 -80 -60.5 -126.5t-170.5 -46.5zM269 72q55 0 85.5 27.5t30.5 74.5q0 48 -31 75t-85 27 t-85 -27t-31 -75q0 -47 30.5 -74.5t85.5 -27.5zM269 535q-45 0 -71 -22t-26 -62t26.5 -65t70.5 -25t70.5 25t26.5 65t-26 62t-71 22z" />
<glyph unicode="9" horiz-adv-x="518" d="M257 401q-50 0 -79.5 -34t-29.5 -83q0 -48 28 -81.5t78 -33.5t80.5 33.5t30.5 83.5q0 47 -28.5 81t-79.5 34zM245 -140q-73 0 -135 32.5t-62 83.5q0 27 18.5 46t47.5 19q28 0 46 -18.5t18 -44.5q0 -8 -4 -22q24 -12 64 -12q68 0 100 53.5t35 161.5q-57 -70 -154 -70 q-85 0 -136.5 54t-51.5 138q0 94 62.5 150t162.5 56q110 0 169.5 -74t59.5 -222q0 -151 -61.5 -241t-178.5 -90z" />
<glyph unicode=":" horiz-adv-x="244" d="M122 -10q-28 0 -48.5 20t-20.5 49t20.5 49t48.5 20t48.5 -20t20.5 -49t-20.5 -49t-48.5 -20zM122 282q-28 0 -48.5 20t-20.5 49t20.5 49t48.5 20t48.5 -20t20.5 -49t-20.5 -49t-48.5 -20z" />
<glyph unicode=";" horiz-adv-x="247" d="M124 282q-28 0 -48.5 20t-20.5 49t20.5 49t48.5 20t48.5 -20t20.5 -49t-20.5 -49t-48.5 -20zM125 128q30 0 49 -21.5t19 -53.5q0 -42 -33.5 -95.5t-75.5 -86.5l-45 38q44 47 59 91q-43 14 -43 59q0 29 20 49t50 20z" />
<glyph unicode="&#x3c;" horiz-adv-x="460" d="M409 23l-381 193v48l381 193v-97l-253 -120l253 -120v-97z" />
<glyph unicode="=" horiz-adv-x="536" d="M55 84v90h426v-90h-426zM55 306v90h426v-90h-426z" />
<glyph unicode="&#x3e;" horiz-adv-x="460" d="M51 23v97l253 120l-253 120v97l381 -193v-48z" />
<glyph unicode="?" horiz-adv-x="385" d="M165 623q84 0 135.5 -36.5t51.5 -108.5q0 -37 -14.5 -68.5t-35.5 -53.5t-42 -42t-35.5 -42.5t-14.5 -47.5q0 -10 10 -48h-105q-9 23 -9 52q0 34 20 66.5t44 53.5t44 53.5t20 66.5q0 70 -89 70q-52 0 -116 -16v82q70 19 136 19zM169 -10q-29 0 -49 20t-20 49t20 49t49 20 t49 -20t20 -49t-20 -49t-49 -20z" />
<glyph unicode="@" horiz-adv-x="758" d="M331 47q-65 0 -103 44t-38 112q0 84 53 144.5t130 60.5q82 0 114 -66h3q8 28 18 50h62q-36 -139 -36 -213q0 -80 44 -80q34 0 59.5 41t25.5 110q0 122 -78 197.5t-196 75.5q-126 0 -214 -84.5t-88 -209.5q0 -122 84.5 -204.5t207.5 -82.5q89 0 168 50l28 -43 q-99 -59 -198 -59q-148 0 -245.5 100t-97.5 241q0 147 105 245.5t250 98.5q139 0 232.5 -92t93.5 -235q0 -96 -43 -148.5t-110 -52.5q-46 0 -68.5 22.5t-27.5 50.5h-4q-48 -73 -131 -73zM348 113q47 0 79.5 41.5t32.5 98.5q0 43 -19.5 66.5t-54.5 23.5q-47 0 -79 -40.5 t-32 -98.5q0 -43 19.5 -67t53.5 -24z" />
<glyph unicode="A" horiz-adv-x="685" d="M1 0v92h72l172 425h-83v92h249l209 -517h73v-92h-273v92h80l-32 83h-250l-32 -83h80v-92h-265zM254 267h179l-90 230z" />
<glyph unicode="B" horiz-adv-x="624" d="M40 0v92h82v425h-82v92h303q103 0 165 -42t62 -117q0 -103 -115 -138q133 -33 133 -148q0 -76 -60.5 -120t-171.5 -44h-316zM236 91h117q56 0 87.5 22t31.5 64q0 41 -31.5 64.5t-90.5 23.5h-114v-174zM236 353h99q57 0 88.5 22t31.5 62q0 39 -30 60t-82 21h-107v-165z " />
<glyph unicode="C" horiz-adv-x="623" d="M362 -12q-151 0 -239.5 83.5t-88.5 229.5q0 149 90 234.5t235 85.5q124 0 227 -49v-175h-111v112q-54 15 -110 15q-96 0 -153.5 -57t-57.5 -160q0 -105 60 -162t158 -57q105 0 213 64v-111q-101 -53 -223 -53z" />
<glyph unicode="D" horiz-adv-x="692" d="M40 0v92h82v425h-82v92h289q161 0 244 -82.5t83 -222.5t-83 -222t-244 -82h-289zM238 92h91q105 0 156.5 55t51.5 157q0 213 -208 213h-91v-425z" />
<glyph unicode="E" horiz-adv-x="588" d="M40 0v92h82v425h-82v92h502v-179h-107v87h-197v-165h229v-92h-229v-168h200v91h108v-183h-506z" />
<glyph unicode="F" horiz-adv-x="552" d="M40 0v92h82v425h-82v92h494v-187h-107v94h-189v-179h216v-94h-216v-151h87v-92h-285z" />
<glyph unicode="G" horiz-adv-x="680" d="M366 -12q-152 0 -241.5 82t-89.5 231q0 147 87.5 233.5t244.5 86.5q136 0 240 -54v-157h-109v94q-69 21 -128 21q-104 0 -161 -59t-57 -163q0 -107 59.5 -162t160.5 -55q58 0 126 22v129h-127v90h285v-90h-50v-190q-104 -59 -240 -59z" />
<glyph unicode="H" horiz-adv-x="765" d="M40 0v92h82v425h-82v92h281v-92h-83v-165h289v165h-83v92h281v-92h-82v-425h82v-92h-281v92h83v164h-289v-164h83v-92h-281z" />
<glyph unicode="I" horiz-adv-x="360" d="M40 0v92h82v425h-82v92h280v-92h-82v-425h82v-92h-280z" />
<glyph unicode="J" horiz-adv-x="330" d="M49 -180l-35 80q20 11 28.5 16t27.5 20t28 34.5t9 43.5v503h-72v92h260v-92h-72v-503q0 -46 -11.5 -78.5t-41 -54.5t-48.5 -31.5t-63 -25.5q-7 -3 -10 -4z" />
<glyph unicode="K" horiz-adv-x="690" d="M516 0l-249 299v7l199 213h-66v90h267v-92h-71l-190 -207l184 -218h87v-92h-161zM40 0v92h82v425h-82v92h277v-92h-79v-425h92v-92h-290z" />
<glyph unicode="L" horiz-adv-x="557" d="M40 0v92h82v425h-82v92h295v-92h-97v-425h197v98h107v-190h-502z" />
<glyph unicode="M" horiz-adv-x="912" d="M38 0v92h75l15 425h-76v92h255l149 -405l149 405h255v-92h-76l15 -425h75v-92h-256v92h75l-14 408l-175 -447h-96l-175 447l-14 -408h75v-92h-256z" />
<glyph unicode="N" horiz-adv-x="754" d="M40 0v92h82v425h-82v92h201l292 -421v329h-82v92h274v-92h-82v-517h-103l-308 440v-348h82v-92h-274z" />
<glyph unicode="O" horiz-adv-x="700" d="M350 -12q-139 0 -228 88t-89 228t89 228.5t228 88.5t228 -88.5t89 -228.5t-89 -228t-228 -88zM350 85q87 0 142.5 59t55.5 160q0 100 -56 160t-142 60q-87 0 -142.5 -60t-55.5 -160q0 -101 55.5 -160t142.5 -59z" />
<glyph unicode="P" horiz-adv-x="592" d="M40 0v92h82v425h-82v92h284q126 0 187.5 -58t61.5 -140t-61.5 -140t-187.5 -58h-86v-121h102v-92h-300zM238 517v-212h90q67 0 97.5 30.5t30.5 75.5t-30.5 75.5t-97.5 30.5h-90z" />
<glyph unicode="Q" horiz-adv-x="702" d="M514 -145l-180 133q-133 6 -216.5 93t-83.5 223q0 140 89 228.5t228 88.5t228 -88.5t89 -228.5q0 -107 -53.5 -185t-144.5 -111l107 -65zM351 85q87 0 142.5 59t55.5 160q0 100 -56 160t-142 60q-87 0 -142.5 -60t-55.5 -160q0 -101 55.5 -160t142.5 -59z" />
<glyph unicode="R" horiz-adv-x="650" d="M40 0v92h82v425h-82v92h294q125 0 186.5 -56.5t61.5 -135.5q0 -56 -31.5 -99.5t-91.5 -63.5l92 -162h75v-92h-154l-125 223h-109v-131h82v-92h-280zM238 313h98q68 0 98.5 29t30.5 73t-31 73t-98 29h-98v-204z" />
<glyph unicode="S" horiz-adv-x="528" d="M258 -12q-88 0 -216 33v152h104v-80q57 -13 105 -13q126 0 126 76q0 38 -33.5 61t-81.5 36.5t-96.5 31.5t-82 57.5t-33.5 101.5q0 90 64.5 133.5t163.5 43.5q97 0 194 -33v-149h-106v82q-53 8 -85 8q-51 0 -85 -17t-34 -56q0 -26 18 -44.5t47 -30t63.5 -22t69.5 -24.5 t64 -34t47 -55t18 -82q0 -93 -64.5 -134.5t-166.5 -41.5z" />
<glyph unicode="T" horiz-adv-x="590" d="M147 0v92h90v425h-114v-93h-105v185h554v-185h-105v93h-114v-425h90v-92h-296z" />
<glyph unicode="U" horiz-adv-x="698" d="M350 -12q-106 0 -177 54t-71 165v310h-82v92h280v-92h-82v-299q0 -66 37.5 -96t98.5 -30t98 30.5t37 96.5v298h-85v92h275v-92h-82v-300q0 -107 -66 -168t-181 -61z" />
<glyph unicode="V" horiz-adv-x="656" d="M269 0l-201 517h-72v92h277v-92h-82l139 -380l140 380h-82v92h272v-92h-72l-201 -517h-118z" />
<glyph unicode="W" horiz-adv-x="938" d="M236 0l-169 517h-68v92h268v-92h-86l117 -383l122 355l-10 28h-77v92h273v-92h-87l122 -379l115 379h-85v92h268v-92h-69l-168 -517h-113l-117 337l-123 -337h-113z" />
<glyph unicode="X" horiz-adv-x="660" d="M14 0v90h68l185 219l-172 210h-67v90h277v-89h-78l106 -133l109 133h-76v89h268v-91h-67l-173 -205l185 -224h66v-89h-279v89h78l-116 145l-119 -145h76v-89h-271z" />
<glyph unicode="Y" horiz-adv-x="638" d="M176 0v92h86v118l-197 307h-70v92h284v-91h-87l128 -204l129 204h-87v91h277v-92h-67l-194 -301v-124h86v-92h-288z" />
<glyph unicode="Z" horiz-adv-x="583" d="M39 0v100l349 412h-233v-98h-107v195h482v-102l-348 -410h256v103h107v-200h-506z" />
<glyph unicode="[" horiz-adv-x="309" d="M74 -198v905h217v-77h-113v-751h113v-77h-217z" />
<glyph unicode="\" horiz-adv-x="537" d="M412 -198l-395 905h105l396 -905h-106z" />
<glyph unicode="]" horiz-adv-x="309" d="M18 -198v77h113v751h-113v77h217v-905h-217z" />
<glyph unicode="^" horiz-adv-x="448" d="M31 337l162 296h62l162 -296h-103l-90 189l-90 -189h-103z" />
<glyph unicode="_" horiz-adv-x="539" d="M52 -99v70h435v-70h-435z" />
<glyph unicode="`" horiz-adv-x="346" d="M250 503l-196 118l74 94l159 -166z" />
<glyph unicode="a" horiz-adv-x="480" d="M163 -11q-63 0 -102 35t-39 97q0 134 201 134h71v27q0 40 -20 57.5t-73 17.5q-70 0 -143 -22v84q78 24 167 24q91 0 136.5 -37t45.5 -122v-196h64v-88h-171v49q-58 -60 -137 -60zM197 69q52 0 97 47v69h-66q-93 0 -93 -59q0 -57 62 -57z" />
<glyph unicode="b" horiz-adv-x="512" d="M219 -11q-80 0 -158 16v614h-66v88h179v-294q53 30 116 30q91 0 141.5 -58t50.5 -160q0 -118 -68.5 -177t-194.5 -59zM214 74q153 0 153 150q0 59 -25 97t-80 38q-43 0 -88 -24v-259q24 -2 40 -2z" />
<glyph unicode="c" horiz-adv-x="445" d="M256 -11q-107 0 -167 58.5t-60 166.5q0 111 62 170t167 59q76 0 156 -29v-146h-94v84q-24 6 -50 6q-61 0 -92.5 -36.5t-31.5 -103.5q0 -66 31.5 -104t96.5 -38q62 0 136 38v-89q-64 -36 -154 -36z" />
<glyph unicode="d" horiz-adv-x="542" d="M222 -11q-87 0 -140 62.5t-53 164.5q0 104 55.5 165.5t147.5 61.5q65 0 114 -34v209h-82v89h195v-619h66v-88h-169v48q-55 -59 -134 -59zM254 75q51 0 92 36v219q-37 27 -84 27q-58 0 -87.5 -37t-29.5 -102q0 -62 27 -102.5t82 -40.5z" />
<glyph unicode="e" horiz-adv-x="464" d="M256 -11q-110 0 -168.5 62.5t-58.5 164.5q0 101 56 164t156 63q97 0 147.5 -60t50.5 -155q0 -27 -4 -48h-292q17 -105 130 -105q63 0 139 40v-87q-70 -39 -156 -39zM243 361q-86 0 -101 -102h191q-8 102 -90 102z" />
<glyph unicode="f" horiz-adv-x="354" d="M38 0v88h71v255h-83v89h83v127q0 84 45.5 121.5t119.5 37.5q34 0 84 -9v-83q-28 5 -55 5q-38 0 -59.5 -15.5t-21.5 -58.5v-125h107v-89h-107v-255h87v-88h-271z" />
<glyph unicode="g" horiz-adv-x="483" d="M222 -210q-109 0 -158.5 34t-49.5 88q0 61 61 98q-28 20 -28 53q0 46 53 84q-61 46 -61 130q0 72 49 119t138 47q41 0 76 -11h172v-88l-76 4q15 -37 15 -71q0 -72 -49 -119t-138 -47q-43 0 -73 10q-8 -8 -8 -17q0 -17 31.5 -24t76.5 -11t90 -13t76.5 -38.5t31.5 -79.5 q0 -63 -52 -105.5t-177 -42.5zM226 364q-34 0 -58 -20.5t-24 -66.5q0 -47 24 -67.5t58 -20.5t58 20.5t24 67.5q0 46 -24 66.5t-58 20.5zM226 -127q31 0 53.5 5t33.5 11.5t17.5 16t8 15t1.5 10.5q0 15 -12 24.5t-34.5 14t-45.5 7t-55 5t-53 6.5q-28 -25 -28 -55 q0 -60 114 -60z" />
<glyph unicode="h" d="M21 0v88h66v531h-66v88h179v-326q77 62 157 62q61 0 95 -34.5t34 -99.5v-221h66v-88h-245v88h66v210q0 28 -12 42t-41 14q-55 0 -120 -50v-216h66v-88h-245z" />
<glyph unicode="i" horiz-adv-x="299" d="M33 0v88h66v256h-66v88h179v-344h66v-88h-245zM72 572q0 32 23 55t55 23t55 -23t23 -55t-23 -55t-55 -23t-55 23t-23 55z" />
<glyph unicode="j" horiz-adv-x="262" d="M33 -224l-33 73q28 16 43.5 27.5t30 34.5t14.5 52v381h-70v88h183v-470q0 -44 -12.5 -75.5t-41.5 -53t-50 -31.5t-64 -26zM61 572q0 32 23 55t55 23t55 -23t23 -55t-23 -55t-55 -23t-55 23t-23 55z" />
<glyph unicode="k" horiz-adv-x="539" d="M21 0v88h66v531h-66v88h179v-619h60v-88h-239zM462 -10q-47 0 -82 23t-70 71l-92 127v3l126 134h-61v84h233v-85h-56l-121 -130l55 -73q27 -35 47 -51.5t48 -16.5q13 0 26 3v-80q-27 -9 -53 -9z" />
<glyph unicode="l" horiz-adv-x="287" d="M21 0v88h66v530h-66v89h179v-619h66v-88h-245z" />
<glyph unicode="m" horiz-adv-x="804" d="M35 0v87h58v258h-58v87h162v-50q68 61 143 61q83 0 110 -65q74 65 148 65q58 0 90 -33.5t32 -98.5v-224h59v-87h-229v87h59v217q0 28 -11.5 40.5t-38.5 12.5q-47 0 -97 -40v-230h59v-87h-229v87h59v217q0 28 -11.5 40.5t-38.5 12.5q-45 0 -97 -42v-228h59v-87h-228z" />
<glyph unicode="n" horiz-adv-x="581" d="M33 0v88h66v256h-66v88h176v-54q80 65 160 65q61 0 95 -34.5t34 -99.5v-221h66v-88h-245v88h66v210q0 28 -12 42t-41 14q-55 0 -120 -50v-216h66v-88h-245z" />
<glyph unicode="o" horiz-adv-x="514" d="M257 -11q-107 0 -167.5 62t-60.5 165t60.5 165t167.5 62t167.5 -62t60.5 -165t-60.5 -165t-167.5 -62zM257 74q55 0 83 39.5t28 102.5t-28 102.5t-83 39.5t-83 -39.5t-28 -102.5t28 -102.5t83 -39.5z" />
<glyph unicode="p" horiz-adv-x="545" d="M20 -199v89h66v454h-66v88h171v-47q54 58 133 58q88 0 140 -61t52 -163q0 -105 -55 -167.5t-148 -62.5q-65 0 -114 34v-133h79v-89h-258zM291 357q-51 0 -92 -37v-218q33 -27 84 -27q58 0 87.5 37t29.5 103q0 62 -27 102t-82 40z" />
<glyph unicode="q" horiz-adv-x="518" d="M266 -199v89h78v146q-50 -47 -123 -47q-87 0 -139.5 62.5t-52.5 163.5q0 105 56 166.5t146 61.5q76 0 130 -48l8 37h88v-542h66v-89h-257zM260 357q-56 0 -85.5 -36t-29.5 -101q0 -62 27 -103.5t83 -41.5q50 0 89 34v215q-36 33 -84 33z" />
<glyph unicode="r" horiz-adv-x="374" d="M33 0v88h66v256h-66v88h175v-79q48 90 143 90h9v-114h-18q-85 0 -130 -28v-213h75v-88h-254z" />
<glyph unicode="s" horiz-adv-x="415" d="M206 -11q-92 0 -171 24v122h90v-54q38 -10 80 -10q36 0 53.5 12t17.5 30q0 21 -24.5 34t-59 22t-69.5 22.5t-59.5 43t-24.5 74.5q0 61 44 97.5t130 36.5q76 0 153 -24v-122h-91v59q-29 6 -61 6q-67 0 -67 -41q0 -22 24.5 -36t59.5 -23t70 -22t59.5 -43t24.5 -76 q0 -132 -179 -132z" />
<glyph unicode="t" horiz-adv-x="339" d="M218 -11q-76 0 -105.5 33t-29.5 97v224h-75v89h75v110h113v-110h118v-89h-118v-218q0 -29 14.5 -39t43.5 -10q36 0 67 11v-83q-56 -15 -103 -15z" />
<glyph unicode="u" d="M212 -11q-60 0 -94.5 34.5t-34.5 99.5v221h-67v88h180v-298q0 -28 12 -42t41 -14q56 0 120 49v217h-75v88h188v-344h66v-88h-176v53q-79 -64 -160 -64z" />
<glyph unicode="v" horiz-adv-x="524" d="M207 0l-149 346h-54v86h228v-82h-62l96 -236l95 235h-61v83h219v-86h-53l-149 -346h-110z" />
<glyph unicode="w" horiz-adv-x="736" d="M176 0l-117 347h-52v85h221v-85h-65l64 -215l95 300h98l96 -301l63 216h-65v85h215v-85h-57l-108 -347h-98l-99 280l-92 -280h-99z" />
<glyph unicode="x" horiz-adv-x="534" d="M23 0v82h47l132 138l-125 130h-49v82h231v-80h-55l73 -77l69 77h-54v80h216v-82h-45l-129 -135l128 -133h48v-82h-226v80h54l-79 80l-72 -80h54v-80h-218z" />
<glyph unicode="y" horiz-adv-x="519" d="M170 -210q-67 0 -121 33l32 75q42 -22 73 -22q51 0 67 50l23 74h-83l-100 345h-51v87h225v-88h-58l80 -304l98 304h-59v88h218v-87h-49l-145 -433q-20 -61 -56 -91.5t-94 -30.5z" />
<glyph unicode="z" horiz-adv-x="447" d="M34 0v70l228 283h-130v-77h-93v156h364v-68l-232 -285h150v85h91v-164h-378z" />
<glyph unicode="{" horiz-adv-x="321" d="M227 -212q-68 0 -101 35t-33 85q0 25 14.5 95t14.5 102q0 47 -25.5 75t-89.5 32v82q64 4 89.5 32t25.5 75q0 32 -14.5 102t-14.5 95q0 50 33 85t101 35q34 0 72 -10v-67q-30 6 -50 6q-53 0 -53 -55q0 -24 15.5 -97t15.5 -111q0 -106 -99 -131q99 -25 99 -131 q0 -38 -15.5 -111t-15.5 -97q0 -55 53 -55q20 0 50 6v-67q-38 -10 -72 -10z" />
<glyph unicode="|" horiz-adv-x="252" d="M74 -198v905h104v-905h-104z" />
<glyph unicode="}" horiz-adv-x="321" d="M94 -212q-34 0 -72 10v67q30 -6 50 -6q53 0 53 55q0 24 -15.5 97t-15.5 111q0 106 99 131q-99 25 -99 131q0 38 15.5 111t15.5 97q0 55 -53 55q-20 0 -50 -6v67q38 10 72 10q68 0 101 -35t33 -85q0 -25 -14.5 -95t-14.5 -102q0 -47 25.5 -75t89.5 -32v-82 q-64 -4 -89.5 -32t-25.5 -75q0 -32 14.5 -102t14.5 -95q0 -50 -33 -85t-101 -35z" />
<glyph unicode="~" horiz-adv-x="593" d="M99 166l-55 26q29 70 65 110.5t94 40.5q46 0 111.5 -38.5t94.5 -38.5q53 0 90 79l54 -27q-12 -30 -23 -52t-29 -47t-42 -38.5t-53 -13.5q-40 0 -106.5 40t-101.5 40q-60 0 -99 -81z" />
<glyph unicode="&#xa1;" horiz-adv-x="246" d="M167 257l18 -433h-124l18 433h88zM123 443q29 0 49 -20.5t20 -48.5t-20 -48.5t-49 -20.5t-49 20.5t-20 48.5t20 48.5t49 20.5z" />
<glyph unicode="&#xa2;" horiz-adv-x="452" d="M235 47q-29 0 -49 4l-42 -119l-33 10l41 119q-55 21 -85 69.5t-30 117.5q0 94 53.5 148.5t145.5 54.5q26 0 49 -5l30 86l33 -12l-29 -83q85 -34 100 -136h-87q-9 45 -36 67l-88 -252q18 -4 32 -4q81 0 93 91h88q-20 -156 -186 -156zM237 385q-53 0 -79.5 -38t-26.5 -98 q0 -81 46 -116l86 249q-12 3 -26 3z" />
<glyph unicode="&#xa3;" horiz-adv-x="543" d="M350 -9q-36 0 -95 12t-92 12q-37 0 -85 -18l-24 52q87 33 87 101q0 22 -21 75h-83v41h68q-20 51 -20 88q0 67 53.5 112.5t149.5 45.5q57 0 98.5 -16.5t62.5 -43.5t30.5 -52.5t10.5 -50.5h-104q-1 36 -23 62.5t-75 26.5q-48 0 -71.5 -23.5t-23.5 -63.5q0 -32 19 -85h161 v-41h-146q18 -50 18 -69q0 -35 -28 -70q13 -1 50 -8t61 -7q74 0 115 65l69 -54q-31 -48 -69 -69.5t-93 -21.5z" />
<glyph unicode="&#xa4;" horiz-adv-x="582" d="M291 46q-70 0 -126 40l-65 -69l-54 54l69 65q-40 58 -40 126t40 126l-69 65l54 54l65 -69q56 40 126 40t126 -40l65 69l54 -54l-69 -65q40 -58 40 -126t-40 -126l69 -65l-54 -54l-65 69q-56 -40 -126 -40zM291 131q54 0 92 38t38 93t-38 93t-92 38t-92 -38t-38 -93 t38 -93t92 -38z" />
<glyph unicode="&#xa5;" horiz-adv-x="631" d="M188 0v73h73v52h-158v42h158v12l-40 58h-118v42h89l-100 145h-60v78h242v-79h-67l112 -165l111 165h-67v79h236v-78h-59l-101 -145h89v-42h-118l-40 -58v-12h158v-42h-158v-52h73v-73h-255z" />
<glyph unicode="&#xa6;" horiz-adv-x="254" d="M75 352v355h104v-355h-104zM75 -198v408h104v-408h-104z" />
<glyph unicode="&#xa7;" horiz-adv-x="444" d="M224 -88q-68 0 -122.5 28t-54.5 72q0 22 14 38.5t41 16.5q26 0 40 -15t14 -37q0 -11 -5 -24q24 -15 66 -15q31 0 51.5 12.5t20.5 34.5q0 23 -25.5 39.5t-61.5 29t-72 27.5t-61.5 43t-25.5 67q0 70 72 100q-49 35 -49 91q0 61 48 91t110 30q35 0 69.5 -8.5t63 -31 t28.5 -54.5q0 -23 -14 -39.5t-41 -16.5q-25 0 -39 14t-14 35q0 11 5 26q-22 10 -53 10t-49.5 -12.5t-18.5 -33.5q0 -23 25 -40t60.5 -29.5t71.5 -27t61 -42.5t25 -67q0 -68 -73 -100q52 -36 52 -92t-45 -88t-114 -32zM270 152q37 18 37 54q0 19 -13.5 34t-26.5 22t-44 19.5 t-43 17.5q-43 -16 -43 -53q0 -15 7 -26.5t23 -21.5t28 -16t37.5 -15.5t37.5 -14.5z" />
<glyph unicode="&#xa8;" horiz-adv-x="436" d="M118 501q-27 0 -46 19t-19 46t19 46t46 19t46 -19t19 -46t-19 -46t-46 -19zM312 501q-27 0 -46 19t-19 46t19 46t46 19t46 -19t19 -46t-19 -46t-46 -19z" />
<glyph unicode="&#xa9;" horiz-adv-x="706" d="M353 -53q-131 0 -224 93t-93 224t93 224t224 93t224 -93t93 -224t-93 -224t-224 -93zM353 -6q112 0 191.5 79t79.5 191t-79.5 191.5t-191.5 79.5t-191 -79.5t-79 -191.5t79 -191t191 -79zM361 84q-83 0 -133.5 47t-50.5 132q0 87 51.5 134.5t134.5 47.5q61 0 124 -25 v-108h-68v64q-26 7 -50 7q-52 0 -82 -29.5t-30 -85.5t29.5 -88t84.5 -32q50 0 114 32v-66q-55 -30 -124 -30z" />
<glyph unicode="&#xaa;" horiz-adv-x="351" d="M40 194v52h279v-52h-279zM121 295q-42 0 -68 23.5t-26 65.5q0 88 133 88h44v17q0 24 -13 34.5t-44 10.5q-43 0 -96 -19v63q52 18 113 18q59 0 91 -24t32 -82v-124h34v-64h-112v32q-35 -39 -88 -39zM147 352q32 0 57 29v41h-40q-54 0 -54 -35t37 -35z" />
<glyph unicode="&#xab;" horiz-adv-x="571" d="M421 67l-155 188v4l155 188h121l-162 -190l162 -190h-121zM182 67l-155 188v4l155 188h121l-162 -190l162 -190h-121z" />
<glyph unicode="&#xac;" horiz-adv-x="508" d="M378 136v133h-323v71h393v-204h-70z" />
<glyph unicode="&#xad;" horiz-adv-x="394" d="M53 186v95h288v-95h-288z" />
<glyph unicode="&#xae;" horiz-adv-x="423" d="M212 244q-73 0 -124 51.5t-51 123.5q0 73 51 124t124 51q72 0 123.5 -51t51.5 -124q0 -72 -51.5 -123.5t-123.5 -51.5zM212 276q59 0 101 42t42 101t-42 101.5t-101 42.5q-60 0 -102 -42.5t-42 -101.5t42 -101t102 -42zM130 339v27h24v106h-24v28h89q32 0 49.5 -14.5 t17.5 -36.5q0 -33 -32 -45l23 -38h25v-27h-50l-34 58h-27v-31h25v-27h-86zM191 424h28q29 0 29 25q0 23 -30 23h-27v-48z" />
<glyph unicode="&#xaf;" horiz-adv-x="419" d="M67 517v84h284v-84h-284z" />
<glyph unicode="&#xb0;" horiz-adv-x="368" d="M184 338q-63 0 -108 45t-45 108t45 108t108 45t108 -45t45 -108t-45 -108t-108 -45zM184 405q36 0 61 25t25 61q0 35 -25 60.5t-61 25.5t-61 -25.5t-25 -60.5q0 -36 25 -61t61 -25z" />
<glyph unicode="&#xb1;" horiz-adv-x="532" d="M221 146v131h-168v82h168v135h90v-135h168v-82h-168v-131h-90zM53 21v84h426v-84h-426z" />
<glyph unicode="&#xb2;" horiz-adv-x="399" d="M57 395l-15 64q13 9 50 34.5t58.5 42t48.5 41t40 49t13 48.5q0 55 -65 55q-29 0 -57 -11q5 -10 5 -23q0 -19 -13.5 -31t-34.5 -12q-24 0 -37 14.5t-13 36.5q0 42 46.5 68.5t113.5 26.5q66 0 106.5 -28.5t40.5 -87.5q0 -62 -45 -112t-126 -99h185v-76h-301z" />
<glyph unicode="&#xb3;" horiz-adv-x="371" d="M181 388q-22 0 -45.5 3.5t-49 11.5t-42 25.5t-16.5 41.5q0 22 14 36.5t36 14.5t35 -14t13 -34q0 -3 -0.5 -6.5t-0.5 -4.5q18 -6 50 -6q68 0 68 54q0 58 -88 58h-31v64h26q78 0 78 52q0 21 -14.5 33.5t-42.5 12.5q-22 0 -45 -7q1 -4 1 -10q0 -21 -12.5 -34.5t-34.5 -13.5 t-35.5 13.5t-13.5 34.5q0 39 43 62t103 23q64 0 105.5 -27.5t41.5 -76.5q0 -64 -67 -89q82 -28 82 -98q0 -54 -45 -86.5t-113 -32.5z" />
<glyph unicode="&#xb4;" horiz-adv-x="346" d="M88 503l-37 46l159 166l74 -94z" />
<glyph unicode="&#xb5;" horiz-adv-x="604" d="M99 -199v543h-67v88h180v-298q0 -28 12 -42t41 -14q56 0 120 49v217h-75v88h188v-344h66v-88h-176v53q-79 -64 -160 -64q-17 0 -32 3l16 -191h-113z" />
<glyph unicode="&#xb6;" horiz-adv-x="612" d="M173 -77v63h96v164h-39q-83 0 -142 55.5t-59 134.5q0 80 58.5 135.5t142.5 55.5h337v-64h-82v-481h82v-63h-394zM345 467v-481h65v481h-65z" />
<glyph unicode="&#xb7;" horiz-adv-x="234" d="M117 182q-29 0 -49 20t-20 49t20 49t49 20t49 -20t20 -49t-20 -49t-49 -20z" />
<glyph unicode="&#xb8;" horiz-adv-x="304" d="M111 -208q-42 0 -77 7l14 63q32 -6 57 -6q46 0 46 27q0 33 -69 33v21l57 112l56 -12l-33 -73q37 -2 61 -24t24 -58q0 -44 -38 -67t-98 -23z" />
<glyph unicode="&#xb9;" horiz-adv-x="334" d="M54 395v73h88v243q-31 -31 -64 -31q-26 0 -38 16.5t-7 43.5l120 51h84v-323h68v-73h-251z" />
<glyph unicode="&#xba;" horiz-adv-x="349" d="M31 194v52h287v-52h-287zM175 295q-73 0 -113.5 40.5t-40.5 109.5t40.5 110t112.5 41t113 -40.5t41 -109.5t-40.5 -110t-112.5 -41zM174 356q68 0 68 89q0 40 -16.5 65t-50.5 25q-68 0 -68 -89q0 -90 67 -90z" />
<glyph unicode="&#xbb;" horiz-adv-x="571" d="M29 67l162 190l-162 190h121l155 -188v-4l-155 -188h-121zM268 67l162 190l-162 190h121l155 -188v-4l-155 -188h-121z" />
<glyph unicode="&#xbc;" horiz-adv-x="779" d="M50 249v63h77v227q-28 -27 -56 -27q-22 0 -32.5 14.5t-6.5 37.5l104 45h73v-297h59v-63h-218zM266 -21l-62 33l337 618l61 -33zM561 0v54h63v36h-158v54q40 54 71.5 115.5t34.5 104.5q68 15 68 -38q0 -35 -30.5 -88t-61.5 -90h86v28q24 35 36 79h33v-107h46v-58h-43v-36 h43v-54h-188z" />
<glyph unicode="&#xbd;" horiz-adv-x="819" d="M50 249v63h77v227q-28 -27 -55 -27q-22 0 -33 14t-7 38l104 45h73v-297h59v-63h-218zM520 0l-13 58q11 9 44.5 32t52.5 38t43 37.5t35.5 44.5t11.5 44q0 51 -58 51q-25 0 -51 -11q5 -8 5 -22q0 -18 -11.5 -30t-31.5 -12q-21 0 -33 13t-12 33q0 39 42.5 65t102.5 26 q57 0 92 -26t35 -80q0 -58 -41 -103.5t-114 -90.5h170v-67h-269zM266 -21l-62 33l337 618l62 -33z" />
<glyph unicode="&#xbe;" horiz-adv-x="794" d="M176 242q-49 0 -95.5 19t-46.5 56q0 19 13 32t32 13q18 0 29.5 -12t11.5 -28q0 -8 -1 -12q19 -8 46 -8q64 0 64 52q0 53 -77 53h-33v56h29q68 0 68 48q0 45 -55 45q-23 0 -40 -7q1 -4 1 -12q0 -17 -11 -29t-30 -12q-20 0 -32 12.5t-12 31.5q0 36 39.5 56t92.5 20 q57 0 93.5 -25t36.5 -69q0 -59 -61 -82q74 -24 74 -90q0 -49 -39.5 -78.5t-96.5 -29.5zM283 -21l-62 33l337 618l61 -33zM577 0v54h63v36h-158v54q40 54 71.5 115.5t34.5 104.5q68 15 68 -38q0 -35 -30.5 -88t-61.5 -90h86v28q24 35 36 79h33v-107h46v-58h-43v-36h43v-54 h-188z" />
<glyph unicode="&#xbf;" horiz-adv-x="377" d="M214 -190q-84 0 -135.5 36.5t-51.5 108.5q0 37 14.5 68.5t35.5 53.5t42 42t35.5 42.5t14.5 47.5q0 11 -10 48h105q9 -23 9 -52q0 -34 -20 -66.5t-44 -53.5t-44 -53.5t-20 -66.5q0 -70 89 -70q52 0 116 16v-82q-70 -19 -136 -19zM210 443q28 0 48.5 -20.5t20.5 -48.5 t-20.5 -48.5t-48.5 -20.5t-48.5 20.5t-20.5 48.5t20.5 48.5t48.5 20.5z" />
<glyph unicode="&#xc0;" horiz-adv-x="685" d="M1 0v92h72l172 425h-83v92h249l209 -517h73v-92h-273v92h80l-32 83h-250l-32 -83h80v-92h-265zM254 267h179l-90 230zM383 660l-196 118l74 94l159 -166z" />
<glyph unicode="&#xc1;" horiz-adv-x="685" d="M1 0v92h72l172 425h-83v92h249l209 -517h73v-92h-273v92h80l-32 83h-250l-32 -83h80v-92h-265zM254 267h179l-90 230zM265 660l-37 46l159 166l74 -94z" />
<glyph unicode="&#xc2;" horiz-adv-x="685" d="M1 0v92h72l172 425h-83v92h249l209 -517h73v-92h-273v92h80l-32 83h-250l-32 -83h80v-92h-265zM254 267h179l-90 230zM179 660l-24 33l135 139h74l136 -139l-24 -33l-149 67z" />
<glyph unicode="&#xc3;" horiz-adv-x="685" d="M1 0v92h72l172 425h-83v92h249l209 -517h73v-92h-273v92h80l-32 83h-250l-32 -83h80v-92h-265zM254 267h179l-90 230zM188 664l-41 21q13 35 24 57t35 43.5t53 21.5q26 0 70 -23t67 -23q42 0 66 49l41 -22q-22 -53 -49 -87.5t-67 -34.5q-26 0 -71.5 23t-63.5 23 q-38 0 -64 -48z" />
<glyph unicode="&#xc4;" horiz-adv-x="685" d="M1 0v92h72l172 425h-83v92h249l209 -517h73v-92h-273v92h80l-32 83h-250l-32 -83h80v-92h-265zM254 267h179l-90 230zM234 664q-27 0 -46 19t-19 46t19 46t46 19t46 -19t19 -46t-19 -46t-46 -19zM428 664q-27 0 -46 19t-19 46t19 46t46 19t46 -19t19 -46t-19 -46t-46 -19 z" />
<glyph unicode="&#xc5;" horiz-adv-x="685" d="M1 0v92h72l172 425h-83v92h249l209 -517h73v-92h-273v92h80l-32 83h-250l-32 -83h80v-92h-265zM254 267h179l-90 230zM331 656q-59 0 -92 32t-33 80t33 80t92 32t92 -32t33 -80t-33 -80t-92 -32zM331 717q20 0 31 14.5t11 36.5q0 21 -11 35.5t-31 14.5t-31 -14.5 t-11 -35.5q0 -22 11 -36.5t31 -14.5z" />
<glyph unicode="&#xc6;" horiz-adv-x="932" d="M-3 0v94h68l281 424h-64v91h605v-172h-107v80h-183v-165h215v-92h-215v-168h186v84h108v-176h-487v92h80v92h-238l-60 -92h58v-92h-247zM463 517l-158 -242h179v242h-21z" />
<glyph unicode="&#xc7;" horiz-adv-x="623" d="M320 -208q-42 0 -77 7l14 63q32 -6 57 -6q46 0 46 27q0 33 -69 33v21l27 53q-132 12 -208 94t-76 217q0 149 90 234.5t235 85.5q124 0 227 -49v-175h-111v112q-54 15 -110 15q-96 0 -153.5 -57t-57.5 -160q0 -105 60 -162t158 -57q105 0 213 64v-111q-90 -48 -203 -52 l-11 -25q37 -2 61 -24t24 -58q0 -44 -38 -67t-98 -23z" />
<glyph unicode="&#xc8;" horiz-adv-x="588" d="M40 0v92h82v425h-82v92h502v-179h-107v87h-197v-165h229v-92h-229v-168h200v91h108v-183h-506zM362 660l-196 118l74 94l159 -166z" />
<glyph unicode="&#xc9;" horiz-adv-x="588" d="M40 0v92h82v425h-82v92h502v-179h-107v87h-197v-165h229v-92h-229v-168h200v91h108v-183h-506zM249 660l-37 46l159 166l74 -94z" />
<glyph unicode="&#xca;" horiz-adv-x="588" d="M40 0v92h82v425h-82v92h502v-179h-107v87h-197v-165h229v-92h-229v-168h200v91h108v-183h-506zM160 660l-24 33l135 139h74l136 -139l-24 -33l-149 67z" />
<glyph unicode="&#xcb;" horiz-adv-x="588" d="M40 0v92h82v425h-82v92h502v-179h-107v87h-197v-165h229v-92h-229v-168h200v91h108v-183h-506zM211 664q-27 0 -46 19t-19 46t19 46t46 19t46 -19t19 -46t-19 -46t-46 -19zM405 664q-27 0 -46 19t-19 46t19 46t46 19t46 -19t19 -46t-19 -46t-46 -19z" />
<glyph unicode="&#xcc;" horiz-adv-x="360" d="M40 0v92h82v425h-82v92h280v-92h-82v-425h82v-92h-280zM244 660l-196 118l74 94l159 -166z" />
<glyph unicode="&#xcd;" horiz-adv-x="360" d="M40 0v92h82v425h-82v92h280v-92h-82v-425h82v-92h-280zM120 660l-37 46l159 166l74 -94z" />
<glyph unicode="&#xce;" horiz-adv-x="360" d="M40 0v92h82v425h-82v92h280v-92h-82v-425h82v-92h-280zM32 660l-24 33l135 139h74l136 -139l-24 -33l-149 67z" />
<glyph unicode="&#xcf;" horiz-adv-x="360" d="M40 0v92h82v425h-82v92h280v-92h-82v-425h82v-92h-280zM83 664q-27 0 -46 19t-19 46t19 46t46 19t46 -19t19 -46t-19 -46t-46 -19zM277 664q-27 0 -46 19t-19 46t19 46t46 19t46 -19t19 -46t-19 -46t-46 -19z" />
<glyph unicode="&#xd0;" horiz-adv-x="692" d="M47 260v94h75v163h-82v92h289q161 0 244 -82.5t83 -222.5t-83 -222t-244 -82h-289v92h82v168h-75zM238 92h91q105 0 156.5 55t51.5 157q0 213 -208 213h-91v-163h163v-94h-163v-168z" />
<glyph unicode="&#xd1;" horiz-adv-x="754" d="M40 0v92h82v425h-82v92h201l292 -421v329h-82v92h274v-92h-82v-517h-103l-308 440v-348h82v-92h-274zM241 664l-41 21q13 35 24 57t35 43.5t53 21.5q26 0 70 -23t67 -23q41 0 66 49l41 -22q-22 -53 -49 -87.5t-67 -34.5q-26 0 -71.5 23t-63.5 23q-39 0 -64 -48z" />
<glyph unicode="&#xd2;" horiz-adv-x="700" d="M350 -12q-139 0 -228 88t-89 228t89 228.5t228 88.5t228 -88.5t89 -228.5t-89 -228t-228 -88zM350 85q87 0 142.5 59t55.5 160q0 100 -56 160t-142 60q-87 0 -142.5 -60t-55.5 -160q0 -101 55.5 -160t142.5 -59zM404 663l-196 118l74 94l159 -166z" />
<glyph unicode="&#xd3;" horiz-adv-x="700" d="M350 -12q-139 0 -228 88t-89 228t89 228.5t228 88.5t228 -88.5t89 -228.5t-89 -228t-228 -88zM350 85q87 0 142.5 59t55.5 160q0 100 -56 160t-142 60q-87 0 -142.5 -60t-55.5 -160q0 -101 55.5 -160t142.5 -59zM286 663l-37 46l159 166l74 -94z" />
<glyph unicode="&#xd4;" horiz-adv-x="700" d="M350 -12q-139 0 -228 88t-89 228t89 228.5t228 88.5t228 -88.5t89 -228.5t-89 -228t-228 -88zM350 85q87 0 142.5 59t55.5 160q0 100 -56 160t-142 60q-87 0 -142.5 -60t-55.5 -160q0 -101 55.5 -160t142.5 -59zM202 663l-24 33l135 139h74l136 -139l-24 -33l-149 67z " />
<glyph unicode="&#xd5;" horiz-adv-x="700" d="M350 -12q-139 0 -228 88t-89 228t89 228.5t228 88.5t228 -88.5t89 -228.5t-89 -228t-228 -88zM350 85q87 0 142.5 59t55.5 160q0 100 -56 160t-142 60q-87 0 -142.5 -60t-55.5 -160q0 -101 55.5 -160t142.5 -59zM208 667l-41 21q13 35 24 57t35 43.5t53 21.5q26 0 70 -23 t67 -23q42 0 66 49l41 -22q-22 -53 -49 -87.5t-67 -34.5q-26 0 -71.5 23t-63.5 23q-38 0 -64 -48z" />
<glyph unicode="&#xd6;" horiz-adv-x="700" d="M350 -12q-139 0 -228 88t-89 228t89 228.5t228 88.5t228 -88.5t89 -228.5t-89 -228t-228 -88zM350 85q87 0 142.5 59t55.5 160q0 100 -56 160t-142 60q-87 0 -142.5 -60t-55.5 -160q0 -101 55.5 -160t142.5 -59zM253 667q-27 0 -46 19t-19 46t19 46t46 19t46 -19t19 -46 t-19 -46t-46 -19zM447 667q-27 0 -46 19t-19 46t19 46t46 19t46 -19t19 -46t-19 -46t-46 -19z" />
<glyph unicode="&#xd7;" horiz-adv-x="493" d="M99 31l-62 62l147 147l-147 148l62 62l147 -148l148 148l62 -62l-148 -148l148 -147l-62 -62l-148 147z" />
<glyph unicode="&#xd8;" horiz-adv-x="700" d="M350 -12q-106 0 -184 52l-53 -66l-39 31l53 65q-94 89 -94 234q0 140 89 228.5t228 88.5q104 0 183 -53l54 67l38 -32l-53 -65q95 -90 95 -234q0 -140 -89 -228t-228 -88zM350 85q87 0 142.5 59t55.5 160q0 89 -46 148l-270 -331q50 -36 118 -36zM350 524 q-87 0 -142.5 -60t-55.5 -160q0 -91 45 -148l269 331q-49 37 -116 37z" />
<glyph unicode="&#xd9;" horiz-adv-x="698" d="M350 -12q-106 0 -177 54t-71 165v310h-82v92h280v-92h-82v-299q0 -66 37.5 -96t98.5 -30t98 30.5t37 96.5v298h-85v92h275v-92h-82v-300q0 -107 -66 -168t-181 -61zM393 660l-196 118l74 94l159 -166z" />
<glyph unicode="&#xda;" horiz-adv-x="698" d="M350 -12q-106 0 -177 54t-71 165v310h-82v92h280v-92h-82v-299q0 -66 37.5 -96t98.5 -30t98 30.5t37 96.5v298h-85v92h275v-92h-82v-300q0 -107 -66 -168t-181 -61zM295 660l-37 46l159 166l74 -94z" />
<glyph unicode="&#xdb;" horiz-adv-x="698" d="M350 -12q-106 0 -177 54t-71 165v310h-82v92h280v-92h-82v-299q0 -66 37.5 -96t98.5 -30t98 30.5t37 96.5v298h-85v92h275v-92h-82v-300q0 -107 -66 -168t-181 -61zM201 660l-24 33l135 139h74l136 -139l-24 -33l-149 67z" />
<glyph unicode="&#xdc;" horiz-adv-x="698" d="M350 -12q-106 0 -177 54t-71 165v310h-82v92h280v-92h-82v-299q0 -66 37.5 -96t98.5 -30t98 30.5t37 96.5v298h-85v92h275v-92h-82v-300q0 -107 -66 -168t-181 -61zM252 664q-27 0 -46 19t-19 46t19 46t46 19t46 -19t19 -46t-19 -46t-46 -19zM446 664q-27 0 -46 19 t-19 46t19 46t46 19t46 -19t19 -46t-19 -46t-46 -19z" />
<glyph unicode="&#xdd;" horiz-adv-x="638" d="M176 0v92h86v118l-197 307h-70v92h284v-91h-87l128 -204l129 204h-87v91h277v-92h-67l-194 -301v-124h86v-92h-288zM266 660l-37 46l159 166l74 -94z" />
<glyph unicode="&#xde;" horiz-adv-x="584" d="M39 0v89h85v431h-85v89h296v-86h-95v-41h76q128 0 188.5 -48.5t60.5 -127.5t-60.5 -127.5t-188.5 -48.5h-76v-44h95v-86h-296zM240 220h80q69 0 98.5 22t29.5 64t-29.5 64t-98.5 22h-80v-172z" />
<glyph unicode="&#xdf;" horiz-adv-x="595" d="M37 0v88h71v255h-82v89h82v81q0 95 53.5 150t158.5 55q91 0 143.5 -42t52.5 -119q0 -41 -16 -75t-31.5 -60t-15.5 -47q0 -24 18.5 -54t40 -55.5t40 -64.5t18.5 -79q0 -63 -42.5 -97t-120.5 -34q-63 0 -121 21v87q52 -24 104 -24q67 0 67 51q0 26 -18.5 56t-40.5 53.5 t-40.5 58t-18.5 69.5q0 39 33.5 91.5t33.5 92.5t-22.5 62.5t-64.5 22.5q-51 0 -74.5 -31t-23.5 -81v-520h-184z" />
<glyph unicode="&#xe0;" horiz-adv-x="480" d="M163 -11q-63 0 -102 35t-39 97q0 134 201 134h71v27q0 40 -20 57.5t-73 17.5q-70 0 -143 -22v84q78 24 167 24q91 0 136.5 -37t45.5 -122v-196h64v-88h-171v49q-58 -60 -137 -60zM197 69q52 0 97 47v69h-66q-93 0 -93 -59q0 -57 62 -57zM283 503l-196 118l74 94l159 -166 z" />
<glyph unicode="&#xe1;" horiz-adv-x="480" d="M163 -11q-63 0 -102 35t-39 97q0 134 201 134h71v27q0 40 -20 57.5t-73 17.5q-70 0 -143 -22v84q78 24 167 24q91 0 136.5 -37t45.5 -122v-196h64v-88h-171v49q-58 -60 -137 -60zM197 69q52 0 97 47v69h-66q-93 0 -93 -59q0 -57 62 -57zM159 503l-37 46l159 166l74 -94z " />
<glyph unicode="&#xe2;" horiz-adv-x="480" d="M163 -11q-63 0 -102 35t-39 97q0 134 201 134h71v27q0 40 -20 57.5t-73 17.5q-70 0 -143 -22v84q78 24 167 24q91 0 136.5 -37t45.5 -122v-196h64v-88h-171v49q-58 -60 -137 -60zM197 69q52 0 97 47v69h-66q-93 0 -93 -59q0 -57 62 -57zM77 498l-24 33l135 139h74 l136 -139l-24 -33l-149 67z" />
<glyph unicode="&#xe3;" horiz-adv-x="480" d="M163 -11q-63 0 -102 35t-39 97q0 134 201 134h71v27q0 40 -20 57.5t-73 17.5q-70 0 -143 -22v84q78 24 167 24q91 0 136.5 -37t45.5 -122v-196h64v-88h-171v49q-58 -60 -137 -60zM197 69q52 0 97 47v69h-66q-93 0 -93 -59q0 -57 62 -57zM86 502l-41 21q13 35 24 57 t35 43.5t53 21.5q26 0 70 -23t67 -23q42 0 66 49l41 -22q-22 -53 -49 -87.5t-67 -34.5q-26 0 -71.5 23t-63.5 23q-38 0 -64 -48z" />
<glyph unicode="&#xe4;" horiz-adv-x="480" d="M163 -11q-63 0 -102 35t-39 97q0 134 201 134h71v27q0 40 -20 57.5t-73 17.5q-70 0 -143 -22v84q78 24 167 24q91 0 136.5 -37t45.5 -122v-196h64v-88h-171v49q-58 -60 -137 -60zM197 69q52 0 97 47v69h-66q-93 0 -93 -59q0 -57 62 -57zM128 501q-27 0 -46 19t-19 46 t19 46t46 19t46 -19t19 -46t-19 -46t-46 -19zM322 501q-27 0 -46 19t-19 46t19 46t46 19t46 -19t19 -46t-19 -46t-46 -19z" />
<glyph unicode="&#xe5;" horiz-adv-x="480" d="M163 -11q-63 0 -102 35t-39 97q0 134 201 134h71v27q0 40 -20 57.5t-73 17.5q-70 0 -143 -22v84q78 24 167 24q91 0 136.5 -37t45.5 -122v-196h64v-88h-171v49q-58 -60 -137 -60zM197 69q52 0 97 47v69h-66q-93 0 -93 -59q0 -57 62 -57zM223 498q-59 0 -92 32t-33 80 t33 80t92 32t92 -32t33 -80t-33 -80t-92 -32zM223 559q20 0 31 14.5t11 36.5q0 21 -11 35.5t-31 14.5t-31 -14.5t-11 -35.5q0 -22 11 -36.5t31 -14.5z" />
<glyph unicode="&#xe6;" horiz-adv-x="720" d="M176 -11q-71 0 -113 35t-42 98q0 133 201 133h71v27q0 40 -20.5 58t-70.5 18q-68 0 -145 -29v87q79 27 162 27q103 0 146 -52q54 52 138 52q93 0 142.5 -60.5t49.5 -154.5q0 -27 -4 -48h-289q15 -105 129 -105q61 0 137 40v-87q-70 -39 -153 -39q-112 0 -169 68 q-81 -68 -170 -68zM201 72q60 0 111 45q-10 29 -13 68h-72q-93 0 -93 -58q0 -55 67 -55zM501 363q-46 0 -70 -30t-30 -76h188q-4 106 -88 106z" />
<glyph unicode="&#xe7;" horiz-adv-x="445" d="M210 -208q-42 0 -77 7l14 63q32 -6 57 -6q46 0 46 27q0 33 -69 33v21l28 55q-86 12 -133 69t-47 153q0 111 62 170t167 59q76 0 156 -29v-146h-94v84q-24 6 -50 6q-61 0 -92.5 -36.5t-31.5 -103.5q0 -66 31.5 -104t96.5 -38q62 0 136 38v-89q-58 -33 -138 -36l-11 -25 q37 -2 61 -24t24 -58q0 -44 -38 -67t-98 -23z" />
<glyph unicode="&#xe8;" horiz-adv-x="464" d="M256 -11q-110 0 -168.5 62.5t-58.5 164.5q0 101 56 164t156 63q97 0 147.5 -60t50.5 -155q0 -27 -4 -48h-292q17 -105 130 -105q63 0 139 40v-87q-70 -39 -156 -39zM243 361q-86 0 -101 -102h191q-8 102 -90 102zM298 503l-196 118l74 94l159 -166z" />
<glyph unicode="&#xe9;" horiz-adv-x="464" d="M256 -11q-110 0 -168.5 62.5t-58.5 164.5q0 101 56 164t156 63q97 0 147.5 -60t50.5 -155q0 -27 -4 -48h-292q17 -105 130 -105q63 0 139 40v-87q-70 -39 -156 -39zM243 361q-86 0 -101 -102h191q-8 102 -90 102zM176 503l-37 46l159 166l74 -94z" />
<glyph unicode="&#xea;" horiz-adv-x="464" d="M256 -11q-110 0 -168.5 62.5t-58.5 164.5q0 101 56 164t156 63q97 0 147.5 -60t50.5 -155q0 -27 -4 -48h-292q17 -105 130 -105q63 0 139 40v-87q-70 -39 -156 -39zM243 361q-86 0 -101 -102h191q-8 102 -90 102zM90 498l-24 33l135 139h74l136 -139l-24 -33l-149 67z " />
<glyph unicode="&#xeb;" horiz-adv-x="464" d="M256 -11q-110 0 -168.5 62.5t-58.5 164.5q0 101 56 164t156 63q97 0 147.5 -60t50.5 -155q0 -27 -4 -48h-292q17 -105 130 -105q63 0 139 40v-87q-70 -39 -156 -39zM243 361q-86 0 -101 -102h191q-8 102 -90 102zM138 501q-27 0 -46 19t-19 46t19 46t46 19t46 -19t19 -46 t-19 -46t-46 -19zM332 501q-27 0 -46 19t-19 46t19 46t46 19t46 -19t19 -46t-19 -46t-46 -19z" />
<glyph unicode="&#xec;" horiz-adv-x="299" d="M197 503l-196 118l74 94l159 -166zM33 0v88h66v256h-66v88h179v-344h66v-88h-245z" />
<glyph unicode="&#xed;" horiz-adv-x="299" d="M75 503l-37 46l159 166l74 -94zM33 0v88h66v256h-66v88h179v-344h66v-88h-245z" />
<glyph unicode="&#xee;" horiz-adv-x="299" d="M-5 498l-24 33l135 139h74l136 -139l-24 -33l-149 67zM33 0v88h66v256h-66v88h179v-344h66v-88h-245z" />
<glyph unicode="&#xef;" horiz-adv-x="299" d="M46 501q-27 0 -46 19t-19 46t19 46t46 19t46 -19t19 -46t-19 -46t-46 -19zM240 501q-27 0 -46 19t-19 46t19 46t46 19t46 -19t19 -46t-19 -46t-46 -19zM33 0v88h66v256h-66v88h179v-344h66v-88h-245z" />
<glyph unicode="&#xf0;" horiz-adv-x="521" d="M254 -11q-104 0 -164.5 60t-60.5 160q0 94 54 154t147 60q81 0 130 -52q-18 103 -112 197l-110 -77l-28 41l100 70q-37 32 -89 62l56 65q69 -34 116 -72l88 61l29 -40l-79 -55q157 -155 157 -363q0 -129 -61.5 -200t-172.5 -71zM258 74q53 0 83 37.5t30 97.5 q0 59 -29.5 95.5t-83.5 36.5q-53 0 -82.5 -36.5t-29.5 -96.5t30 -97t82 -37z" />
<glyph unicode="&#xf1;" horiz-adv-x="581" d="M33 0v88h66v256h-66v88h176v-54q80 65 160 65q61 0 95 -34.5t34 -99.5v-221h66v-88h-245v88h66v210q0 28 -12 42t-41 14q-55 0 -120 -50v-216h66v-88h-245zM155 502l-41 21q13 35 24 57t35 43.5t53 21.5q26 0 70 -23t67 -23q41 0 66 49l41 -22q-22 -53 -49 -87.5 t-67 -34.5q-26 0 -71.5 23t-63.5 23q-39 0 -64 -48z" />
<glyph unicode="&#xf2;" horiz-adv-x="514" d="M257 -11q-107 0 -167.5 62t-60.5 165t60.5 165t167.5 62t167.5 -62t60.5 -165t-60.5 -165t-167.5 -62zM257 74q55 0 83 39.5t28 102.5t-28 102.5t-83 39.5t-83 -39.5t-28 -102.5t28 -102.5t83 -39.5zM314 503l-196 118l74 94l159 -166z" />
<glyph unicode="&#xf3;" horiz-adv-x="514" d="M257 -11q-107 0 -167.5 62t-60.5 165t60.5 165t167.5 62t167.5 -62t60.5 -165t-60.5 -165t-167.5 -62zM257 74q55 0 83 39.5t28 102.5t-28 102.5t-83 39.5t-83 -39.5t-28 -102.5t28 -102.5t83 -39.5zM192 503l-37 46l159 166l74 -94z" />
<glyph unicode="&#xf4;" horiz-adv-x="514" d="M257 -11q-107 0 -167.5 62t-60.5 165t60.5 165t167.5 62t167.5 -62t60.5 -165t-60.5 -165t-167.5 -62zM257 74q55 0 83 39.5t28 102.5t-28 102.5t-83 39.5t-83 -39.5t-28 -102.5t28 -102.5t83 -39.5zM109 498l-24 33l135 139h74l136 -139l-24 -33l-149 67z" />
<glyph unicode="&#xf5;" horiz-adv-x="514" d="M257 -11q-107 0 -167.5 62t-60.5 165t60.5 165t167.5 62t167.5 -62t60.5 -165t-60.5 -165t-167.5 -62zM257 74q55 0 83 39.5t28 102.5t-28 102.5t-83 39.5t-83 -39.5t-28 -102.5t28 -102.5t83 -39.5zM118 502l-41 21q13 35 24 57t35 43.5t53 21.5q26 0 70 -23t67 -23 q42 0 66 49l41 -22q-22 -53 -49 -87.5t-67 -34.5q-26 0 -71.5 23t-63.5 23q-38 0 -64 -48z" />
<glyph unicode="&#xf6;" horiz-adv-x="514" d="M257 -11q-107 0 -167.5 62t-60.5 165t60.5 165t167.5 62t167.5 -62t60.5 -165t-60.5 -165t-167.5 -62zM257 74q55 0 83 39.5t28 102.5t-28 102.5t-83 39.5t-83 -39.5t-28 -102.5t28 -102.5t83 -39.5zM160 501q-27 0 -46 19t-19 46t19 46t46 19t46 -19t19 -46t-19 -46 t-46 -19zM354 501q-27 0 -46 19t-19 46t19 46t46 19t46 -19t19 -46t-19 -46t-46 -19z" />
<glyph unicode="&#xf7;" horiz-adv-x="498" d="M249 15q-28 0 -47.5 19.5t-19.5 47.5t19.5 47.5t47.5 19.5t47.5 -19.5t19.5 -47.5t-19.5 -47.5t-47.5 -19.5zM249 339q-28 0 -47.5 19.5t-19.5 47.5t19.5 47.5t47.5 19.5t47.5 -19.5t19.5 -47.5t-19.5 -47.5t-47.5 -19.5zM36 204v80h426v-80h-426z" />
<glyph unicode="&#xf8;" horiz-adv-x="511" d="M255 -11q-83 0 -138 37l-42 -49l-31 26l42 49q-59 61 -59 164t60.5 165t167.5 62q81 0 138 -38l42 49l30 -26l-42 -48q60 -62 60 -164q0 -103 -60.5 -165t-167.5 -62zM255 74q55 0 83 39.5t28 102.5q0 46 -15 80l-169 -195q29 -27 73 -27zM255 358q-55 0 -83 -39.5 t-28 -102.5q0 -46 15 -80l169 194q-28 28 -73 28z" />
<glyph unicode="&#xf9;" d="M212 -11q-60 0 -94.5 34.5t-34.5 99.5v221h-67v88h180v-298q0 -28 12 -42t41 -14q56 0 120 49v217h-75v88h188v-344h66v-88h-176v53q-79 -64 -160 -64zM314 503l-196 118l74 94l159 -166z" />
<glyph unicode="&#xfa;" d="M212 -11q-60 0 -94.5 34.5t-34.5 99.5v221h-67v88h180v-298q0 -28 12 -42t41 -14q56 0 120 49v217h-75v88h188v-344h66v-88h-176v53q-79 -64 -160 -64zM206 503l-37 46l159 166l74 -94z" />
<glyph unicode="&#xfb;" d="M212 -11q-60 0 -94.5 34.5t-34.5 99.5v221h-67v88h180v-298q0 -28 12 -42t41 -14q56 0 120 49v217h-75v88h188v-344h66v-88h-176v53q-79 -64 -160 -64zM115 498l-24 33l135 139h74l136 -139l-24 -33l-149 67z" />
<glyph unicode="&#xfc;" d="M212 -11q-60 0 -94.5 34.5t-34.5 99.5v221h-67v88h180v-298q0 -28 12 -42t41 -14q56 0 120 49v217h-75v88h188v-344h66v-88h-176v53q-79 -64 -160 -64zM161 501q-27 0 -46 19t-19 46t19 46t46 19t46 -19t19 -46t-19 -46t-46 -19zM355 501q-27 0 -46 19t-19 46t19 46 t46 19t46 -19t19 -46t-19 -46t-46 -19z" />
<glyph unicode="&#xfd;" horiz-adv-x="519" d="M170 -210q-67 0 -121 33l32 75q42 -22 73 -22q51 0 67 50l23 74h-83l-100 345h-51v87h225v-88h-58l80 -304l98 304h-59v88h218v-87h-49l-145 -433q-20 -61 -56 -91.5t-94 -30.5zM213 503l-37 46l159 166l74 -94z" />
<glyph unicode="&#xfe;" horiz-adv-x="517" d="M-8 -199v89h66v729h-66v88h179v-314q52 50 125 50q88 0 140 -61t52 -163q0 -105 -55 -167.5t-148 -62.5q-65 0 -114 34v-133h79v-89h-258zM263 357q-51 0 -92 -37v-218q33 -27 84 -27q58 0 87.5 37t29.5 103q0 62 -27 102t-82 40z" />
<glyph unicode="&#xff;" horiz-adv-x="519" d="M170 -210q-67 0 -121 33l32 75q42 -22 73 -22q51 0 67 50l23 74h-83l-100 345h-51v87h225v-88h-58l80 -304l98 304h-59v88h218v-87h-49l-145 -433q-20 -61 -56 -91.5t-94 -30.5zM168 501q-27 0 -46 19t-19 46t19 46t46 19t46 -19t19 -46t-19 -46t-46 -19zM362 501 q-27 0 -46 19t-19 46t19 46t46 19t46 -19t19 -46t-19 -46t-46 -19z" />
<glyph unicode="&#x100;" horiz-adv-x="685" d="M1 0v92h72l172 425h-83v92h249l209 -517h73v-92h-273v92h80l-32 83h-250l-32 -83h80v-92h-265zM254 267h179l-90 230zM180 670v84h284v-84h-284z" />
<glyph unicode="&#x101;" horiz-adv-x="480" d="M163 -11q-63 0 -102 35t-39 97q0 134 201 134h71v27q0 40 -20 57.5t-73 17.5q-70 0 -143 -22v84q78 24 167 24q91 0 136.5 -37t45.5 -122v-196h64v-88h-171v49q-58 -60 -137 -60zM197 69q52 0 97 47v69h-66q-93 0 -93 -59q0 -57 62 -57zM80 517v84h284v-84h-284z" />
<glyph unicode="&#x102;" horiz-adv-x="685" d="M1 0v92h72l172 425h-83v92h249l209 -517h73v-92h-273v92h80l-32 83h-250l-32 -83h80v-92h-265zM254 267h179l-90 230zM332 660q-68 0 -111 44.5t-46 111.5h81q10 -65 76 -65t76 65h81q-3 -67 -46 -111.5t-111 -44.5z" />
<glyph unicode="&#x103;" horiz-adv-x="480" d="M163 -11q-63 0 -102 35t-39 97q0 134 201 134h71v27q0 40 -20 57.5t-73 17.5q-70 0 -143 -22v84q78 24 167 24q91 0 136.5 -37t45.5 -122v-196h64v-88h-171v49q-58 -60 -137 -60zM197 69q52 0 97 47v69h-66q-93 0 -93 -59q0 -57 62 -57zM224 506q-68 0 -111 44.5 t-46 111.5h81q10 -65 76 -65t76 65h81q-3 -67 -46 -111.5t-111 -44.5z" />
<glyph unicode="&#x104;" horiz-adv-x="685" d="M584 -208q-48 0 -79 22.5t-31 65.5q0 65 81 120h-135v92h80l-32 83h-250l-32 -83h80v-92h-265v92h72l172 425h-83v92h249l209 -517h73v-92h-61q-58 -49 -58 -101q0 -37 41 -37q27 0 57 14l7 -65q-46 -19 -95 -19zM254 267h179l-90 230z" />
<glyph unicode="&#x105;" horiz-adv-x="480" d="M391 -208q-48 0 -79 22.5t-31 65.5q0 65 81 120h-62v49q-58 -60 -137 -60q-63 0 -102 35t-39 97q0 134 201 134h71v27q0 40 -20 57.5t-73 17.5q-70 0 -143 -22v84q78 24 167 24q91 0 136.5 -37t45.5 -122v-196h64v-88h-32q-58 -49 -58 -101q0 -37 41 -37q27 0 57 14 l7 -65q-46 -19 -95 -19zM197 69q52 0 97 47v69h-66q-93 0 -93 -59q0 -57 62 -57z" />
<glyph unicode="&#x106;" horiz-adv-x="623" d="M362 -12q-151 0 -239.5 83.5t-88.5 229.5q0 149 90 234.5t235 85.5q124 0 227 -49v-175h-111v112q-54 15 -110 15q-96 0 -153.5 -57t-57.5 -160q0 -105 60 -162t158 -57q105 0 213 64v-111q-101 -53 -223 -53zM287 663l-37 46l159 166l74 -94z" />
<glyph unicode="&#x107;" horiz-adv-x="445" d="M256 -11q-107 0 -167 58.5t-60 166.5q0 111 62 170t167 59q76 0 156 -29v-146h-94v84q-24 6 -50 6q-61 0 -92.5 -36.5t-31.5 -103.5q0 -66 31.5 -104t96.5 -38q62 0 136 38v-89q-64 -36 -154 -36zM185 503l-37 46l159 166l74 -94z" />
<glyph unicode="&#x108;" horiz-adv-x="623" d="M362 -12q-151 0 -239.5 83.5t-88.5 229.5q0 149 90 234.5t235 85.5q124 0 227 -49v-175h-111v112q-54 15 -110 15q-96 0 -153.5 -57t-57.5 -160q0 -105 60 -162t158 -57q105 0 213 64v-111q-101 -53 -223 -53zM206 663l-24 33l135 139h74l136 -139l-24 -33l-149 67z" />
<glyph unicode="&#x109;" horiz-adv-x="445" d="M256 -11q-107 0 -167 58.5t-60 166.5q0 111 62 170t167 59q76 0 156 -29v-146h-94v84q-24 6 -50 6q-61 0 -92.5 -36.5t-31.5 -103.5q0 -66 31.5 -104t96.5 -38q62 0 136 38v-89q-64 -36 -154 -36zM99 498l-24 33l135 139h74l136 -139l-24 -33l-149 67z" />
<glyph unicode="&#x10a;" horiz-adv-x="623" d="M362 -12q-151 0 -239.5 83.5t-88.5 229.5q0 149 90 234.5t235 85.5q124 0 227 -49v-175h-111v112q-54 15 -110 15q-96 0 -153.5 -57t-57.5 -160q0 -105 60 -162t158 -57q105 0 213 64v-111q-101 -53 -223 -53zM345 667q-29 0 -49.5 20.5t-20.5 49.5t20.5 49.5t49.5 20.5 t49.5 -20.5t20.5 -49.5t-20.5 -49.5t-49.5 -20.5z" />
<glyph unicode="&#x10b;" horiz-adv-x="445" d="M256 -11q-107 0 -167 58.5t-60 166.5q0 111 62 170t167 59q76 0 156 -29v-146h-94v84q-24 6 -50 6q-61 0 -92.5 -36.5t-31.5 -103.5q0 -66 31.5 -104t96.5 -38q62 0 136 38v-89q-64 -36 -154 -36zM244 501q-29 0 -49.5 20.5t-20.5 49.5t20.5 49.5t49.5 20.5t49.5 -20.5 t20.5 -49.5t-20.5 -49.5t-49.5 -20.5z" />
<glyph unicode="&#x10c;" horiz-adv-x="623" d="M362 -12q-151 0 -239.5 83.5t-88.5 229.5q0 149 90 234.5t235 85.5q124 0 227 -49v-175h-111v112q-54 15 -110 15q-96 0 -153.5 -57t-57.5 -160q0 -105 60 -162t158 -57q105 0 213 64v-111q-101 -53 -223 -53zM310 663l-135 139l24 33l148 -67l149 67l24 -33l-136 -139 h-74z" />
<glyph unicode="&#x10d;" horiz-adv-x="445" d="M256 -11q-107 0 -167 58.5t-60 166.5q0 111 62 170t167 59q76 0 156 -29v-146h-94v84q-24 6 -50 6q-61 0 -92.5 -36.5t-31.5 -103.5q0 -66 31.5 -104t96.5 -38q62 0 136 38v-89q-64 -36 -154 -36zM203 504l-135 139l24 33l148 -67l149 67l24 -33l-136 -139h-74z" />
<glyph unicode="&#x10e;" horiz-adv-x="692" d="M40 0v92h82v425h-82v92h289q161 0 244 -82.5t83 -222.5t-83 -222t-244 -82h-289zM238 92h91q105 0 156.5 55t51.5 157q0 213 -208 213h-91v-425zM302 660l-135 139l24 33l148 -67l149 67l24 -33l-136 -139h-74z" />
<glyph unicode="&#x10f;" horiz-adv-x="542" d="M567 716q35 0 51.5 -22t16.5 -52q0 -41 -29 -84t-74 -78l-47 37q15 18 23 28.5t16.5 31t8.5 41.5q0 42 -38 70v6q32 22 72 22zM222 -11q-87 0 -140 62.5t-53 164.5q0 104 55.5 165.5t147.5 61.5q65 0 114 -34v209h-82v89h195v-619h66v-88h-169v48q-55 -59 -134 -59z M254 75q51 0 92 36v219q-37 27 -84 27q-58 0 -87.5 -37t-29.5 -102q0 -62 27 -102.5t82 -40.5z" />
<glyph unicode="&#x110;" horiz-adv-x="692" d="M47 260v94h75v163h-82v92h289q161 0 244 -82.5t83 -222.5t-83 -222t-244 -82h-289v92h82v168h-75zM238 92h91q105 0 156.5 55t51.5 157q0 213 -208 213h-91v-163h163v-94h-163v-168z" />
<glyph unicode="&#x111;" horiz-adv-x="542" d="M204 498v73h142v47h-82v89h195v-136h59v-73h-59v-410h66v-88h-169v48q-55 -59 -134 -59q-87 0 -140 62.5t-53 164.5q0 104 55.5 165.5t147.5 61.5q65 0 114 -34v89h-142zM254 75q51 0 92 36v219q-37 27 -84 27q-58 0 -87.5 -37t-29.5 -102q0 -62 27 -102.5t82 -40.5z" />
<glyph unicode="&#x112;" horiz-adv-x="588" d="M40 0v92h82v425h-82v92h502v-179h-107v87h-197v-165h229v-92h-229v-168h200v91h108v-183h-506zM170 670v84h284v-84h-284z" />
<glyph unicode="&#x113;" horiz-adv-x="464" d="M256 -11q-110 0 -168.5 62.5t-58.5 164.5q0 101 56 164t156 63q97 0 147.5 -60t50.5 -155q0 -27 -4 -48h-292q17 -105 130 -105q63 0 139 40v-87q-70 -39 -156 -39zM243 361q-86 0 -101 -102h191q-8 102 -90 102zM94 517v84h284v-84h-284z" />
<glyph unicode="&#x114;" horiz-adv-x="588" d="M40 0v92h82v425h-82v92h502v-179h-107v87h-197v-165h229v-92h-229v-168h200v91h108v-183h-506zM310 660q-68 0 -111 44.5t-46 111.5h81q10 -65 76 -65t76 65h81q-3 -67 -46 -111.5t-111 -44.5z" />
<glyph unicode="&#x115;" horiz-adv-x="464" d="M256 -11q-110 0 -168.5 62.5t-58.5 164.5q0 101 56 164t156 63q97 0 147.5 -60t50.5 -155q0 -27 -4 -48h-292q17 -105 130 -105q63 0 139 40v-87q-70 -39 -156 -39zM243 361q-86 0 -101 -102h191q-8 102 -90 102zM235 506q-68 0 -111 44.5t-46 111.5h81q10 -65 76 -65 t76 65h81q-3 -67 -46 -111.5t-111 -44.5z" />
<glyph unicode="&#x116;" horiz-adv-x="588" d="M40 0v92h82v425h-82v92h502v-179h-107v87h-197v-165h229v-92h-229v-168h200v91h108v-183h-506zM313 664q-29 0 -49.5 20.5t-20.5 49.5t20.5 49.5t49.5 20.5t49.5 -20.5t20.5 -49.5t-20.5 -49.5t-49.5 -20.5z" />
<glyph unicode="&#x117;" horiz-adv-x="464" d="M256 -11q-110 0 -168.5 62.5t-58.5 164.5q0 101 56 164t156 63q97 0 147.5 -60t50.5 -155q0 -27 -4 -48h-292q17 -105 130 -105q63 0 139 40v-87q-70 -39 -156 -39zM243 361q-86 0 -101 -102h191q-8 102 -90 102zM236 501q-29 0 -49.5 20.5t-20.5 49.5t20.5 49.5 t49.5 20.5t49.5 -20.5t20.5 -49.5t-20.5 -49.5t-49.5 -20.5z" />
<glyph unicode="&#x118;" horiz-adv-x="588" d="M40 0v92h82v425h-82v92h502v-179h-107v87h-197v-165h229v-92h-229v-168h200v91h108v-183h-30q-58 -49 -58 -101q0 -37 41 -37q27 0 57 14l7 -65q-46 -19 -95 -19q-48 0 -79 22.5t-31 65.5q0 65 81 120h-399z" />
<glyph unicode="&#x119;" horiz-adv-x="464" d="M329 -208q-48 0 -79 22.5t-31 65.5q0 62 68 111q-20 -2 -31 -2q-110 0 -168.5 62.5t-58.5 164.5q0 101 56 164t156 63q97 0 147.5 -60t50.5 -155q0 -27 -4 -48h-292q17 -105 130 -105q63 0 139 40v-87q-93 -62 -93 -127q0 -39 41 -39q27 0 57 14l7 -65q-46 -19 -95 -19z M243 361q-86 0 -101 -102h191q-8 102 -90 102z" />
<glyph unicode="&#x11a;" horiz-adv-x="588" d="M40 0v92h82v425h-82v92h502v-179h-107v87h-197v-165h229v-92h-229v-168h200v91h108v-183h-506zM274 660l-135 139l24 33l148 -67l149 67l24 -33l-136 -139h-74z" />
<glyph unicode="&#x11b;" horiz-adv-x="464" d="M256 -11q-110 0 -168.5 62.5t-58.5 164.5q0 101 56 164t156 63q97 0 147.5 -60t50.5 -155q0 -27 -4 -48h-292q17 -105 130 -105q63 0 139 40v-87q-70 -39 -156 -39zM243 361q-86 0 -101 -102h191q-8 102 -90 102zM197 504l-135 139l24 33l148 -67l149 67l24 -33 l-136 -139h-74z" />
<glyph unicode="&#x11c;" horiz-adv-x="680" d="M366 -12q-152 0 -241.5 82t-89.5 231q0 147 87.5 233.5t244.5 86.5q136 0 240 -54v-157h-109v94q-69 21 -128 21q-104 0 -161 -59t-57 -163q0 -107 59.5 -162t160.5 -55q58 0 126 22v129h-127v90h285v-90h-50v-190q-104 -59 -240 -59zM202 663l-24 33l135 139h74 l136 -139l-24 -33l-149 67z" />
<glyph unicode="&#x11d;" horiz-adv-x="483" d="M222 -210q-109 0 -158.5 34t-49.5 88q0 61 61 98q-28 20 -28 53q0 46 53 84q-61 46 -61 130q0 72 49 119t138 47q41 0 76 -11h172v-88l-76 4q15 -37 15 -71q0 -72 -49 -119t-138 -47q-43 0 -73 10q-8 -8 -8 -17q0 -17 31.5 -24t76.5 -11t90 -13t76.5 -38.5t31.5 -79.5 q0 -63 -52 -105.5t-177 -42.5zM226 364q-34 0 -58 -20.5t-24 -66.5q0 -47 24 -67.5t58 -20.5t58 20.5t24 67.5q0 46 -24 66.5t-58 20.5zM226 -127q31 0 53.5 5t33.5 11.5t17.5 16t8 15t1.5 10.5q0 15 -12 24.5t-34.5 14t-45.5 7t-55 5t-53 6.5q-28 -25 -28 -55 q0 -60 114 -60zM77 498l-24 33l135 139h74l136 -139l-24 -33l-149 67z" />
<glyph unicode="&#x11e;" horiz-adv-x="680" d="M366 -12q-152 0 -241.5 82t-89.5 231q0 147 87.5 233.5t244.5 86.5q136 0 240 -54v-157h-109v94q-69 21 -128 21q-104 0 -161 -59t-57 -163q0 -107 59.5 -162t160.5 -55q58 0 126 22v129h-127v90h285v-90h-50v-190q-104 -59 -240 -59zM342 663q-68 0 -111 44.5t-46 111.5 h81q10 -65 76 -65t76 65h81q-3 -67 -46 -111.5t-111 -44.5z" />
<glyph unicode="&#x11f;" horiz-adv-x="483" d="M222 -210q-109 0 -158.5 34t-49.5 88q0 61 61 98q-28 20 -28 53q0 46 53 84q-61 46 -61 130q0 72 49 119t138 47q41 0 76 -11h172v-88l-76 4q15 -37 15 -71q0 -72 -49 -119t-138 -47q-43 0 -73 10q-8 -8 -8 -17q0 -17 31.5 -24t76.5 -11t90 -13t76.5 -38.5t31.5 -79.5 q0 -63 -52 -105.5t-177 -42.5zM226 364q-34 0 -58 -20.5t-24 -66.5q0 -47 24 -67.5t58 -20.5t58 20.5t24 67.5q0 46 -24 66.5t-58 20.5zM226 -127q31 0 53.5 5t33.5 11.5t17.5 16t8 15t1.5 10.5q0 15 -12 24.5t-34.5 14t-45.5 7t-55 5t-53 6.5q-28 -25 -28 -55 q0 -60 114 -60zM224 506q-68 0 -111 44.5t-46 111.5h81q10 -65 76 -65t76 65h81q-3 -67 -46 -111.5t-111 -44.5z" />
<glyph unicode="&#x120;" horiz-adv-x="680" d="M366 -12q-152 0 -241.5 82t-89.5 231q0 147 87.5 233.5t244.5 86.5q136 0 240 -54v-157h-109v94q-69 21 -128 21q-104 0 -161 -59t-57 -163q0 -107 59.5 -162t160.5 -55q58 0 126 22v129h-127v90h285v-90h-50v-190q-104 -59 -240 -59zM349 667q-29 0 -49.5 20.5 t-20.5 49.5t20.5 49.5t49.5 20.5t49.5 -20.5t20.5 -49.5t-20.5 -49.5t-49.5 -20.5z" />
<glyph unicode="&#x121;" horiz-adv-x="483" d="M222 -210q-109 0 -158.5 34t-49.5 88q0 61 61 98q-28 20 -28 53q0 46 53 84q-61 46 -61 130q0 72 49 119t138 47q41 0 76 -11h172v-88l-76 4q15 -37 15 -71q0 -72 -49 -119t-138 -47q-43 0 -73 10q-8 -8 -8 -17q0 -17 31.5 -24t76.5 -11t90 -13t76.5 -38.5t31.5 -79.5 q0 -63 -52 -105.5t-177 -42.5zM226 364q-34 0 -58 -20.5t-24 -66.5q0 -47 24 -67.5t58 -20.5t58 20.5t24 67.5q0 46 -24 66.5t-58 20.5zM226 -127q31 0 53.5 5t33.5 11.5t17.5 16t8 15t1.5 10.5q0 15 -12 24.5t-34.5 14t-45.5 7t-55 5t-53 6.5q-28 -25 -28 -55 q0 -60 114 -60zM224 501q-29 0 -49.5 20.5t-20.5 49.5t20.5 49.5t49.5 20.5t49.5 -20.5t20.5 -49.5t-20.5 -49.5t-49.5 -20.5z" />
<glyph unicode="&#x122;" horiz-adv-x="680" d="M354 -63q35 0 51.5 -22t16.5 -52q0 -41 -29 -84t-74 -78l-47 37q15 18 23 28.5t16.5 31t8.5 41.5q0 42 -38 70v6q32 22 72 22zM366 -12q-152 0 -241.5 82t-89.5 231q0 147 87.5 233.5t244.5 86.5q136 0 240 -54v-157h-109v94q-69 21 -128 21q-104 0 -161 -59t-57 -163 q0 -107 59.5 -162t160.5 -55q58 0 126 22v129h-127v90h285v-90h-50v-190q-104 -59 -240 -59z" />
<glyph unicode="&#x123;" horiz-adv-x="483" d="M218 501q-35 0 -51.5 22t-16.5 52q0 41 29 84t74 78l47 -37q-15 -18 -23 -28.5t-16.5 -31t-8.5 -41.5q0 -42 38 -70v-6q-32 -22 -72 -22zM222 -210q-109 0 -158.5 34t-49.5 88q0 61 61 98q-28 20 -28 53q0 46 53 84q-61 46 -61 130q0 72 49 119t138 47q41 0 76 -11h172 v-88l-76 4q15 -37 15 -71q0 -72 -49 -119t-138 -47q-43 0 -73 10q-8 -8 -8 -17q0 -17 31.5 -24t76.5 -11t90 -13t76.5 -38.5t31.5 -79.5q0 -63 -52 -105.5t-177 -42.5zM226 364q-34 0 -58 -20.5t-24 -66.5q0 -47 24 -67.5t58 -20.5t58 20.5t24 67.5q0 46 -24 66.5t-58 20.5z M226 -127q31 0 53.5 5t33.5 11.5t17.5 16t8 15t1.5 10.5q0 15 -12 24.5t-34.5 14t-45.5 7t-55 5t-53 6.5q-28 -25 -28 -55q0 -60 114 -60z" />
<glyph unicode="&#x124;" horiz-adv-x="765" d="M40 0v92h82v425h-82v92h281v-92h-83v-165h289v165h-83v92h281v-92h-82v-425h82v-92h-281v92h83v164h-289v-164h83v-92h-281zM234 660l-24 33l135 139h74l136 -139l-24 -33l-149 67z" />
<glyph unicode="&#x125;" d="M21 0v88h66v531h-66v88h179v-326q77 62 157 62q61 0 95 -34.5t34 -99.5v-221h66v-88h-245v88h66v210q0 28 -12 42t-41 14q-55 0 -120 -50v-216h66v-88h-245zM-17 754l-24 33l135 139h74l136 -139l-24 -33l-149 67z" />
<glyph unicode="&#x126;" horiz-adv-x="765" d="M47 406v59h75v52h-82v92h281v-92h-83v-52h289v52h-83v92h281v-92h-82v-52h75v-59h-75v-314h82v-92h-281v92h83v164h-289v-164h83v-92h-281v92h82v314h-75zM238 352h289v59h-289v-59z" />
<glyph unicode="&#x127;" d="M28 498v73h59v48h-66v88h179v-136h137v-73h-137v-117q77 62 157 62q61 0 95 -34.5t34 -99.5v-221h66v-88h-245v88h66v210q0 28 -12 42t-41 14q-55 0 -120 -50v-216h66v-88h-245v88h66v410h-59z" />
<glyph unicode="&#x128;" horiz-adv-x="360" d="M40 0v92h82v425h-82v92h280v-92h-82v-425h82v-92h-280zM40 664l-41 21q13 35 24 57t35 43.5t53 21.5q26 0 70 -23t67 -23q42 0 66 49l41 -22q-22 -53 -49 -87.5t-67 -34.5q-26 0 -71.5 23t-63.5 23q-38 0 -64 -48z" />
<glyph unicode="&#x129;" horiz-adv-x="299" d="M-1 502l-41 21q13 35 24 57t35 43.5t53 21.5q26 0 70 -23t67 -23q41 0 66 49l41 -22q-22 -53 -49 -87.5t-67 -34.5q-26 0 -71.5 23t-63.5 23q-39 0 -64 -48zM33 0v88h66v256h-66v88h179v-344h66v-88h-245z" />
<glyph unicode="&#x12a;" horiz-adv-x="360" d="M40 0v92h82v425h-82v92h280v-92h-82v-425h82v-92h-280zM38 670v84h284v-84h-284z" />
<glyph unicode="&#x12b;" horiz-adv-x="299" d="M-3 517v84h284v-84h-284zM33 0v88h66v256h-66v88h179v-344h66v-88h-245z" />
<glyph unicode="&#x12c;" horiz-adv-x="360" d="M40 0v92h82v425h-82v92h280v-92h-82v-425h82v-92h-280zM180 660q-68 0 -111 44.5t-46 111.5h81q10 -65 76 -65t76 65h81q-3 -67 -46 -111.5t-111 -44.5z" />
<glyph unicode="&#x12d;" horiz-adv-x="299" d="M142 506q-68 0 -111 44.5t-46 111.5h81q10 -65 76 -65t76 65h81q-3 -67 -46 -111.5t-111 -44.5zM33 0v88h66v256h-66v88h179v-344h66v-88h-245z" />
<glyph unicode="&#x12e;" horiz-adv-x="360" d="M40 0v92h82v425h-82v92h280v-92h-82v-425h82v-92h-73q-58 -49 -58 -101q0 -37 41 -37q27 0 57 14l7 -65q-46 -19 -95 -19q-48 0 -79 22.5t-31 65.5q0 65 81 120h-130z" />
<glyph unicode="&#x12f;" horiz-adv-x="299" d="M33 0v88h66v256h-66v88h179v-344h66v-88h-65q-58 -49 -58 -101q0 -37 41 -37q27 0 57 14l7 -65q-46 -19 -95 -19q-48 0 -79 22.5t-31 65.5q0 65 81 120h-103zM72 572q0 32 23 55t55 23t55 -23t23 -55t-23 -55t-55 -23t-55 23t-23 55z" />
<glyph unicode="&#x130;" horiz-adv-x="360" d="M40 0v92h82v425h-82v92h280v-92h-82v-425h82v-92h-280zM180 664q-29 0 -49.5 20.5t-20.5 49.5t20.5 49.5t49.5 20.5t49.5 -20.5t20.5 -49.5t-20.5 -49.5t-49.5 -20.5z" />
<glyph unicode="&#x131;" horiz-adv-x="299" d="M33 0v88h66v256h-66v88h179v-344h66v-88h-245z" />
<glyph unicode="&#x134;" horiz-adv-x="330" d="M49 -180l-35 80q20 11 28.5 16t27.5 20t28 34.5t9 43.5v503h-72v92h260v-92h-72v-503q0 -46 -11.5 -78.5t-41 -54.5t-48.5 -31.5t-63 -25.5q-7 -3 -10 -4zM17 660l-24 33l135 139h74l136 -139l-24 -33l-149 67z" />
<glyph unicode="&#x135;" horiz-adv-x="262" d="M33 -224l-33 73q28 16 43.5 27.5t30 34.5t14.5 52v381h-70v88h183v-470q0 -44 -12.5 -75.5t-41.5 -53t-50 -31.5t-64 -26zM-18 498l-24 33l135 139h74l136 -139l-24 -33l-149 67z" />
<glyph unicode="&#x136;" horiz-adv-x="690" d="M392 -60q35 0 51.5 -22t16.5 -52q0 -41 -29 -84t-74 -78l-47 37q15 18 23 28.5t16.5 31t8.5 41.5q0 42 -38 70v6q32 22 72 22zM516 0l-249 299v7l199 213h-66v90h267v-92h-71l-190 -207l184 -218h87v-92h-161zM40 0v92h82v425h-82v92h277v-92h-79v-425h92v-92h-290z" />
<glyph unicode="&#x137;" horiz-adv-x="539" d="M301 -60q35 0 51.5 -22t16.5 -52q0 -41 -29 -84t-74 -78l-47 37q15 18 23 28.5t16.5 31t8.5 41.5q0 42 -38 70v6q32 22 72 22zM21 0v88h66v531h-66v88h179v-619h60v-88h-239zM462 -10q-47 0 -82 23t-70 71l-92 127v3l126 134h-61v84h233v-85h-56l-121 -130l55 -73 q27 -35 47 -51.5t48 -16.5q13 0 26 3v-80q-27 -9 -53 -9z" />
<glyph unicode="&#x138;" horiz-adv-x="551" d="M33 0v88h66v256h-66v88h179v-344h60v-88h-239zM474 -10q-47 0 -82 23t-70 71l-92 127v3l126 134h-61v84h233v-85h-56l-121 -130l55 -73q27 -35 47 -51.5t48 -16.5q13 0 26 3v-80q-27 -9 -53 -9z" />
<glyph unicode="&#x139;" horiz-adv-x="557" d="M40 0v92h82v425h-82v92h295v-92h-97v-425h197v98h107v-190h-502zM154 660l-37 46l159 166l74 -94z" />
<glyph unicode="&#x13a;" horiz-adv-x="287" d="M21 0v88h66v530h-66v89h179v-619h66v-88h-245zM85 754l-37 46l159 166l74 -94z" />
<glyph unicode="&#x13b;" horiz-adv-x="557" d="M326 -60q35 0 51.5 -22t16.5 -52q0 -41 -29 -84t-74 -78l-47 37q15 18 23 28.5t16.5 31t8.5 41.5q0 42 -38 70v6q32 22 72 22zM40 0v92h82v425h-82v92h295v-92h-97v-425h197v98h107v-190h-502z" />
<glyph unicode="&#x13c;" horiz-adv-x="287" d="M146 -60q35 0 51.5 -22t16.5 -52q0 -41 -29 -84t-74 -78l-47 37q15 18 23 28.5t16.5 31t8.5 41.5q0 42 -38 70v6q32 22 72 22zM21 0v88h66v530h-66v89h179v-619h66v-88h-245z" />
<glyph unicode="&#x13d;" horiz-adv-x="561" d="M455 618q35 0 51.5 -22t16.5 -52q0 -41 -29 -84t-74 -78l-47 37q15 18 23 28.5t16.5 31t8.5 41.5q0 42 -38 70v6q32 22 72 22zM40 0v92h82v425h-82v92h295v-92h-97v-425h197v98h107v-190h-502z" />
<glyph unicode="&#x13e;" horiz-adv-x="287" d="M308 716q35 0 51.5 -22t16.5 -52q0 -41 -29 -84t-74 -78l-47 37q15 18 23 28.5t16.5 31t8.5 41.5q0 42 -38 70v6q32 22 72 22zM21 0v88h66v530h-66v89h179v-619h66v-88h-245z" />
<glyph unicode="&#x13f;" horiz-adv-x="557" d="M40 0v92h82v425h-82v92h295v-92h-97v-425h197v98h107v-190h-502zM419 258q-29 0 -49.5 20.5t-20.5 49.5t20.5 49.5t49.5 20.5t49.5 -20.5t20.5 -49.5t-20.5 -49.5t-49.5 -20.5z" />
<glyph unicode="&#x140;" horiz-adv-x="375" d="M21 0v88h66v530h-66v89h179v-619h66v-88h-245zM326 262q-29 0 -49.5 20.5t-20.5 49.5t20.5 49.5t49.5 20.5t49.5 -20.5t20.5 -49.5t-20.5 -49.5t-49.5 -20.5z" />
<glyph unicode="&#x141;" horiz-adv-x="558" d="M60 217l-29 64l92 42v194h-82v92h295v-92h-97v-140l157 72l29 -63l-186 -86v-208h197v98h107v-190h-502v92h82v154z" />
<glyph unicode="&#x142;" horiz-adv-x="314" d="M26 231l-33 62l100 53v272h-66v89h179v-301l90 48l33 -61l-123 -66v-239h66v-88h-245v88h66v179z" />
<glyph unicode="&#x143;" horiz-adv-x="754" d="M40 0v92h82v425h-82v92h201l292 -421v329h-82v92h274v-92h-82v-517h-103l-308 440v-348h82v-92h-274zM332 660l-37 46l159 166l74 -94z" />
<glyph unicode="&#x144;" horiz-adv-x="581" d="M33 0v88h66v256h-66v88h176v-54q80 65 160 65q61 0 95 -34.5t34 -99.5v-221h66v-88h-245v88h66v210q0 28 -12 42t-41 14q-55 0 -120 -50v-216h66v-88h-245zM229 503l-37 46l159 166l74 -94z" />
<glyph unicode="&#x145;" horiz-adv-x="754" d="M400 -60q35 0 51.5 -22t16.5 -52q0 -41 -29 -84t-74 -78l-47 37q15 18 23 28.5t16.5 31t8.5 41.5q0 42 -38 70v6q32 22 72 22zM40 0v92h82v425h-82v92h201l292 -421v329h-82v92h274v-92h-82v-517h-103l-308 440v-348h82v-92h-274z" />
<glyph unicode="&#x146;" horiz-adv-x="581" d="M300 -60q35 0 51.5 -22t16.5 -52q0 -41 -29 -84t-74 -78l-47 37q15 18 23 28.5t16.5 31t8.5 41.5q0 42 -38 70v6q32 22 72 22zM33 0v88h66v256h-66v88h176v-54q80 65 160 65q61 0 95 -34.5t34 -99.5v-221h66v-88h-245v88h66v210q0 28 -12 42t-41 14q-55 0 -120 -50v-216 h66v-88h-245z" />
<glyph unicode="&#x147;" horiz-adv-x="754" d="M40 0v92h82v425h-82v92h201l292 -421v329h-82v92h274v-92h-82v-517h-103l-308 440v-348h82v-92h-274zM340 660l-135 139l24 33l148 -67l149 67l24 -33l-136 -139h-74z" />
<glyph unicode="&#x148;" horiz-adv-x="581" d="M33 0v88h66v256h-66v88h176v-54q80 65 160 65q61 0 95 -34.5t34 -99.5v-221h66v-88h-245v88h66v210q0 28 -12 42t-41 14q-55 0 -120 -50v-216h66v-88h-245zM253 504l-135 139l24 33l148 -67l149 67l24 -33l-136 -139h-74z" />
<glyph unicode="&#x149;" horiz-adv-x="581" d="M110 707q35 0 51.5 -22t16.5 -52q0 -41 -29 -84t-74 -78l-47 37q15 18 23 28.5t16.5 31t8.5 41.5q0 42 -38 70v6q32 22 72 22zM33 0v88h66v256h-66v88h176v-54q80 65 160 65q61 0 95 -34.5t34 -99.5v-221h66v-88h-245v88h66v210q0 28 -12 42t-41 14q-55 0 -120 -50v-216 h66v-88h-245z" />
<glyph unicode="&#x14a;" horiz-adv-x="754" d="M469 -180l-35 80q20 11 28.5 16t27.5 20t28 34.5t9 43.5v18l-295 408v-348h82v-92h-274v92h82v425h-82v92h201l292 -407v315h-82v92h274v-92h-82v-503q0 -104 -78 -152q-25 -15 -96 -42z" />
<glyph unicode="&#x14b;" horiz-adv-x="554" d="M330 -224l-33 73q28 16 43.5 27.5t30 34.5t14.5 52v335q0 28 -12 42t-41 14q-55 0 -120 -50v-216h66v-88h-245v88h66v255h-66v89h176v-54q80 65 160 65q61 0 95 -34.5t34 -99.5v-347q0 -44 -12.5 -75.5t-41.5 -53t-50 -31.5t-64 -26z" />
<glyph unicode="&#x14c;" horiz-adv-x="700" d="M350 -12q-139 0 -228 88t-89 228t89 228.5t228 88.5t228 -88.5t89 -228.5t-89 -228t-228 -88zM350 85q87 0 142.5 59t55.5 160q0 100 -56 160t-142 60q-87 0 -142.5 -60t-55.5 -160q0 -101 55.5 -160t142.5 -59zM208 673v84h284v-84h-284z" />
<glyph unicode="&#x14d;" horiz-adv-x="514" d="M257 -11q-107 0 -167.5 62t-60.5 165t60.5 165t167.5 62t167.5 -62t60.5 -165t-60.5 -165t-167.5 -62zM257 74q55 0 83 39.5t28 102.5t-28 102.5t-83 39.5t-83 -39.5t-28 -102.5t28 -102.5t83 -39.5zM115 517v84h284v-84h-284z" />
<glyph unicode="&#x14e;" horiz-adv-x="700" d="M350 -12q-139 0 -228 88t-89 228t89 228.5t228 88.5t228 -88.5t89 -228.5t-89 -228t-228 -88zM350 85q87 0 142.5 59t55.5 160q0 100 -56 160t-142 60q-87 0 -142.5 -60t-55.5 -160q0 -101 55.5 -160t142.5 -59zM350 663q-68 0 -111 44.5t-46 111.5h81q10 -65 76 -65 t76 65h81q-3 -67 -46 -111.5t-111 -44.5z" />
<glyph unicode="&#x14f;" horiz-adv-x="514" d="M257 -11q-107 0 -167.5 62t-60.5 165t60.5 165t167.5 62t167.5 -62t60.5 -165t-60.5 -165t-167.5 -62zM257 74q55 0 83 39.5t28 102.5t-28 102.5t-83 39.5t-83 -39.5t-28 -102.5t28 -102.5t83 -39.5zM257 506q-68 0 -111 44.5t-46 111.5h81q10 -65 76 -65t76 65h81 q-3 -67 -46 -111.5t-111 -44.5z" />
<glyph unicode="&#x150;" horiz-adv-x="700" d="M350 -12q-139 0 -228 88t-89 228t89 228.5t228 88.5t228 -88.5t89 -228.5t-89 -228t-228 -88zM350 85q87 0 142.5 59t55.5 160q0 100 -56 160t-142 60q-87 0 -142.5 -60t-55.5 -160q0 -101 55.5 -160t142.5 -59zM237 663l-39 35l120 180l79 -74zM405 663l-39 35l120 180 l79 -74z" />
<glyph unicode="&#x151;" horiz-adv-x="514" d="M257 -11q-107 0 -167.5 62t-60.5 165t60.5 165t167.5 62t167.5 -62t60.5 -165t-60.5 -165t-167.5 -62zM257 74q55 0 83 39.5t28 102.5t-28 102.5t-83 39.5t-83 -39.5t-28 -102.5t28 -102.5t83 -39.5zM141 502l-39 35l120 180l79 -74zM309 502l-39 35l120 180l79 -74z" />
<glyph unicode="&#x152;" horiz-adv-x="865" d="M342 0q-142 0 -224 81t-82 223q0 141 82.5 223t223.5 82h478v-175h-107v83h-183v-165h215v-92h-215v-168h186v87h108v-179h-482zM344 95h73v419h-73q-91 0 -140 -57t-49 -153t49.5 -152.5t139.5 -56.5z" />
<glyph unicode="&#x153;" horiz-adv-x="800" d="M248 -11q-101 0 -160 62.5t-59 164.5t59 164.5t162 62.5q113 0 172 -77q52 77 159 77q95 0 144.5 -60t49.5 -155q0 -27 -4 -48h-290q17 -105 130 -105q63 0 139 40v-87q-70 -39 -154 -39q-120 0 -174 79q-61 -79 -174 -79zM255 74q55 0 83 39.5t28 102.5t-28 102.5 t-83 39.5t-83 -39.5t-28 -102.5t28 -102.5t83 -39.5zM581 361q-86 0 -101 -102h191q-8 102 -90 102z" />
<glyph unicode="&#x154;" horiz-adv-x="650" d="M267 660l-37 46l159 166l74 -94zM40 0v92h82v425h-82v92h294q125 0 186.5 -56.5t61.5 -135.5q0 -56 -31.5 -99.5t-91.5 -63.5l92 -162h75v-92h-154l-125 223h-109v-131h82v-92h-280zM238 313h98q68 0 98.5 29t30.5 73t-31 73t-98 29h-98v-204z" />
<glyph unicode="&#x155;" horiz-adv-x="374" d="M33 0v88h66v256h-66v88h175v-79q48 90 143 90h9v-114h-18q-85 0 -130 -28v-213h75v-88h-254zM147 503l-37 46l159 166l74 -94z" />
<glyph unicode="&#x156;" horiz-adv-x="650" d="M361 -60q35 0 51.5 -22t16.5 -52q0 -41 -29 -84t-74 -78l-47 37q15 18 23 28.5t16.5 31t8.5 41.5q0 42 -38 70v6q32 22 72 22zM40 0v92h82v425h-82v92h294q125 0 186.5 -56.5t61.5 -135.5q0 -56 -31.5 -99.5t-91.5 -63.5l92 -162h75v-92h-154l-125 223h-109v-131h82v-92 h-280zM238 313h98q68 0 98.5 29t30.5 73t-31 73t-98 29h-98v-204z" />
<glyph unicode="&#x157;" horiz-adv-x="374" d="M165 -60q35 0 51.5 -22t16.5 -52q0 -41 -29 -84t-74 -78l-47 37q15 18 23 28.5t16.5 31t8.5 41.5q0 42 -38 70v6q32 22 72 22zM33 0v88h66v256h-66v88h175v-79q48 90 143 90h9v-114h-18q-85 0 -130 -28v-213h75v-88h-254z" />
<glyph unicode="&#x158;" horiz-adv-x="650" d="M279 660l-135 139l24 33l148 -67l149 67l24 -33l-136 -139h-74zM40 0v92h82v425h-82v92h294q125 0 186.5 -56.5t61.5 -135.5q0 -56 -31.5 -99.5t-91.5 -63.5l92 -162h75v-92h-154l-125 223h-109v-131h82v-92h-280zM238 313h98q68 0 98.5 29t30.5 73t-31 73t-98 29h-98 v-204z" />
<glyph unicode="&#x159;" horiz-adv-x="374" d="M33 0v88h66v256h-66v88h175v-79q48 90 143 90h9v-114h-18q-85 0 -130 -28v-213h75v-88h-254zM162 504l-135 139l24 33l148 -67l149 67l24 -33l-136 -139h-74z" />
<glyph unicode="&#x15a;" horiz-adv-x="528" d="M258 -12q-88 0 -216 33v152h104v-80q57 -13 105 -13q126 0 126 76q0 38 -33.5 61t-81.5 36.5t-96.5 31.5t-82 57.5t-33.5 101.5q0 90 64.5 133.5t163.5 43.5q97 0 194 -33v-149h-106v82q-53 8 -85 8q-51 0 -85 -17t-34 -56q0 -26 18 -44.5t47 -30t63.5 -22t69.5 -24.5 t64 -34t47 -55t18 -82q0 -93 -64.5 -134.5t-166.5 -41.5zM218 663l-37 46l159 166l74 -94z" />
<glyph unicode="&#x15b;" horiz-adv-x="415" d="M206 -11q-92 0 -171 24v122h90v-54q38 -10 80 -10q36 0 53.5 12t17.5 30q0 21 -24.5 34t-59 22t-69.5 22.5t-59.5 43t-24.5 74.5q0 61 44 97.5t130 36.5q76 0 153 -24v-122h-91v59q-29 6 -61 6q-67 0 -67 -41q0 -22 24.5 -36t59.5 -23t70 -22t59.5 -43t24.5 -76 q0 -132 -179 -132zM150 503l-37 46l159 166l74 -94z" />
<glyph unicode="&#x15c;" horiz-adv-x="528" d="M258 -12q-88 0 -216 33v152h104v-80q57 -13 105 -13q126 0 126 76q0 38 -33.5 61t-81.5 36.5t-96.5 31.5t-82 57.5t-33.5 101.5q0 90 64.5 133.5t163.5 43.5q97 0 194 -33v-149h-106v82q-53 8 -85 8q-51 0 -85 -17t-34 -56q0 -26 18 -44.5t47 -30t63.5 -22t69.5 -24.5 t64 -34t47 -55t18 -82q0 -93 -64.5 -134.5t-166.5 -41.5zM124 663l-24 33l135 139h74l136 -139l-24 -33l-149 67z" />
<glyph unicode="&#x15d;" horiz-adv-x="415" d="M206 -11q-92 0 -171 24v122h90v-54q38 -10 80 -10q36 0 53.5 12t17.5 30q0 21 -24.5 34t-59 22t-69.5 22.5t-59.5 43t-24.5 74.5q0 61 44 97.5t130 36.5q76 0 153 -24v-122h-91v59q-29 6 -61 6q-67 0 -67 -41q0 -22 24.5 -36t59.5 -23t70 -22t59.5 -43t24.5 -76 q0 -132 -179 -132zM66 498l-24 33l135 139h74l136 -139l-24 -33l-149 67z" />
<glyph unicode="&#x15e;" horiz-adv-x="528" d="M230 -208q-42 0 -77 7l14 63q32 -6 57 -6q46 0 46 27q0 33 -69 33v21l26 52q-80 5 -185 32v152h104v-80q57 -13 105 -13q126 0 126 76q0 38 -33.5 61t-81.5 36.5t-96.5 31.5t-82 57.5t-33.5 101.5q0 90 64.5 133.5t163.5 43.5q97 0 194 -33v-149h-106v82q-53 8 -85 8 q-51 0 -85 -17t-34 -56q0 -26 18 -44.5t47 -30t63.5 -22t69.5 -24.5t64 -34t47 -55t18 -82q0 -160 -197 -175l-11 -25q37 -2 61 -24t24 -58q0 -44 -38 -67t-98 -23z" />
<glyph unicode="&#x15f;" horiz-adv-x="414" d="M172 -208q-42 0 -77 7l14 63q32 -6 57 -6q46 0 46 27q0 33 -69 33v21l27 53q-80 6 -135 23v122h90v-54q38 -10 80 -10q36 0 53.5 12t17.5 30q0 21 -24.5 34t-59 22t-69.5 22.5t-59.5 43t-24.5 74.5q0 61 44 97.5t130 36.5q76 0 153 -24v-122h-91v59q-29 6 -61 6 q-67 0 -67 -41q0 -22 24.5 -36t59.5 -23t70 -22t59.5 -43t24.5 -76q0 -120 -151 -131l-11 -26q37 -2 61 -24t24 -58q0 -44 -38 -67t-98 -23z" />
<glyph unicode="&#x160;" horiz-adv-x="528" d="M258 -12q-88 0 -216 33v152h104v-80q57 -13 105 -13q126 0 126 76q0 38 -33.5 61t-81.5 36.5t-96.5 31.5t-82 57.5t-33.5 101.5q0 90 64.5 133.5t163.5 43.5q97 0 194 -33v-149h-106v82q-53 8 -85 8q-51 0 -85 -17t-34 -56q0 -26 18 -44.5t47 -30t63.5 -22t69.5 -24.5 t64 -34t47 -55t18 -82q0 -93 -64.5 -134.5t-166.5 -41.5zM232 663l-135 139l24 33l148 -67l149 67l24 -33l-136 -139h-74z" />
<glyph unicode="&#x161;" horiz-adv-x="414" d="M206 -11q-92 0 -171 24v122h90v-54q38 -10 80 -10q36 0 53.5 12t17.5 30q0 21 -24.5 34t-59 22t-69.5 22.5t-59.5 43t-24.5 74.5q0 61 44 97.5t130 36.5q76 0 153 -24v-122h-91v59q-29 6 -61 6q-67 0 -67 -41q0 -22 24.5 -36t59.5 -23t70 -22t59.5 -43t24.5 -76 q0 -132 -179 -132zM170 504l-135 139l24 33l148 -67l149 67l24 -33l-136 -139h-74z" />
<glyph unicode="&#x162;" horiz-adv-x="590" d="M303 -60q35 0 51.5 -22t16.5 -52q0 -41 -29 -84t-74 -78l-47 37q15 18 23 28.5t16.5 31t8.5 41.5q0 42 -38 70v6q32 22 72 22zM147 0v92h90v425h-114v-93h-105v185h554v-185h-105v93h-114v-425h90v-92h-296z" />
<glyph unicode="&#x163;" horiz-adv-x="339" d="M205 -60q35 0 51.5 -22t16.5 -52q0 -41 -29 -84t-74 -78l-47 37q15 18 23 28.5t16.5 31t8.5 41.5q0 42 -38 70v6q32 22 72 22zM218 -11q-76 0 -105.5 33t-29.5 97v224h-75v89h75v110h113v-110h118v-89h-118v-218q0 -29 14.5 -39t43.5 -10q36 0 67 11v-83 q-56 -15 -103 -15z" />
<glyph unicode="&#x164;" horiz-adv-x="590" d="M147 0v92h90v425h-114v-93h-105v185h554v-185h-105v93h-114v-425h90v-92h-296zM258 660l-135 139l24 33l148 -67l149 67l24 -33l-136 -139h-74z" />
<glyph unicode="&#x165;" horiz-adv-x="339" d="M320 711q35 0 51.5 -22t16.5 -52q0 -41 -29 -84t-74 -78l-47 37q15 18 23 28.5t16.5 31t8.5 41.5q0 42 -38 70v6q32 22 72 22zM218 -11q-76 0 -105.5 33t-29.5 97v224h-75v89h75v110h113v-110h118v-89h-118v-218q0 -29 14.5 -39t43.5 -10q36 0 67 11v-83 q-56 -15 -103 -15z" />
<glyph unicode="&#x166;" horiz-adv-x="592" d="M118 251v76h120v190h-114v-93h-105v185h554v-185h-105v93h-114v-190h120v-76h-120v-159h90v-92h-296v92h90v159h-120z" />
<glyph unicode="&#x167;" horiz-adv-x="344" d="M27 189v78h60v76h-75v89h75v110h113v-110h118v-89h-118v-76h106v-78h-106v-64q0 -29 14.5 -39t43.5 -10q36 0 67 11v-83q-56 -15 -103 -15q-76 0 -105.5 33t-29.5 97v70h-60z" />
<glyph unicode="&#x168;" horiz-adv-x="698" d="M350 -12q-106 0 -177 54t-71 165v310h-82v92h280v-92h-82v-299q0 -66 37.5 -96t98.5 -30t98 30.5t37 96.5v298h-85v92h275v-92h-82v-300q0 -107 -66 -168t-181 -61zM215 664l-41 21q13 35 24 57t35 43.5t53 21.5q26 0 70 -23t67 -23q41 0 66 49l41 -22q-22 -53 -49 -87.5 t-67 -34.5q-26 0 -71.5 23t-63.5 23q-39 0 -64 -48z" />
<glyph unicode="&#x169;" d="M212 -11q-60 0 -94.5 34.5t-34.5 99.5v221h-67v88h180v-298q0 -28 12 -42t41 -14q56 0 120 49v217h-75v88h188v-344h66v-88h-176v53q-79 -64 -160 -64zM130 502l-41 21q13 35 24 57t35 43.5t53 21.5q26 0 70 -23t67 -23q42 0 66 49l41 -22q-22 -53 -49 -87.5t-67 -34.5 q-26 0 -71.5 23t-63.5 23q-38 0 -64 -48z" />
<glyph unicode="&#x16a;" horiz-adv-x="698" d="M350 -12q-106 0 -177 54t-71 165v310h-82v92h280v-92h-82v-299q0 -66 37.5 -96t98.5 -30t98 30.5t37 96.5v298h-85v92h275v-92h-82v-300q0 -107 -66 -168t-181 -61zM210 670v84h284v-84h-284z" />
<glyph unicode="&#x16b;" d="M212 -11q-60 0 -94.5 34.5t-34.5 99.5v221h-67v88h180v-298q0 -28 12 -42t41 -14q56 0 120 49v217h-75v88h188v-344h66v-88h-176v53q-79 -64 -160 -64zM118 517v84h284v-84h-284z" />
<glyph unicode="&#x16c;" horiz-adv-x="698" d="M350 -12q-106 0 -177 54t-71 165v310h-82v92h280v-92h-82v-299q0 -66 37.5 -96t98.5 -30t98 30.5t37 96.5v298h-85v92h275v-92h-82v-300q0 -107 -66 -168t-181 -61zM352 660q-68 0 -111 44.5t-46 111.5h81q10 -65 76 -65t76 65h81q-3 -67 -46 -111.5t-111 -44.5z" />
<glyph unicode="&#x16d;" d="M212 -11q-60 0 -94.5 34.5t-34.5 99.5v221h-67v88h180v-298q0 -28 12 -42t41 -14q56 0 120 49v217h-75v88h188v-344h66v-88h-176v53q-79 -64 -160 -64zM261 506q-68 0 -111 44.5t-46 111.5h81q10 -65 76 -65t76 65h81q-3 -67 -46 -111.5t-111 -44.5z" />
<glyph unicode="&#x16e;" horiz-adv-x="698" d="M350 -12q-106 0 -177 54t-71 165v310h-82v92h280v-92h-82v-299q0 -66 37.5 -96t98.5 -30t98 30.5t37 96.5v298h-85v92h275v-92h-82v-300q0 -107 -66 -168t-181 -61zM352 656q-59 0 -92 32t-33 80t33 80t92 32t92 -32t33 -80t-33 -80t-92 -32zM352 717q20 0 31 14.5 t11 36.5q0 21 -11 35.5t-31 14.5t-31 -14.5t-11 -35.5q0 -22 11 -36.5t31 -14.5z" />
<glyph unicode="&#x16f;" d="M212 -11q-60 0 -94.5 34.5t-34.5 99.5v221h-67v88h180v-298q0 -28 12 -42t41 -14q56 0 120 49v217h-75v88h188v-344h66v-88h-176v53q-79 -64 -160 -64zM262 498q-59 0 -92 32t-33 80t33 80t92 32t92 -32t33 -80t-33 -80t-92 -32zM262 559q20 0 31 14.5t11 36.5 q0 21 -11 35.5t-31 14.5t-31 -14.5t-11 -35.5q0 -22 11 -36.5t31 -14.5z" />
<glyph unicode="&#x170;" horiz-adv-x="698" d="M350 -12q-106 0 -177 54t-71 165v310h-82v92h280v-92h-82v-299q0 -66 37.5 -96t98.5 -30t98 30.5t37 96.5v298h-85v92h275v-92h-82v-300q0 -107 -66 -168t-181 -61zM236 660l-39 35l120 180l79 -74zM404 660l-39 35l120 180l79 -74z" />
<glyph unicode="&#x171;" d="M212 -11q-60 0 -94.5 34.5t-34.5 99.5v221h-67v88h180v-298q0 -28 12 -42t41 -14q56 0 120 49v217h-75v88h188v-344h66v-88h-176v53q-79 -64 -160 -64zM144 502l-39 35l120 180l79 -74zM312 502l-39 35l120 180l79 -74z" />
<glyph unicode="&#x172;" horiz-adv-x="701" d="M428 -208q-48 0 -79 22.5t-31 66.5q0 60 66 109q-22 -2 -37 -2q-48 0 -90.5 12.5t-78 37.5t-56 68.5t-20.5 100.5v310h-82v92h280v-92h-82v-299q0 -66 37.5 -96t98.5 -30t98 30.5t37 96.5v298h-85v92h275v-92h-82v-300q0 -53 -17.5 -95t-33.5 -58.5t-39 -33.5 q-89 -66 -89 -128q0 -40 41 -40q27 0 57 14l7 -65q-46 -19 -95 -19z" />
<glyph unicode="&#x173;" d="M466 -208q-48 0 -79 22.5t-31 65.5q0 65 81 120h-65v53q-79 -64 -160 -64q-60 0 -94.5 34.5t-34.5 99.5v221h-67v88h180v-298q0 -28 12 -42t41 -14q56 0 120 49v217h-75v88h188v-344h66v-88h-34q-58 -49 -58 -101q0 -37 41 -37q27 0 57 14l7 -65q-46 -19 -95 -19z" />
<glyph unicode="&#x174;" horiz-adv-x="938" d="M236 0l-169 517h-68v92h268v-92h-86l117 -383l122 355l-10 28h-77v92h273v-92h-87l122 -379l115 379h-85v92h268v-92h-69l-168 -517h-113l-117 337l-123 -337h-113zM316 660l-24 33l135 139h74l136 -139l-24 -33l-149 67z" />
<glyph unicode="&#x175;" horiz-adv-x="736" d="M176 0l-117 347h-52v85h221v-85h-65l64 -215l95 300h98l96 -301l63 216h-65v85h215v-85h-57l-108 -347h-98l-99 280l-92 -280h-99zM222 498l-24 33l135 139h74l136 -139l-24 -33l-149 67z" />
<glyph unicode="&#x176;" horiz-adv-x="638" d="M176 0v92h86v118l-197 307h-70v92h284v-91h-87l128 -204l129 204h-87v91h277v-92h-67l-194 -301v-124h86v-92h-288zM172 660l-24 33l135 139h74l136 -139l-24 -33l-149 67z" />
<glyph unicode="&#x177;" horiz-adv-x="519" d="M170 -210q-67 0 -121 33l32 75q42 -22 73 -22q51 0 67 50l23 74h-83l-100 345h-51v87h225v-88h-58l80 -304l98 304h-59v88h218v-87h-49l-145 -433q-20 -61 -56 -91.5t-94 -30.5zM115 498l-24 33l135 139h74l136 -139l-24 -33l-149 67z" />
<glyph unicode="&#x178;" horiz-adv-x="638" d="M176 0v92h86v118l-197 307h-70v92h284v-91h-87l128 -204l129 204h-87v91h277v-92h-67l-194 -301v-124h86v-92h-288zM224 664q-27 0 -46 19t-19 46t19 46t46 19t46 -19t19 -46t-19 -46t-46 -19zM418 664q-27 0 -46 19t-19 46t19 46t46 19t46 -19t19 -46t-19 -46t-46 -19z " />
<glyph unicode="&#x179;" horiz-adv-x="583" d="M39 0v100l349 412h-233v-98h-107v195h482v-102l-348 -410h256v103h107v-200h-506zM234 660l-37 46l159 166l74 -94z" />
<glyph unicode="&#x17a;" horiz-adv-x="447" d="M34 0v70l228 283h-130v-77h-93v156h364v-68l-232 -285h150v85h91v-164h-378zM168 503l-37 46l159 166l74 -94z" />
<glyph unicode="&#x17b;" horiz-adv-x="583" d="M39 0v100l349 412h-233v-98h-107v195h482v-102l-348 -410h256v103h107v-200h-506zM292 664q-29 0 -49.5 20.5t-20.5 49.5t20.5 49.5t49.5 20.5t49.5 -20.5t20.5 -49.5t-20.5 -49.5t-49.5 -20.5z" />
<glyph unicode="&#x17c;" horiz-adv-x="447" d="M34 0v70l228 283h-130v-77h-93v156h364v-68l-232 -285h150v85h91v-164h-378zM225 501q-29 0 -49.5 20.5t-20.5 49.5t20.5 49.5t49.5 20.5t49.5 -20.5t20.5 -49.5t-20.5 -49.5t-49.5 -20.5z" />
<glyph unicode="&#x17d;" horiz-adv-x="583" d="M39 0v100l349 412h-233v-98h-107v195h482v-102l-348 -410h256v103h107v-200h-506zM254 660l-135 139l24 33l148 -67l149 67l24 -33l-136 -139h-74z" />
<glyph unicode="&#x17e;" horiz-adv-x="447" d="M34 0v70l228 283h-130v-77h-93v156h364v-68l-232 -285h150v85h91v-164h-378zM186 504l-135 139l24 33l148 -67l149 67l24 -33l-136 -139h-74z" />
<glyph unicode="&#x17f;" horiz-adv-x="318" d="M38 0v88h71v255h-83v89h83v127q0 84 45.5 121.5t119.5 37.5q34 0 84 -9v-83q-28 5 -55 5q-38 0 -59.5 -15.5t-21.5 -58.5v-469h87v-88h-271z" />
<glyph unicode="&#x1fc;" horiz-adv-x="932" d="M-3 0v94h68l281 424h-64v91h605v-172h-107v80h-183v-165h215v-92h-215v-168h186v84h108v-176h-487v92h80v92h-238l-60 -92h58v-92h-247zM463 517l-158 -242h179v242h-21zM538 660l-37 46l159 166l74 -94z" />
<glyph unicode="&#x1fd;" horiz-adv-x="720" d="M176 -11q-71 0 -113 35t-42 98q0 133 201 133h71v27q0 40 -20.5 58t-70.5 18q-68 0 -145 -29v87q79 27 162 27q103 0 146 -52q54 52 138 52q93 0 142.5 -60.5t49.5 -154.5q0 -27 -4 -48h-289q15 -105 129 -105q61 0 137 40v-87q-70 -39 -153 -39q-112 0 -169 68 q-81 -68 -170 -68zM201 72q60 0 111 45q-10 29 -13 68h-72q-93 0 -93 -58q0 -55 67 -55zM501 363q-46 0 -70 -30t-30 -76h188q-4 106 -88 106zM320 503l-37 46l159 166l74 -94z" />
<glyph unicode="&#x1fe;" horiz-adv-x="700" d="M350 -12q-106 0 -184 52l-53 -66l-39 31l53 65q-94 89 -94 234q0 140 89 228.5t228 88.5q104 0 183 -53l54 67l38 -32l-53 -65q95 -90 95 -234q0 -140 -89 -228t-228 -88zM350 85q87 0 142.5 59t55.5 160q0 89 -46 148l-270 -331q50 -36 118 -36zM350 524 q-87 0 -142.5 -60t-55.5 -160q0 -91 45 -148l269 331q-49 37 -116 37zM286 663l-37 46l159 166l74 -94z" />
<glyph unicode="&#x1ff;" horiz-adv-x="511" d="M255 -11q-83 0 -138 37l-42 -49l-31 26l42 49q-59 61 -59 164t60.5 165t167.5 62q81 0 138 -38l42 49l30 -26l-42 -48q60 -62 60 -164q0 -103 -60.5 -165t-167.5 -62zM255 74q55 0 83 39.5t28 102.5q0 46 -15 80l-169 -195q29 -27 73 -27zM255 358q-55 0 -83 -39.5 t-28 -102.5q0 -46 15 -80l169 194q-28 28 -73 28zM190 503l-37 46l159 166l74 -94z" />
<glyph unicode="&#x218;" horiz-adv-x="528" d="M282 -63q35 0 51.5 -22t16.5 -52q0 -41 -29 -84t-74 -78l-47 37q15 18 23 28.5t16.5 31t8.5 41.5q0 42 -38 70v6q32 22 72 22zM258 -12q-88 0 -216 33v152h104v-80q57 -13 105 -13q126 0 126 76q0 38 -33.5 61t-81.5 36.5t-96.5 31.5t-82 57.5t-33.5 101.5 q0 90 64.5 133.5t163.5 43.5q97 0 194 -33v-149h-106v82q-53 8 -85 8q-51 0 -85 -17t-34 -56q0 -26 18 -44.5t47 -30t63.5 -22t69.5 -24.5t64 -34t47 -55t18 -82q0 -93 -64.5 -134.5t-166.5 -41.5z" />
<glyph unicode="&#x219;" horiz-adv-x="415" d="M219 -63q35 0 51.5 -22t16.5 -52q0 -41 -29 -84t-74 -78l-47 37q15 18 23 28.5t16.5 31t8.5 41.5q0 42 -38 70v6q32 22 72 22zM206 -11q-92 0 -171 24v122h90v-54q38 -10 80 -10q36 0 53.5 12t17.5 30q0 21 -24.5 34t-59 22t-69.5 22.5t-59.5 43t-24.5 74.5q0 61 44 97.5 t130 36.5q76 0 153 -24v-122h-91v59q-29 6 -61 6q-67 0 -67 -41q0 -22 24.5 -36t59.5 -23t70 -22t59.5 -43t24.5 -76q0 -132 -179 -132z" />
<glyph unicode="&#x21a;" horiz-adv-x="590" d="M303 -60q35 0 51.5 -22t16.5 -52q0 -41 -29 -84t-74 -78l-47 37q15 18 23 28.5t16.5 31t8.5 41.5q0 42 -38 70v6q32 22 72 22zM147 0v92h90v425h-114v-93h-105v185h554v-185h-105v93h-114v-425h90v-92h-296z" />
<glyph unicode="&#x21b;" horiz-adv-x="339" d="M205 -60q35 0 51.5 -22t16.5 -52q0 -41 -29 -84t-74 -78l-47 37q15 18 23 28.5t16.5 31t8.5 41.5q0 42 -38 70v6q32 22 72 22zM218 -11q-76 0 -105.5 33t-29.5 97v224h-75v89h75v110h113v-110h118v-89h-118v-218q0 -29 14.5 -39t43.5 -10q36 0 67 11v-83 q-56 -15 -103 -15z" />
<glyph unicode="&#x237;" horiz-adv-x="262" d="M33 -224l-33 73q28 16 43.5 27.5t30 34.5t14.5 52v381h-70v88h183v-470q0 -44 -12.5 -75.5t-41.5 -53t-50 -31.5t-64 -26z" />
<glyph unicode="&#x2c6;" horiz-adv-x="434" d="M75 498l-24 33l135 139h74l136 -139l-24 -33l-149 67z" />
<glyph unicode="&#x2c7;" horiz-adv-x="436" d="M181 504l-135 139l24 33l148 -67l149 67l24 -33l-136 -139h-74z" />
<glyph unicode="&#x2d8;" horiz-adv-x="386" d="M192 506q-68 0 -111 44.5t-46 111.5h81q10 -65 76 -65t76 65h81q-3 -67 -46 -111.5t-111 -44.5z" />
<glyph unicode="&#x2d9;" horiz-adv-x="239" d="M119 501q-29 0 -49.5 20.5t-20.5 49.5t20.5 49.5t49.5 20.5t49.5 -20.5t20.5 -49.5t-20.5 -49.5t-49.5 -20.5z" />
<glyph unicode="&#x2da;" horiz-adv-x="352" d="M175 498q-59 0 -92 32t-33 80t33 80t92 32t92 -32t33 -80t-33 -80t-92 -32zM175 559q20 0 31 14.5t11 36.5q0 21 -11 35.5t-31 14.5t-31 -14.5t-11 -35.5q0 -22 11 -36.5t31 -14.5z" />
<glyph unicode="&#x2db;" horiz-adv-x="297" d="M155 -208q-48 0 -79 22.5t-31 65.5q0 51 40.5 87.5t113.5 74.5l30 -22q-36 -25 -60 -57.5t-24 -63.5q0 -37 41 -37q27 0 57 14l7 -65q-46 -19 -95 -19z" />
<glyph unicode="&#x2dc;" horiz-adv-x="466" d="M95 502l-41 21q13 35 24 57t35 43.5t53 21.5q26 0 70 -23t67 -23q41 0 66 49l41 -22q-22 -53 -49 -87.5t-67 -34.5q-26 0 -71.5 23t-63.5 23q-39 0 -64 -48z" />
<glyph unicode="&#x2dd;" horiz-adv-x="515" d="M103 502l-39 35l120 180l79 -74zM271 502l-39 35l120 180l79 -74z" />
<glyph unicode="&#x2013;" horiz-adv-x="655" d="M53 186v95h549v-95h-549z" />
<glyph unicode="&#x2014;" horiz-adv-x="880" d="M53 186v95h774v-95h-774z" />
<glyph unicode="&#x2018;" horiz-adv-x="221" d="M102 386q-30 0 -49 21.5t-19 53.5q0 42 33.5 95.5t75.5 86.5l45 -38q-44 -47 -59 -91q43 -14 43 -59q0 -29 -20 -49t-50 -20z" />
<glyph unicode="&#x2019;" horiz-adv-x="218" d="M121 643q30 0 49 -21.5t19 -53.5q0 -42 -33.5 -95.5t-75.5 -86.5l-45 38q44 47 59 91q-43 14 -43 59q0 29 20 49t50 20z" />
<glyph unicode="&#x201a;" horiz-adv-x="222" d="M111 128q30 0 49 -21.5t19 -53.5q0 -42 -33.5 -95.5t-75.5 -86.5l-45 38q44 47 59 91q-43 14 -43 59q0 29 20 49t50 20z" />
<glyph unicode="&#x201c;" horiz-adv-x="410" d="M291 386q-30 0 -49 21.5t-19 53.5q0 42 33.5 95.5t75.5 86.5l45 -38q-44 -47 -59 -91q43 -14 43 -59q0 -29 -20 -49t-50 -20zM102 386q-30 0 -49 21.5t-19 53.5q0 42 33.5 95.5t75.5 86.5l45 -38q-44 -47 -59 -91q43 -14 43 -59q0 -29 -20 -49t-50 -20z" />
<glyph unicode="&#x201d;" horiz-adv-x="407" d="M121 643q30 0 49 -21.5t19 -53.5q0 -42 -33.5 -95.5t-75.5 -86.5l-45 38q44 47 59 91q-43 14 -43 59q0 29 20 49t50 20zM310 643q30 0 49 -21.5t19 -53.5q0 -42 -33.5 -95.5t-75.5 -86.5l-45 38q44 47 59 91q-43 14 -43 59q0 29 20 49t50 20z" />
<glyph unicode="&#x201e;" horiz-adv-x="411" d="M300 128q30 0 49 -21.5t19 -53.5q0 -42 -33.5 -95.5t-75.5 -86.5l-45 38q44 47 59 91q-43 14 -43 59q0 29 20 49t50 20zM111 128q30 0 49 -21.5t19 -53.5q0 -42 -33.5 -95.5t-75.5 -86.5l-45 38q44 47 59 91q-43 14 -43 59q0 29 20 49t50 20z" />
<glyph unicode="&#x2020;" horiz-adv-x="470" d="M235 -102q-9 0 -14.5 6t-6.5 17t-1 20.5t1 22.5t1 18q0 80 -11 173t-25 124q3 5 11.5 19t12.5 21.5t8 19t4 20.5q0 19 -12.5 32t-32.5 13t-48.5 -12.5t-46.5 -12.5q-24 0 -37 12.5t-13 31.5q0 20 13 32t37 12q18 0 46.5 -12.5t48.5 -12.5q19 0 32 13t13 33t-12.5 49 t-12.5 45q0 25 12.5 38.5t32.5 13.5t32.5 -13.5t12.5 -38.5q0 -16 -12.5 -45t-12.5 -49t13 -33t32 -13q20 0 48.5 12.5t46.5 12.5q24 0 37 -12t13 -32q0 -19 -13 -31.5t-37 -12.5q-18 0 -46.5 12.5t-48.5 12.5t-32.5 -13t-12.5 -32q0 -9 4 -20.5t8 -19t12.5 -21.5t11.5 -19 q-14 -31 -25 -124t-11 -173q0 -3 1 -15.5t1.5 -22.5t-1 -21t-7 -17.5t-14.5 -7.5z" />
<glyph unicode="&#x2021;" horiz-adv-x="502" d="M251 -102q-20 0 -32.5 13.5t-12.5 38.5q0 16 12.5 45t12.5 49t-13 33t-32 13q-20 0 -48.5 -12.5t-46.5 -12.5q-24 0 -37 12t-13 32q0 19 13 31.5t37 12.5q18 0 46.5 -12.5t48.5 -12.5t32.5 13t12.5 32q0 31 -36 93q36 62 36 93q0 19 -12.5 32t-32.5 13t-48.5 -12.5 t-46.5 -12.5q-24 0 -37 12.5t-13 31.5q0 20 13 32t37 12q18 0 46.5 -12.5t48.5 -12.5q19 0 32 13t13 33t-12.5 49t-12.5 45q0 25 12.5 38.5t32.5 13.5t32.5 -13.5t12.5 -38.5q0 -16 -12.5 -45t-12.5 -49t13 -33t32 -13q20 0 48.5 12.5t46.5 12.5q24 0 37 -12t13 -32 q0 -19 -13 -31.5t-37 -12.5q-18 0 -46.5 12.5t-48.5 12.5t-32.5 -13t-12.5 -32q0 -31 36 -93q-36 -62 -36 -93q0 -19 12.5 -32t32.5 -13t48.5 12.5t46.5 12.5q24 0 37 -12.5t13 -31.5q0 -20 -13 -32t-37 -12q-18 0 -46.5 12.5t-48.5 12.5q-19 0 -32 -13t-13 -33t12.5 -49 t12.5 -45q0 -25 -12.5 -38.5t-32.5 -13.5z" />
<glyph unicode="&#x2022;" horiz-adv-x="368" d="M184 176q-50 0 -86 35.5t-36 85.5t36 85.5t86 35.5t86 -35.5t36 -85.5t-36 -85.5t-86 -35.5z" />
<glyph unicode="&#x2026;" horiz-adv-x="792" d="M110 -10q-28 0 -48.5 20t-20.5 49t20.5 49t48.5 20t48.5 -20t20.5 -49t-20.5 -49t-48.5 -20zM396 -10q-28 0 -48.5 20t-20.5 49t20.5 49t48.5 20t48.5 -20t20.5 -49t-20.5 -49t-48.5 -20zM682 -10q-28 0 -48.5 20t-20.5 49t20.5 49t48.5 20t48.5 -20t20.5 -49t-20.5 -49 t-48.5 -20z" />
<glyph unicode="&#x2030;" horiz-adv-x="932" d="M493 0q-60 0 -92 34.5t-32 93.5t32 93.5t92 34.5t92 -34.5t32 -93.5t-32 -93.5t-92 -34.5zM493 58q46 0 46 70t-46 70t-46 -70t46 -70zM168 232q-60 0 -92 34.5t-32 93.5t32 93.5t92 34.5t92 -34.5t32 -93.5t-32 -93.5t-92 -34.5zM168 290q46 0 46 70t-46 70t-46 -70 t46 -70zM778 0q-60 0 -92 34.5t-32 93.5t32 93.5t92 34.5t92 -34.5t32 -93.5t-32 -93.5t-92 -34.5zM778 58q46 0 46 70t-46 70t-46 -70t46 -70zM155 -4l-51 44l402 451l51 -44z" />
<glyph unicode="&#x2039;" horiz-adv-x="332" d="M182 67l-155 188v4l155 188h121l-162 -190l162 -190h-121z" />
<glyph unicode="&#x203a;" horiz-adv-x="332" d="M29 67l162 190l-162 190h121l155 -188v-4l-155 -188h-121z" />
<glyph unicode="&#x2044;" horiz-adv-x="383" d="M54 -21l-62 33l337 618l62 -33z" />
<glyph unicode="&#x20ac;" horiz-adv-x="597" d="M362 -8q-105 0 -175 51t-88 145h-69l14 37h51q-1 8 -1 25q0 25 2 37h-66l14 37h58q21 90 91.5 138.5t169.5 48.5q93 0 177 -37v-141h-95v81q-33 9 -73 9q-126 0 -160 -99h182l-14 -37h-176q-2 -10 -2 -32q0 -12 2 -30h153l-14 -37h-132q34 -105 162 -105q79 0 165 44v-93 q-79 -42 -176 -42z" />
<glyph unicode="&#x2116;" horiz-adv-x="1059" d="M852 163q-78 0 -121.5 45t-43.5 119t43.5 119.5t121.5 45.5t122 -45.5t44 -119.5t-44 -119t-122 -45zM852 244q34 0 51 23t17 61q0 37 -17 60t-51 23q-33 0 -50 -23t-17 -60t17 -60.5t50 -23.5zM689 18v82h328v-82h-328zM44 0v88h80v433h-80v88h186l257 -420v332h-80v88 h258v-88h-80v-521h-89l-274 440v-352h80v-88h-258z" />
<glyph unicode="&#x2122;" horiz-adv-x="709" d="M323 358v37h30l5 177h-32v37h92l71 -157l70 157h90v-39h-32l5 -175h30v-37h-111v36h33l-3 140l-69 -145h-30l-69 149l-4 -143h34v-37h-110zM117 358v36h32v173h-45v-40h-43v82h231v-82h-43v40h-45v-173h31v-36h-118z" />
<glyph unicode="&#x2212;" horiz-adv-x="536" d="M55 197v86h426v-86h-426z" />
<glyph unicode="&#x2248;" horiz-adv-x="602" d="M102 270l-55 26q29 70 65 110.5t94 40.5q46 0 111.5 -38.5t94.5 -38.5q53 0 90 79l54 -27q-12 -30 -23 -52t-29 -47t-42 -38.5t-53 -13.5q-40 0 -106.5 40t-101.5 40q-60 0 -99 -81zM102 59l-55 26q29 70 65 110.5t94 40.5q46 0 111.5 -38.5t94.5 -38.5q53 0 90 79 l54 -27q-12 -30 -23 -52t-29 -47t-42 -38.5t-53 -13.5q-40 0 -106.5 40t-101.5 40q-60 0 -99 -81z" />
<glyph unicode="&#x2260;" horiz-adv-x="570" d="M165 -82l-54 25l66 141h-105v90h148l62 132h-210v90h253l79 167l54 -26l-67 -141h107v-90h-150l-62 -132h212v-90h-255z" />
<glyph unicode="&#x2264;" horiz-adv-x="503" d="M45 27v74h406v-74h-406zM451 118l-406 153v56l406 153v-86l-271 -95l271 -95v-86z" />
<glyph unicode="&#x2265;" horiz-adv-x="503" d="M52 27v74h406v-74h-406zM52 118v86l271 95l-271 95v86l406 -153v-56z" />
<glyph unicode="&#x25fc;" horiz-adv-x="430" d="M0 430h430v-430h-430v430z" />
<glyph unicode="&#xe04a;" horiz-adv-x="742" d="M291 0q-118 0 -187 64t-69 179t69 179.5t187 64.5h404v-149h-101v64h-145v-114h169v-85h-169v-118h148v68h102v-153h-408zM291 88h53v311h-51q-71 0 -108 -42t-37 -114q0 -70 37 -112.5t106 -42.5z" />
<glyph unicode="&#xefed;" horiz-adv-x="239" d="M119 664q-29 0 -49.5 20.5t-20.5 49.5t20.5 49.5t49.5 20.5t49.5 -20.5t20.5 -49.5t-20.5 -49.5t-49.5 -20.5z" />
<glyph unicode="&#xefee;" horiz-adv-x="386" d="M192 660q-68 0 -111 44.5t-46 111.5h81q10 -65 76 -65t76 65h81q-3 -67 -46 -111.5t-111 -44.5z" />
<glyph unicode="&#xeff1;" horiz-adv-x="297" d="M155 -208q-48 0 -79 22.5t-31 65.5q0 51 40.5 87.5t113.5 74.5l30 -22q-36 -25 -60 -57.5t-24 -63.5q0 -37 41 -37q27 0 57 14l7 -65q-46 -19 -95 -19z" />
<glyph unicode="&#xeff2;" horiz-adv-x="304" d="M111 -208q-42 0 -77 7l14 63q32 -6 57 -6q46 0 46 27q0 33 -69 33v21l57 112l56 -12l-33 -73q37 -2 61 -24t24 -58q0 -44 -38 -67t-98 -23z" />
<glyph unicode="&#xeff3;" horiz-adv-x="352" d="M175 656q-59 0 -92 32t-33 80t33 80t92 32t92 -32t33 -80t-33 -80t-92 -32zM175 717q20 0 31 14.5t11 36.5q0 21 -11 35.5t-31 14.5t-31 -14.5t-11 -35.5q0 -22 11 -36.5t31 -14.5z" />
<glyph unicode="&#xeff5;" horiz-adv-x="466" d="M95 664l-41 21q13 35 24 57t35 43.5t53 21.5q26 0 70 -23t67 -23q41 0 66 49l41 -22q-22 -53 -49 -87.5t-67 -34.5q-26 0 -71.5 23t-63.5 23q-39 0 -64 -48z" />
<glyph unicode="&#xeff7;" horiz-adv-x="434" d="M70 660l-24 33l135 139h74l136 -139l-24 -33l-149 67z" />
<glyph unicode="&#xf633;" horiz-adv-x="748" d="M334 113q-65 0 -103 44t-38 112q0 84 53 144.5t130 60.5q82 0 114 -66h3q11 37 18 50h62q-36 -139 -36 -213q0 -80 44 -80q34 0 59.5 41t25.5 110q0 122 -78 197.5t-196 75.5q-126 0 -214 -84.5t-88 -209.5q0 -122 84.5 -204.5t207.5 -82.5q89 0 168 50l28 -43 q-99 -59 -198 -59q-147 0 -245 101t-98 242q0 146 105.5 244t251.5 98q139 0 231.5 -91.5t92.5 -234.5q0 -97 -43 -149.5t-110 -52.5q-46 0 -68.5 22.5t-27.5 50.5h-4q-48 -73 -131 -73zM351 179q47 0 79.5 41.5t32.5 98.5q0 43 -19.5 66.5t-54.5 23.5q-47 0 -79 -40.5 t-32 -98.5q0 -43 19.5 -67t53.5 -24z" />
<glyph unicode="&#xf66d;" horiz-adv-x="586" d="M10 0v84h59l128 319h-61v84h226l162 -403h60v-84h-240v84h68l-23 61h-191l-24 -61h68v-84h-232zM230 229h127l-64 165zM283 537q-63 0 -103.5 41t-42.5 104h75q9 -61 71 -61q61 0 70 61h76q-3 -63 -43 -104t-103 -41z" />
<glyph unicode="&#xf66e;" horiz-adv-x="586" d="M10 0v84h59l128 319h-61v84h226l162 -403h60v-84h-240v84h68l-23 61h-191l-24 -61h68v-84h-232zM230 229h127l-64 165zM145 547v78h264v-78h-264z" />
<glyph unicode="&#xf66f;" horiz-adv-x="586" d="M490 -204q-46 0 -74.5 21t-28.5 61q0 67 89 122h-132v84h68l-23 61h-191l-24 -61h68v-84h-232v84h59l128 319h-61v84h226l162 -403h60v-84h-38q-66 -46 -66 -102q0 -37 38 -37q27 0 53 13l6 -61q-42 -17 -87 -17zM230 229h127l-64 165z" />
<glyph unicode="&#xf670;" horiz-adv-x="810" d="M10 0v86h56l216 317h-52v84h533v-149h-101v64h-145v-114h169v-85h-169v-118h148v68h102v-153h-415v84h60v62h-189l-42 -62h54v-84h-225zM395 403l-119 -177h136v177h-17zM449 530l-35 43l148 154l69 -87z" />
<glyph unicode="&#xf671;" horiz-adv-x="530" d="M305 -10q-124 0 -197.5 65t-73.5 184q0 123 77.5 190.5t194.5 67.5q94 0 187 -40v-144h-105v86q-42 10 -80 10q-73 0 -117 -43t-44 -119q0 -75 43.5 -121t125.5 -46q73 0 176 48v-93q-83 -45 -187 -45zM250 535l-35 43l148 154l69 -87z" />
<glyph unicode="&#xf672;" horiz-adv-x="530" d="M305 -10q-124 0 -197.5 65t-73.5 184q0 123 77.5 190.5t194.5 67.5q94 0 187 -40v-144h-105v86q-42 10 -80 10q-73 0 -117 -43t-44 -119q0 -75 43.5 -121t125.5 -46q73 0 176 48v-93q-83 -45 -187 -45zM263 541l-125 129l22 31l138 -63l138 63l23 -31l-127 -129h-69z" />
<glyph unicode="&#xf673;" horiz-adv-x="530" d="M305 -10q-124 0 -197.5 65t-73.5 184q0 123 77.5 190.5t194.5 67.5q94 0 187 -40v-144h-105v86q-42 10 -80 10q-73 0 -117 -43t-44 -119q0 -75 43.5 -121t125.5 -46q73 0 176 48v-93q-83 -45 -187 -45zM160 535l-23 31l126 129h69l126 -129l-22 -31l-139 62z" />
<glyph unicode="&#xf674;" horiz-adv-x="530" d="M305 -10q-124 0 -197.5 65t-73.5 184q0 123 77.5 190.5t194.5 67.5q94 0 187 -40v-144h-105v86q-42 10 -80 10q-73 0 -117 -43t-44 -119q0 -75 43.5 -121t125.5 -46q73 0 176 48v-93q-83 -45 -187 -45zM294 538q-28 0 -46.5 19t-18.5 46t18.5 46t46.5 19q27 0 46 -19 t19 -46t-19 -46t-46 -19z" />
<glyph unicode="&#xf675;" horiz-adv-x="585" d="M41 0v84h67v319h-67v84h232q139 0 208 -67t69 -176q0 -110 -69 -177t-208 -67h-232zM218 85h54q165 0 165 158q0 159 -165 159h-54v-317zM253 536l-125 129l22 31l138 -63l138 63l23 -31l-127 -129h-69z" />
<glyph unicode="&#xf676;" horiz-adv-x="585" d="M48 206v79h60v118h-67v84h232q139 0 208 -67t69 -176q0 -110 -69 -177t-208 -67h-232v84h67v122h-60zM218 85h54q165 0 165 158q0 159 -165 159h-54v-117h119v-79h-119v-121z" />
<glyph unicode="&#xf677;" horiz-adv-x="515" d="M41 0v84h67v319h-67v84h427v-149h-101v64h-149v-114h173v-85h-173v-118h152v68h102v-153h-431zM267 537q-63 0 -103.5 41t-42.5 104h75q9 -61 71 -61q61 0 70 61h76q-3 -63 -43 -104t-103 -41z" />
<glyph unicode="&#xf678;" horiz-adv-x="515" d="M41 0v84h67v319h-67v84h427v-149h-101v64h-149v-114h173v-85h-173v-118h152v68h102v-153h-431zM234 536l-125 129l22 31l138 -63l138 63l23 -31l-127 -129h-69z" />
<glyph unicode="&#xf679;" horiz-adv-x="515" d="M41 0v84h67v319h-67v84h427v-149h-101v64h-149v-114h173v-85h-173v-118h152v68h102v-153h-431zM269 533q-28 0 -46.5 19t-18.5 46t18.5 46t46.5 19q27 0 46 -19t19 -46t-19 -46t-46 -19z" />
<glyph unicode="&#xf67a;" horiz-adv-x="515" d="M41 0v84h67v319h-67v84h427v-149h-101v64h-149v-114h173v-85h-173v-118h152v68h102v-153h-431zM134 547v78h264v-78h-264z" />
<glyph unicode="&#xf67b;" horiz-adv-x="650" d="M388 -153l-31 76q84 40 84 95v12l-230 306v-252h76v-84h-246v84h67v319h-67v84h176l231 -313v229h-75v84h245v-84h-67v-384q0 -35 -12 -63t-27.5 -45t-41.5 -31t-41.5 -19.5t-40.5 -13.5z" />
<glyph unicode="&#xf67c;" horiz-adv-x="515" d="M41 0v84h67v319h-67v84h427v-149h-101v64h-149v-114h173v-85h-173v-118h152v68h102v-153h-24q-66 -46 -66 -102q0 -37 38 -37q27 0 53 13l6 -61q-42 -17 -87 -17q-46 0 -74.5 21t-28.5 61q0 67 89 122h-337z" />
<glyph unicode="&#xf67d;" horiz-adv-x="583" d="M311 -10q-136 0 -206.5 67.5t-70.5 184.5q0 126 78 190.5t205 64.5q102 0 195 -37v-133h-102v71q-46 10 -88 10q-79 0 -127.5 -40t-48.5 -119q0 -72 42 -121t130 -49q43 0 103 18v91h-97v82h232v-82h-34v-152q-114 -46 -211 -46zM307 542q-63 0 -103.5 41t-42.5 104h75 q9 -61 71 -61q61 0 70 61h76q-3 -63 -43 -104t-103 -41z" />
<glyph unicode="&#xf67e;" horiz-adv-x="583" d="M311 -10q-136 0 -206.5 67.5t-70.5 184.5q0 126 78 190.5t205 64.5q102 0 195 -37v-133h-102v71q-46 10 -88 10q-79 0 -127.5 -40t-48.5 -119q0 -72 42 -121t130 -49q43 0 103 18v91h-97v82h232v-82h-34v-152q-114 -46 -211 -46zM172 535l-23 31l126 129h69l126 -129 l-22 -31l-139 62z" />
<glyph unicode="&#xf67f;" horiz-adv-x="583" d="M317 -52q32 0 47 -21t15 -47q0 -34 -25 -70.5t-64 -65.5l-44 34q13 15 18.5 21.5t13.5 24.5t8 36q0 40 -32 60v8q31 20 63 20zM311 -10q-136 0 -206.5 67.5t-70.5 184.5q0 126 78 190.5t205 64.5q102 0 195 -37v-133h-102v71q-46 10 -88 10q-79 0 -127.5 -40t-48.5 -119 q0 -72 42 -121t130 -49q43 0 103 18v91h-97v82h232v-82h-34v-152q-114 -46 -211 -46z" />
<glyph unicode="&#xf680;" horiz-adv-x="583" d="M311 -10q-136 0 -206.5 67.5t-70.5 184.5q0 126 78 190.5t205 64.5q102 0 195 -37v-133h-102v71q-46 10 -88 10q-79 0 -127.5 -40t-48.5 -119q0 -72 42 -121t130 -49q43 0 103 18v91h-97v82h232v-82h-34v-152q-114 -46 -211 -46zM311 538q-28 0 -46.5 19t-18.5 46 t18.5 46t46.5 19q27 0 46 -19t19 -46t-19 -46t-46 -19z" />
<glyph unicode="&#xf681;" horiz-adv-x="657" d="M47 328v41h60v34h-67v84h244v-84h-67v-34h223v34h-67v84h244v-84h-67v-34h60v-41h-60v-244h67v-84h-244v84h67v118h-223v-118h67v-84h-244v84h67v244h-60zM217 288h223v42h-223v-42z" />
<glyph unicode="&#xf682;" horiz-adv-x="659" d="M41 0v84h67v319h-67v84h244v-84h-67v-115h223v115h-67v84h244v-84h-67v-319h67v-84h-244v84h67v118h-223v-118h67v-84h-244zM192 530l-23 31l126 129h69l126 -129l-22 -31l-139 62z" />
<glyph unicode="&#xf683;" horiz-adv-x="326" d="M41 0v84h67v319h-67v84h244v-84h-67v-319h67v-84h-244zM163 537q-63 0 -103.5 41t-42.5 104h75q9 -61 71 -61q61 0 70 61h76q-3 -63 -43 -104t-103 -41z" />
<glyph unicode="&#xf685;" horiz-adv-x="326" d="M41 0v84h67v319h-67v84h244v-84h-67v-319h67v-84h-244zM31 547v78h264v-78h-264z" />
<glyph unicode="&#xf686;" horiz-adv-x="326" d="M41 0v84h67v319h-67v84h244v-84h-67v-319h67v-84h-54q-66 -46 -66 -102q0 -37 38 -37q27 0 53 13l6 -61q-42 -17 -87 -17q-46 0 -74.5 21t-28.5 61q0 67 89 122h-120z" />
<glyph unicode="&#xf687;" horiz-adv-x="326" d="M41 0v84h67v319h-67v84h244v-84h-67v-319h67v-84h-244zM32 534l-38 19q13 33 23 53.5t32 40.5t49 20q24 0 65 -21.5t63 -21.5q38 0 61 46l38 -21q-46 -113 -108 -113q-24 0 -66.5 21t-58.5 21q-37 0 -60 -44z" />
<glyph unicode="&#xf688;" horiz-adv-x="308" d="M46 -153l-31 76q84 40 84 95v385h-68v84h245v-84h-67v-384q0 -35 -12 -63t-27.5 -45t-41.5 -31t-41.5 -19.5t-40.5 -13.5zM14 530l-23 31l126 129h69l126 -129l-22 -31l-139 62z" />
<glyph unicode="&#xf689;" horiz-adv-x="600" d="M340 -47q32 0 47 -21t15 -47q0 -34 -25 -70.5t-64 -65.5l-44 34q13 15 18.5 21.5t13.5 24.5t8 36q0 40 -32 60v8q31 20 63 20zM433 0l-199 239v1l165 164h-68v83h240v-84h-57l-154 -153l142 -166h76v-84h-145zM41 0v84h67v319h-67v84h244v-84h-67v-319h67v-84h-244z" />
<glyph unicode="&#xf68a;" horiz-adv-x="483" d="M41 0v84h67v319h-67v84h253v-84h-76v-318h145v73h101v-158h-423zM149 530l-35 43l148 154l69 -87z" />
<glyph unicode="&#xf68b;" horiz-adv-x="491" d="M404 495q32 0 47 -21t15 -47q0 -34 -25 -70.5t-64 -65.5l-44 34q13 15 18.5 21.5t13.5 24.5t8 36q0 40 -32 60v8q31 20 63 20zM41 0v84h67v319h-67v84h253v-84h-76v-318h145v73h101v-158h-423z" />
<glyph unicode="&#xf68c;" horiz-adv-x="483" d="M280 -47q32 0 47 -21t15 -47q0 -34 -25 -70.5t-64 -65.5l-44 34q13 15 18.5 21.5t13.5 24.5t8 36q0 40 -32 60v8q31 20 63 20zM41 0v84h67v319h-67v84h253v-84h-76v-318h145v73h101v-158h-423z" />
<glyph unicode="&#xf68d;" horiz-adv-x="484" d="M41 0v84h67v319h-67v84h253v-84h-76v-318h145v73h101v-158h-423zM374 209q-28 0 -46.5 19t-18.5 46t18.5 46t46.5 19q27 0 46 -19t19 -46t-19 -46t-46 -19z" />
<glyph unicode="&#xf68e;" horiz-adv-x="650" d="M41 0v84h67v319h-67v84h176l231 -325v241h-75v84h245v-84h-67v-403h-96l-244 336v-252h76v-84h-246zM278 530l-35 43l148 154l69 -87z" />
<glyph unicode="&#xf68f;" horiz-adv-x="650" d="M41 0v84h67v319h-67v84h176l231 -325v241h-75v84h245v-84h-67v-403h-96l-244 336v-252h76v-84h-246zM290 536l-125 129l22 31l138 -63l138 63l23 -31l-127 -129h-69z" />
<glyph unicode="&#xf690;" horiz-adv-x="650" d="M345 -47q32 0 47 -21t15 -47q0 -34 -25 -70.5t-64 -65.5l-44 34q13 15 18.5 21.5t13.5 24.5t8 36q0 40 -32 60v8q31 20 63 20zM41 0v84h67v319h-67v84h176l231 -325v241h-75v84h245v-84h-67v-403h-96l-244 336v-252h76v-84h-246z" />
<glyph unicode="&#xf691;" horiz-adv-x="598" d="M299 -10q-119 0 -192.5 70t-73.5 183t73.5 183.5t192.5 70.5t192.5 -70.5t73.5 -183.5t-73.5 -183t-192.5 -70zM299 79q66 0 109.5 44.5t43.5 119.5t-43.5 120t-109.5 45t-109.5 -45t-43.5 -120t43.5 -119.5t109.5 -44.5zM299 542q-63 0 -103.5 41t-42.5 104h75 q9 -61 71 -61q61 0 70 61h76q-3 -63 -43 -104t-103 -41z" />
<glyph unicode="&#xf692;" horiz-adv-x="598" d="M299 -10q-119 0 -192.5 70t-73.5 183t73.5 183.5t192.5 70.5t192.5 -70.5t73.5 -183.5t-73.5 -183t-192.5 -70zM299 79q66 0 109.5 44.5t43.5 119.5t-43.5 120t-109.5 45t-109.5 -45t-43.5 -120t43.5 -119.5t109.5 -44.5zM195 535l-36 32l111 168l74 -69zM351 535l-36 32 l111 168l74 -69z" />
<glyph unicode="&#xf693;" horiz-adv-x="598" d="M299 -10q-119 0 -192.5 70t-73.5 183t73.5 183.5t192.5 70.5t192.5 -70.5t73.5 -183.5t-73.5 -183t-192.5 -70zM299 79q66 0 109.5 44.5t43.5 119.5t-43.5 120t-109.5 45t-109.5 -45t-43.5 -120t43.5 -119.5t109.5 -44.5zM167 552v78h264v-78h-264z" />
<glyph unicode="&#xf694;" horiz-adv-x="597" d="M298 -10q-91 0 -158 42l-44 -49l-35 29l43 49q-72 69 -72 182t73.5 183.5t192.5 70.5q90 0 158 -43l45 50l34 -30l-44 -49q73 -70 73 -182q0 -113 -73.5 -183t-192.5 -70zM298 408q-66 0 -109.5 -45t-43.5 -120q0 -61 30 -104l214 240q-38 29 -91 29zM298 79 q66 0 109.5 44.5t43.5 119.5q0 60 -30 103l-214 -239q37 -28 91 -28zM259 535l-35 43l148 154l69 -87z" />
<glyph unicode="&#xf695;" horiz-adv-x="563" d="M226 530l-35 43l148 154l69 -87zM41 0v84h67v319h-67v84h253q106 0 156.5 -48t50.5 -109q0 -41 -24 -77t-74 -52l65 -119h66v-82h-144l-92 171h-80v-87h67v-84h-244zM218 255h77q51 0 73.5 21.5t22.5 51.5q0 31 -23 52.5t-74 21.5h-76v-147z" />
<glyph unicode="&#xf696;" horiz-adv-x="563" d="M238 536l-125 129l22 31l138 -63l138 63l23 -31l-127 -129h-69zM41 0v84h67v319h-67v84h253q106 0 156.5 -48t50.5 -109q0 -41 -24 -77t-74 -52l65 -119h66v-82h-144l-92 171h-80v-87h67v-84h-244zM218 255h77q51 0 73.5 21.5t22.5 51.5q0 31 -23 52.5t-74 21.5h-76v-147 z" />
<glyph unicode="&#xf697;" horiz-adv-x="563" d="M309 -47q32 0 47 -21t15 -47q0 -34 -25 -70.5t-64 -65.5l-44 34q13 15 18.5 21.5t13.5 24.5t8 36q0 40 -32 60v8q31 20 63 20zM41 0v84h67v319h-67v84h253q106 0 156.5 -48t50.5 -109q0 -41 -24 -77t-74 -52l65 -119h66v-82h-144l-92 171h-80v-87h67v-84h-244zM218 255 h77q51 0 73.5 21.5t22.5 51.5q0 31 -23 52.5t-74 21.5h-76v-147z" />
<glyph unicode="&#xf698;" horiz-adv-x="453" d="M219 -10q-80 0 -177 28v136h100v-70q36 -9 80 -9q85 0 85 52q0 26 -26.5 43t-64.5 28.5t-76 26t-64.5 47.5t-26.5 82q0 75 54 109t136 34q79 0 161 -26v-132h-101v69q-27 5 -60 5q-83 0 -83 -50q0 -19 14.5 -33t37 -23t50.5 -17.5t55.5 -20.5t50 -28t37 -44t14.5 -65 q0 -75 -54 -108.5t-142 -33.5zM186 535l-35 43l148 154l69 -87z" />
<glyph unicode="&#xf699;" horiz-adv-x="453" d="M194 -207q-40 0 -72 7l12 58q30 -6 52 -6q44 0 44 26q0 30 -64 30v20l32 63q-76 3 -156 27v136h100v-70q36 -9 80 -9q85 0 85 52q0 26 -26.5 43t-64.5 28.5t-76 26t-64.5 47.5t-26.5 82q0 75 54 109t136 34q79 0 161 -26v-132h-101v69q-27 5 -60 5q-83 0 -83 -50 q0 -19 14.5 -33t37 -23t50.5 -17.5t55.5 -20.5t50 -28t37 -44t14.5 -65q0 -126 -157 -140l-17 -39q34 -2 56.5 -22.5t22.5 -53.5q0 -41 -35.5 -62.5t-90.5 -21.5z" />
<glyph unicode="&#xf69a;" horiz-adv-x="453" d="M219 -10q-80 0 -177 28v136h100v-70q36 -9 80 -9q85 0 85 52q0 26 -26.5 43t-64.5 28.5t-76 26t-64.5 47.5t-26.5 82q0 75 54 109t136 34q79 0 161 -26v-132h-101v69q-27 5 -60 5q-83 0 -83 -50q0 -19 14.5 -33t37 -23t50.5 -17.5t55.5 -20.5t50 -28t37 -44t14.5 -65 q0 -75 -54 -108.5t-142 -33.5zM100 535l-23 31l126 129h69l126 -129l-22 -31l-139 62z" />
<glyph unicode="&#xf69b;" horiz-adv-x="453" d="M240 -52q32 0 47 -21t15 -47q0 -34 -25 -70.5t-64 -65.5l-44 34q13 15 18.5 21.5t13.5 24.5t8 36q0 40 -32 60v8q31 20 63 20zM219 -10q-80 0 -177 28v136h100v-70q36 -9 80 -9q85 0 85 52q0 26 -26.5 43t-64.5 28.5t-76 26t-64.5 47.5t-26.5 82q0 75 54 109t136 34 q79 0 161 -26v-132h-101v69q-27 5 -60 5q-83 0 -83 -50q0 -19 14.5 -33t37 -23t50.5 -17.5t55.5 -20.5t50 -28t37 -44t14.5 -65q0 -75 -54 -108.5t-142 -33.5z" />
<glyph unicode="&#xf69c;" horiz-adv-x="512" d="M99 195v62h102v145h-79v-75h-99v160h466v-160h-99v75h-79v-145h102v-62h-102v-111h76v-84h-262v84h76v111h-102z" />
<glyph unicode="&#xf69d;" horiz-adv-x="510" d="M124 0v84h76v318h-79v-75h-99v160h466v-160h-99v75h-79v-318h76v-84h-262zM220 536l-125 129l22 31l138 -63l138 63l23 -31l-127 -129h-69z" />
<glyph unicode="&#xf69e;" horiz-adv-x="510" d="M259 -47q32 0 47 -21t15 -47q0 -34 -25 -70.5t-64 -65.5l-44 34q13 15 18.5 21.5t13.5 24.5t8 36q0 40 -32 60v8q31 20 63 20zM124 0v84h76v318h-79v-75h-99v160h466v-160h-99v75h-79v-318h76v-84h-262z" />
<glyph unicode="&#xf69f;" horiz-adv-x="605" d="M303 -10q-89 0 -149 42.5t-60 134.5v236h-65v84h244v-84h-69v-233q0 -91 103 -91t103 92v232h-71v84h238v-84h-65v-225q0 -88 -54.5 -138t-154.5 -50zM305 537q-63 0 -103.5 41t-42.5 104h75q9 -61 71 -61q61 0 70 61h76q-3 -63 -43 -104t-103 -41z" />
<glyph unicode="&#xf6a0;" horiz-adv-x="605" d="M303 -10q-89 0 -149 42.5t-60 134.5v236h-65v84h244v-84h-69v-233q0 -91 103 -91t103 92v232h-71v84h238v-84h-65v-225q0 -88 -54.5 -138t-154.5 -50zM204 530l-36 32l111 168l74 -69zM360 530l-36 32l111 168l74 -69z" />
<glyph unicode="&#xf6a1;" horiz-adv-x="605" d="M303 -10q-89 0 -149 42.5t-60 134.5v236h-65v84h244v-84h-69v-233q0 -91 103 -91t103 92v232h-71v84h238v-84h-65v-225q0 -88 -54.5 -138t-154.5 -50zM174 547v78h264v-78h-264z" />
<glyph unicode="&#xf6a2;" horiz-adv-x="606" d="M360 -204q-46 0 -74.5 20.5t-28.5 60.5q0 64 71 114q-4 0 -12 -0.5t-16 -0.5q-40 0 -75 9.5t-65.5 29t-48 55.5t-17.5 83v236h-65v84h244v-84h-69v-233q0 -91 103 -91t103 92v232h-71v84h238v-84h-65v-225q0 -35 -7.5 -62.5t-22.5 -46.5t-25 -28t-26 -21 q-81 -61 -81 -119q0 -40 39 -40q26 0 52 13l6 -61q-42 -17 -87 -17z" />
<glyph unicode="&#xf6a3;" horiz-adv-x="605" d="M303 -10q-89 0 -149 42.5t-60 134.5v236h-65v84h244v-84h-69v-233q0 -91 103 -91t103 92v232h-71v84h238v-84h-65v-225q0 -88 -54.5 -138t-154.5 -50zM307 530q-55 0 -86 30t-31 74q0 45 31 74.5t86 29.5q54 0 85 -29.5t31 -74.5q0 -44 -31 -74t-85 -30zM307 587 q19 0 29 13.5t10 33.5t-10 33.5t-29 13.5t-29 -13.5t-10 -33.5t10 -33.5t29 -13.5z" />
<glyph unicode="&#xf6a4;" horiz-adv-x="605" d="M303 -10q-89 0 -149 42.5t-60 134.5v236h-65v84h244v-84h-69v-233q0 -91 103 -91t103 92v232h-71v84h238v-84h-65v-225q0 -88 -54.5 -138t-154.5 -50zM177 534l-38 19q13 33 23 53.5t32 40.5t49 20q25 0 66 -21.5t62 -21.5q38 0 61 46l38 -21q-46 -113 -108 -113 q-24 0 -66.5 21t-58.5 21q-37 0 -60 -44z" />
<glyph unicode="&#xf6a6;" horiz-adv-x="807" d="M207 0l-138 403h-64v84h243v-80h-71l89 -286l92 253l-12 33h-64v80h242v-80h-70l93 -285l90 284h-69v81h235v-84h-65l-139 -403h-106l-88 242l-92 -242h-106zM265 530l-23 31l126 129h69l126 -129l-22 -31l-139 62z" />
<glyph unicode="&#xf6a9;" horiz-adv-x="548" d="M143 0v84h76v84l-154 235h-61v84h245v-82h-66l94 -142l94 142h-66v82h238v-84h-60l-155 -236v-83h76v-84h-261zM137 530l-23 31l126 129h69l126 -129l-22 -31l-139 62z" />
<glyph unicode="&#xf6ab;" horiz-adv-x="506" d="M39 0v89l280 313h-169v-86h-101v171h405v-89l-281 -313h193v86h100v-171h-427zM212 530l-35 43l148 154l69 -87z" />
<glyph unicode="&#xf6ac;" horiz-adv-x="506" d="M39 0v89l280 313h-169v-86h-101v171h405v-89l-281 -313h193v86h100v-171h-427zM260 533q-28 0 -46.5 19t-18.5 46t18.5 46t46.5 19q27 0 46 -19t19 -46t-19 -46t-46 -19z" />
<glyph unicode="&#xf6ad;" horiz-adv-x="326" d="M41 0v84h67v319h-67v84h244v-84h-67v-319h67v-84h-244zM163 533q-28 0 -46.5 19t-18.5 46t18.5 46t46.5 19q27 0 46 -19t19 -46t-19 -46t-46 -19z" />
<glyph unicode="&#xf6ae;" horiz-adv-x="293" d="M180 -149q-72 104 -111.5 224t-39.5 229t40 229t111 223h113q-76 -101 -116 -221.5t-40 -230.5t40 -231t116 -222h-113z" />
<glyph unicode="&#xf6af;" horiz-adv-x="293" d="M0 -149q76 101 116 222t40 231t-40 230.5t-116 221.5h113q71 -103 111 -223t40 -229t-39.5 -229t-111.5 -224h-113z" />
<glyph unicode="&#xf6b0;" horiz-adv-x="310" d="M74 -149v905h217v-77h-113v-751h113v-77h-217z" />
<glyph unicode="&#xf6b1;" horiz-adv-x="310" d="M19 -149v77h113v751h-113v77h217v-905h-217z" />
<glyph unicode="&#xf6b2;" horiz-adv-x="321" d="M227 -161q-68 0 -101 35t-33 85q0 25 14.5 95t14.5 102q0 47 -25.5 75t-89.5 32v82q64 4 89.5 32t25.5 75q0 32 -14.5 102t-14.5 95q0 50 33 85t101 35q34 0 72 -10v-67q-30 6 -50 6q-53 0 -53 -55q0 -24 15.5 -97t15.5 -111q0 -106 -99 -131q99 -25 99 -131 q0 -38 -15.5 -111t-15.5 -97q0 -55 53 -55q20 0 50 6v-67q-38 -10 -72 -10z" />
<glyph unicode="&#xf6b3;" horiz-adv-x="321" d="M94 -161q-34 0 -72 10v67q30 -6 50 -6q53 0 53 55q0 24 -15.5 97t-15.5 111q0 106 99 131q-99 25 -99 131q0 38 15.5 111t15.5 97q0 55 -53 55q-20 0 -50 -6v67q38 10 72 10q68 0 101 -35t33 -85q0 -25 -14.5 -95t-14.5 -102q0 -47 25.5 -75t89.5 -32v-82 q-64 -4 -89.5 -32t-25.5 -75q0 -32 14.5 -102t14.5 -95q0 -50 -33 -85t-101 -35z" />
<glyph unicode="&#xf6b4;" horiz-adv-x="262" d="M175 433l18 -433h-124l18 433h88zM131 619q29 0 49 -20.5t20 -48.5t-20 -48.5t-49 -20.5t-49 20.5t-20 48.5t20 48.5t49 20.5z" />
<glyph unicode="&#xf6b5;" horiz-adv-x="384" d="M220 -14q-84 0 -135.5 36.5t-51.5 108.5q0 37 14.5 68.5t35.5 53.5t42 42t35.5 42.5t14.5 47.5q0 11 -10 48h105q9 -23 9 -52q0 -34 -20 -66.5t-44 -53.5t-44 -53.5t-20 -66.5q0 -70 89 -70q52 0 116 16v-82q-70 -19 -136 -19zM216 619q28 0 48.5 -20.5t20.5 -48.5 t-20.5 -48.5t-48.5 -20.5t-48.5 20.5t-20.5 48.5t20.5 48.5t48.5 20.5z" />
<glyph unicode="&#xf6b6;" horiz-adv-x="596" d="M431 114l-155 188v4l155 188h121l-162 -190l162 -190h-121zM192 114l-155 188v4l155 188h121l-162 -190l162 -190h-121z" />
<glyph unicode="&#xf6b7;" horiz-adv-x="596" d="M44 114l162 190l-162 190h121l155 -188v-4l-155 -188h-121zM283 114l162 190l-162 190h121l155 -188v-4l-155 -188h-121z" />
<glyph unicode="&#xf6b8;" horiz-adv-x="357" d="M192 114l-155 188v4l155 188h121l-162 -190l162 -190h-121z" />
<glyph unicode="&#xf6b9;" horiz-adv-x="357" d="M44 114l162 190l-162 190h121l155 -188v-4l-155 -188h-121z" />
<glyph unicode="&#xf6ba;" horiz-adv-x="394" d="M53 257v95h288v-95h-288z" />
<glyph unicode="&#xf6bb;" horiz-adv-x="655" d="M53 257v95h549v-95h-549z" />
<glyph unicode="&#xf6bc;" horiz-adv-x="880" d="M53 257v95h774v-95h-774z" />
<glyph unicode="&#xf6bd;" horiz-adv-x="230" d="M115 235q-29 0 -49 20.5t-20 48.5t20 48.5t49 20.5t49 -20.5t20 -48.5t-20 -48.5t-49 -20.5z" />
<glyph unicode="&#xf6c9;" horiz-adv-x="346" d="M88 660l-37 46l159 166l74 -94z" />
<glyph unicode="&#xf6ca;" horiz-adv-x="436" d="M181 660l-135 139l24 33l148 -67l149 67l24 -33l-136 -139h-74z" />
<glyph unicode="&#xf6cb;" horiz-adv-x="436" d="M118 664q-27 0 -46 19t-19 46t19 46t46 19t46 -19t19 -46t-19 -46t-46 -19zM312 664q-27 0 -46 19t-19 46t19 46t46 19t46 -19t19 -46t-19 -46t-46 -19z" />
<glyph unicode="&#xf6ce;" horiz-adv-x="346" d="M250 660l-196 118l74 94l159 -166z" />
<glyph unicode="&#xf6cf;" horiz-adv-x="515" d="M103 660l-39 35l120 180l79 -74zM271 660l-39 35l120 180l79 -74z" />
<glyph unicode="&#xf6d0;" horiz-adv-x="419" d="M67 670v84h284v-84h-284z" />
<glyph unicode="&#xf6f4;" horiz-adv-x="359" d="M179 537q-63 0 -103.5 41t-42.5 104h75q9 -61 71 -61q61 0 70 61h76q-3 -63 -43 -104t-103 -41z" />
<glyph unicode="&#xf6f5;" horiz-adv-x="405" d="M168 536l-125 129l22 31l138 -63l138 63l23 -31l-127 -129h-69z" />
<glyph unicode="&#xf6f6;" horiz-adv-x="404" d="M70 530l-23 31l126 129h69l126 -129l-22 -31l-139 62z" />
<glyph unicode="&#xf6f7;" horiz-adv-x="222" d="M111 533q-28 0 -46.5 19t-18.5 46t18.5 46t46.5 19q27 0 46 -19t19 -46t-19 -46t-46 -19z" />
<glyph unicode="&#xf6f8;" horiz-adv-x="479" d="M96 530l-36 32l111 168l74 -69zM252 530l-36 32l111 168l74 -69z" />
<glyph unicode="&#xf6f9;" horiz-adv-x="483" d="M62 175l-23 53l69 29v146h-67v84h253v-84h-76v-100l132 55l23 -53l-155 -65v-155h145v73h101v-158h-423v84h67v110z" />
<glyph unicode="&#xf6fb;" horiz-adv-x="276" d="M145 -204q-46 0 -74.5 21t-28.5 61q0 47 37 81.5t103 68.5l31 -20q-78 -52 -78 -110q0 -37 38 -37q27 0 53 13l6 -61q-42 -17 -87 -17z" />
<glyph unicode="&#xf6fc;" horiz-adv-x="327" d="M163 530q-55 0 -86 30t-31 74q0 45 31 74.5t86 29.5q54 0 85 -29.5t31 -74.5q0 -44 -31 -74t-85 -30zM163 587q19 0 29 13.5t10 33.5t-10 33.5t-29 13.5t-29 -13.5t-10 -33.5t10 -33.5t29 -13.5z" />
<glyph unicode="&#xf6fd;" horiz-adv-x="453" d="M219 -10q-80 0 -177 28v136h100v-70q36 -9 80 -9q85 0 85 52q0 26 -26.5 43t-64.5 28.5t-76 26t-64.5 47.5t-26.5 82q0 75 54 109t136 34q79 0 161 -26v-132h-101v69q-27 5 -60 5q-83 0 -83 -50q0 -19 14.5 -33t37 -23t50.5 -17.5t55.5 -20.5t50 -28t37 -44t14.5 -65 q0 -75 -54 -108.5t-142 -33.5zM198 541l-125 129l22 31l138 -63l138 63l23 -31l-127 -129h-69z" />
<glyph unicode="&#xf6fe;" horiz-adv-x="433" d="M88 534l-38 19q13 33 23 53.5t32 40.5t49 20q24 0 65 -21.5t63 -21.5q38 0 61 46l38 -21q-46 -113 -108 -113q-24 0 -66.5 21t-58.5 21q-37 0 -60 -44z" />
<glyph unicode="&#xf6ff;" horiz-adv-x="506" d="M39 0v89l280 313h-169v-86h-101v171h405v-89l-281 -313h193v86h100v-171h-427zM219 536l-125 129l22 31l138 -63l138 63l23 -31l-127 -129h-69z" />
<glyph unicode="&#xf721;" horiz-adv-x="254" d="M85 144l-16 343h117l-17 -343h-84zM127 -8q-24 0 -41.5 17t-17.5 42q0 24 17.5 41t41.5 17q25 0 42.5 -17t17.5 -41q0 -25 -17.5 -42t-42.5 -17z" />
<glyph unicode="&#xf726;" horiz-adv-x="561" d="M205 -10q-79 0 -123.5 34.5t-44.5 102.5q0 47 22 79t68 63l-4 4q-46 46 -46 101q0 57 39.5 90t102.5 33q59 0 94 -29t35 -81q0 -39 -20.5 -66.5t-61.5 -56.5l96 -92q20 33 24 58h-44v77h177v-78h-43q-13 -65 -52 -124q34 -27 69 -27q18 0 29 5v-82q-27 -9 -56 -9 q-58 0 -109 42q-65 -44 -152 -44zM218 75q43 0 79 21l-114 111q-44 -30 -44 -70q0 -29 20.5 -45.5t58.5 -16.5zM220 425q-18 0 -30.5 -11t-12.5 -31q0 -26 26 -52l8 -8q48 30 48 65q0 16 -10 26.5t-29 10.5z" />
<glyph unicode="&#xf73f;" horiz-adv-x="338" d="M145 497q72 0 116 -29t44 -87q0 -35 -18 -65t-39 -47.5t-39 -40.5t-18 -46q0 -8 3 -21.5t4 -16.5h-98q-7 17 -7 41q0 26 15.5 51.5t34 42.5t34 41.5t15.5 49.5t-15 37t-52 12q-47 0 -95 -11v75q63 14 115 14zM151 -8q-25 0 -42.5 17t-17.5 42q0 24 17.5 41t42.5 17 t42 -17t17 -41q0 -25 -17 -42t-42 -17z" />
<glyph unicode="&#xf760;" horiz-adv-x="322" d="M232 530l-182 110l69 87l148 -154z" />
<glyph unicode="&#xf761;" horiz-adv-x="586" d="M10 0v84h59l128 319h-61v84h226l162 -403h60v-84h-240v84h68l-23 61h-191l-24 -61h68v-84h-232zM230 229h127l-64 165z" />
<glyph unicode="&#xf762;" horiz-adv-x="535" d="M43 0v83h66v321h-66v83h257q82 0 133.5 -34.5t51.5 -92.5q0 -81 -96 -110q110 -25 110 -118q0 -58 -48.5 -95t-140.5 -37h-267zM217 83h90q40 0 61.5 17t21.5 44q0 26 -21 44.5t-65 18.5h-87v-124zM217 287h76q41 0 62.5 16.5t21.5 42.5t-20.5 42t-57.5 16h-82v-117z" />
<glyph unicode="&#xf763;" horiz-adv-x="530" d="M305 -10q-124 0 -197.5 65t-73.5 184q0 123 77.5 190.5t194.5 67.5q94 0 187 -40v-144h-105v86q-42 10 -80 10q-73 0 -117 -43t-44 -119q0 -75 43.5 -121t125.5 -46q73 0 176 48v-93q-83 -45 -187 -45z" />
<glyph unicode="&#xf764;" horiz-adv-x="585" d="M41 0v84h67v319h-67v84h232q139 0 208 -67t69 -176q0 -110 -69 -177t-208 -67h-232zM218 85h54q165 0 165 158q0 159 -165 159h-54v-317z" />
<glyph unicode="&#xf765;" horiz-adv-x="515" d="M41 0v84h67v319h-67v84h427v-149h-101v64h-149v-114h173v-85h-173v-118h152v68h102v-153h-431z" />
<glyph unicode="&#xf766;" horiz-adv-x="480" d="M41 0v84h67v319h-67v84h419v-158h-101v72h-141v-129h163v-88h-163v-100h77v-84h-254z" />
<glyph unicode="&#xf767;" horiz-adv-x="583" d="M311 -10q-136 0 -206.5 67.5t-70.5 184.5q0 126 78 190.5t205 64.5q102 0 195 -37v-133h-102v71q-46 10 -88 10q-79 0 -127.5 -40t-48.5 -119q0 -72 42 -121t130 -49q43 0 103 18v91h-97v82h232v-82h-34v-152q-114 -46 -211 -46z" />
<glyph unicode="&#xf768;" horiz-adv-x="659" d="M41 0v84h67v319h-67v84h244v-84h-67v-115h223v115h-67v84h244v-84h-67v-319h67v-84h-244v84h67v118h-223v-118h67v-84h-244z" />
<glyph unicode="&#xf769;" horiz-adv-x="326" d="M41 0v84h67v319h-67v84h244v-84h-67v-319h67v-84h-244z" />
<glyph unicode="&#xf76a;" horiz-adv-x="308" d="M46 -153l-31 76q84 40 84 95v385h-68v84h245v-84h-67v-384q0 -35 -12 -63t-27.5 -45t-41.5 -31t-41.5 -19.5t-40.5 -13.5z" />
<glyph unicode="&#xf76b;" horiz-adv-x="600" d="M433 0l-199 239v1l165 164h-68v83h240v-84h-57l-154 -153l142 -166h76v-84h-145zM41 0v84h67v319h-67v84h244v-84h-67v-319h67v-84h-244z" />
<glyph unicode="&#xf76c;" horiz-adv-x="483" d="M41 0v84h67v319h-67v84h253v-84h-76v-318h145v73h101v-158h-423z" />
<glyph unicode="&#xf76d;" horiz-adv-x="763" d="M44 0v84h59l8 321h-60v82h219l112 -300l112 300h219v-82h-60l8 -321h59v-84h-221v84h67l-10 304l-138 -347h-72l-138 347l-10 -304h68v-84h-222z" />
<glyph unicode="&#xf76e;" horiz-adv-x="650" d="M41 0v84h67v319h-67v84h176l231 -325v241h-75v84h245v-84h-67v-403h-96l-244 336v-252h76v-84h-246z" />
<glyph unicode="&#xf76f;" horiz-adv-x="598" d="M299 -10q-119 0 -192.5 70t-73.5 183t73.5 183.5t192.5 70.5t192.5 -70.5t73.5 -183.5t-73.5 -183t-192.5 -70zM299 79q66 0 109.5 44.5t43.5 119.5t-43.5 120t-109.5 45t-109.5 -45t-43.5 -120t43.5 -119.5t109.5 -44.5z" />
<glyph unicode="&#xf770;" horiz-adv-x="510" d="M41 0v84h67v319h-67v84h241q107 0 157.5 -48.5t50.5 -112.5t-50.5 -111.5t-157.5 -47.5h-64v-83h85v-84h-262zM218 402v-152h66q51 0 73.5 22.5t22.5 53.5t-22.5 53.5t-73.5 22.5h-66z" />
<glyph unicode="&#xf771;" horiz-adv-x="598" d="M433 -122l-152 113q-112 5 -180 74t-68 178q0 113 73.5 183.5t192.5 70.5t192.5 -70.5t73.5 -183.5q0 -84 -42 -145.5t-115 -88.5l80 -46zM299 79q66 0 109.5 44.5t43.5 119.5t-43.5 120t-109.5 45t-109.5 -45t-43.5 -120t43.5 -119.5t109.5 -44.5z" />
<glyph unicode="&#xf772;" horiz-adv-x="563" d="M41 0v84h67v319h-67v84h253q106 0 156.5 -48t50.5 -109q0 -41 -24 -77t-74 -52l65 -119h66v-82h-144l-92 171h-80v-87h67v-84h-244zM218 255h77q51 0 73.5 21.5t22.5 51.5q0 31 -23 52.5t-74 21.5h-76v-147z" />
<glyph unicode="&#xf773;" horiz-adv-x="453" d="M219 -10q-80 0 -177 28v136h100v-70q36 -9 80 -9q85 0 85 52q0 26 -26.5 43t-64.5 28.5t-76 26t-64.5 47.5t-26.5 82q0 75 54 109t136 34q79 0 161 -26v-132h-101v69q-27 5 -60 5q-83 0 -83 -50q0 -19 14.5 -33t37 -23t50.5 -17.5t55.5 -20.5t50 -28t37 -44t14.5 -65 q0 -75 -54 -108.5t-142 -33.5z" />
<glyph unicode="&#xf774;" horiz-adv-x="510" d="M124 0v84h76v318h-79v-75h-99v160h466v-160h-99v75h-79v-318h76v-84h-262z" />
<glyph unicode="&#xf775;" horiz-adv-x="605" d="M303 -10q-89 0 -149 42.5t-60 134.5v236h-65v84h244v-84h-69v-233q0 -91 103 -91t103 92v232h-71v84h238v-84h-65v-225q0 -88 -54.5 -138t-154.5 -50z" />
<glyph unicode="&#xf776;" horiz-adv-x="570" d="M233 0l-169 403h-61v84h255v-83h-79l109 -281l110 281h-79v83h248v-84h-61l-169 -403h-104z" />
<glyph unicode="&#xf777;" horiz-adv-x="807" d="M207 0l-138 403h-64v84h243v-80h-71l89 -286l92 253l-12 33h-64v80h242v-80h-70l93 -285l90 284h-69v81h235v-84h-65l-139 -403h-106l-88 242l-92 -242h-106z" />
<glyph unicode="&#xf778;" d="M25 0v84h54l144 159l-137 160h-55v84h240v-81h-60l78 -90l81 90h-60v81h227v-85h-54l-137 -152l146 -167h51v-83h-242v81h62l-83 95l-85 -95h59v-81h-229z" />
<glyph unicode="&#xf779;" horiz-adv-x="548" d="M143 0v84h76v84l-154 235h-61v84h245v-82h-66l94 -142l94 142h-66v82h238v-84h-60l-155 -236v-83h76v-84h-261z" />
<glyph unicode="&#xf77a;" horiz-adv-x="506" d="M39 0v89l280 313h-169v-86h-101v171h405v-89l-281 -313h193v86h100v-171h-427z" />
<glyph unicode="&#xf7a1;" horiz-adv-x="254" d="M169 343l16 -343h-117l17 343h84zM127 495q24 0 41.5 -17t17.5 -42q0 -24 -17.5 -41t-41.5 -17q-25 0 -42.5 17t-17.5 41q0 25 17.5 42t42.5 17z" />
<glyph unicode="&#xf7a8;" horiz-adv-x="405" d="M110 533q-25 0 -43 17.5t-18 42.5t17.5 43t43.5 18q25 0 42.5 -18t17.5 -43t-17.5 -42.5t-42.5 -17.5zM290 533q-25 0 -42.5 17.5t-17.5 42.5t17.5 43t42.5 18q26 0 43.5 -18t17.5 -43t-18 -42.5t-43 -17.5z" />
<glyph unicode="&#xf7af;" horiz-adv-x="390" d="M62 547v78h264v-78h-264z" />
<glyph unicode="&#xf7b4;" horiz-adv-x="322" d="M82 530l-35 43l148 154l69 -87z" />
<glyph unicode="&#xf7b8;" horiz-adv-x="283" d="M104 -207q-40 0 -72 7l12 58q30 -6 52 -6q44 0 44 26q0 30 -64 30v20l53 104l52 -11l-30 -68q34 -2 56.5 -22.5t22.5 -53.5q0 -41 -35.5 -62.5t-90.5 -21.5z" />
<glyph unicode="&#xf7bf;" horiz-adv-x="340" d="M196 -10q-72 0 -116 29t-44 87q0 35 18 65t39 47.5t39 40.5t18 46q0 8 -3 21.5t-4 16.5h98q7 -17 7 -41q0 -26 -15.5 -51.5t-34 -42.5t-34 -41.5t-15.5 -49.5t15 -37t52 -12q47 0 95 11v-75q-63 -14 -115 -14zM190 495q25 0 42.5 -17t17.5 -42q0 -24 -17.5 -41t-42.5 -17 t-42 17t-17 41q0 25 17 42t42 17z" />
<glyph unicode="&#xf7e0;" horiz-adv-x="586" d="M10 0v84h59l128 319h-61v84h226l162 -403h60v-84h-240v84h68l-23 61h-191l-24 -61h68v-84h-232zM230 229h127l-64 165zM339 530l-182 110l69 87l148 -154z" />
<glyph unicode="&#xf7e1;" horiz-adv-x="586" d="M10 0v84h59l128 319h-61v84h226l162 -403h60v-84h-240v84h68l-23 61h-191l-24 -61h68v-84h-232zM230 229h127l-64 165zM218 530l-35 43l148 154l69 -87z" />
<glyph unicode="&#xf7e2;" horiz-adv-x="586" d="M10 0v84h59l128 319h-61v84h226l162 -403h60v-84h-240v84h68l-23 61h-191l-24 -61h68v-84h-232zM230 229h127l-64 165zM144 530l-23 31l126 129h69l126 -129l-22 -31l-139 62z" />
<glyph unicode="&#xf7e3;" horiz-adv-x="586" d="M10 0v84h59l128 319h-61v84h226l162 -403h60v-84h-240v84h68l-23 61h-191l-24 -61h68v-84h-232zM230 229h127l-64 165zM152 534l-38 19q13 33 23 53.5t32 40.5t49 20q24 0 65 -21.5t63 -21.5q38 0 61 46l38 -21q-46 -113 -108 -113q-24 0 -66.5 21t-58.5 21 q-37 0 -60 -44z" />
<glyph unicode="&#xf7e4;" horiz-adv-x="586" d="M10 0v84h59l128 319h-61v84h226l162 -403h60v-84h-240v84h68l-23 61h-191l-24 -61h68v-84h-232zM230 229h127l-64 165zM192 533q-25 0 -43 17.5t-18 42.5t17.5 43t43.5 18q25 0 42.5 -18t17.5 -43t-17.5 -42.5t-42.5 -17.5zM372 533q-25 0 -42.5 17.5t-17.5 42.5t17.5 43 t42.5 18q26 0 43.5 -18t17.5 -43t-18 -42.5t-43 -17.5z" />
<glyph unicode="&#xf7e5;" horiz-adv-x="586" d="M10 0v84h59l128 319h-61v84h226l162 -403h60v-84h-240v84h68l-23 61h-191l-24 -61h68v-84h-232zM230 229h127l-64 165zM284 530q-55 0 -86 30t-31 74q0 45 31 74.5t86 29.5q54 0 85 -29.5t31 -74.5q0 -44 -31 -74t-85 -30zM284 587q19 0 29 13.5t10 33.5t-10 33.5 t-29 13.5t-29 -13.5t-10 -33.5t10 -33.5t29 -13.5z" />
<glyph unicode="&#xf7e6;" horiz-adv-x="810" d="M10 0v86h56l216 317h-52v84h533v-149h-101v64h-145v-114h169v-85h-169v-118h148v68h102v-153h-415v84h60v62h-189l-42 -62h54v-84h-225zM395 403l-119 -177h136v177h-17z" />
<glyph unicode="&#xf7e7;" horiz-adv-x="530" d="M266 -207q-40 0 -72 7l12 58q30 -6 52 -6q44 0 44 26q0 30 -64 30v20l32 64q-109 8 -172.5 72.5t-63.5 174.5q0 123 77.5 190.5t194.5 67.5q94 0 187 -40v-144h-105v86q-42 10 -80 10q-73 0 -117 -43t-44 -119q0 -75 43.5 -121t125.5 -46q73 0 176 48v-93 q-70 -39 -163 -44l-16 -38q34 -2 56.5 -22.5t22.5 -53.5q0 -41 -35.5 -62.5t-90.5 -21.5z" />
<glyph unicode="&#xf7e8;" horiz-adv-x="515" d="M41 0v84h67v319h-67v84h427v-149h-101v64h-149v-114h173v-85h-173v-118h152v68h102v-153h-431zM320 530l-182 110l69 87l148 -154z" />
<glyph unicode="&#xf7e9;" horiz-adv-x="515" d="M41 0v84h67v319h-67v84h427v-149h-101v64h-149v-114h173v-85h-173v-118h152v68h102v-153h-431zM208 530l-35 43l148 154l69 -87z" />
<glyph unicode="&#xf7ea;" horiz-adv-x="515" d="M41 0v84h67v319h-67v84h427v-149h-101v64h-149v-114h173v-85h-173v-118h152v68h102v-153h-431zM126 530l-23 31l126 129h69l126 -129l-22 -31l-139 62z" />
<glyph unicode="&#xf7eb;" horiz-adv-x="515" d="M41 0v84h67v319h-67v84h427v-149h-101v64h-149v-114h173v-85h-173v-118h152v68h102v-153h-431zM172 533q-25 0 -43 17.5t-18 42.5t17.5 43t43.5 18q25 0 42.5 -18t17.5 -43t-17.5 -42.5t-42.5 -17.5zM352 533q-25 0 -42.5 17.5t-17.5 42.5t17.5 43t42.5 18q26 0 43.5 -18 t17.5 -43t-18 -42.5t-43 -17.5z" />
<glyph unicode="&#xf7ec;" horiz-adv-x="326" d="M41 0v84h67v319h-67v84h244v-84h-67v-319h67v-84h-244zM227 530l-182 110l69 87l148 -154z" />
<glyph unicode="&#xf7ed;" horiz-adv-x="326" d="M41 0v84h67v319h-67v84h244v-84h-67v-319h67v-84h-244zM110 530l-35 43l148 154l69 -87z" />
<glyph unicode="&#xf7ee;" horiz-adv-x="326" d="M41 0v84h67v319h-67v84h244v-84h-67v-319h67v-84h-244zM26 530l-23 31l126 129h69l126 -129l-22 -31l-139 62z" />
<glyph unicode="&#xf7ef;" horiz-adv-x="326" d="M41 0v84h67v319h-67v84h244v-84h-67v-319h67v-84h-244zM73 533q-25 0 -43 17.5t-18 42.5t18 43t43 18t42.5 -18t17.5 -43t-17.5 -42.5t-42.5 -17.5zM253 533q-25 0 -42.5 17.5t-17.5 42.5t17.5 43t42.5 18t43 -18t18 -43t-18 -42.5t-43 -17.5z" />
<glyph unicode="&#xf7f0;" horiz-adv-x="585" d="M48 206v79h60v118h-67v84h232q139 0 208 -67t69 -176q0 -110 -69 -177t-208 -67h-232v84h67v122h-60zM218 85h54q165 0 165 158q0 159 -165 159h-54v-117h119v-79h-119v-121z" />
<glyph unicode="&#xf7f1;" horiz-adv-x="650" d="M41 0v84h67v319h-67v84h176l231 -325v241h-75v84h245v-84h-67v-403h-96l-244 336v-252h76v-84h-246zM197 534l-38 19q13 33 23 53.5t32 40.5t49 20q25 0 66 -21.5t62 -21.5q38 0 61 46l38 -21q-46 -113 -108 -113q-24 0 -66.5 21t-58.5 21q-37 0 -60 -44z" />
<glyph unicode="&#xf7f2;" horiz-adv-x="598" d="M299 -10q-119 0 -192.5 70t-73.5 183t73.5 183.5t192.5 70.5t192.5 -70.5t73.5 -183.5t-73.5 -183t-192.5 -70zM299 79q66 0 109.5 44.5t43.5 119.5t-43.5 120t-109.5 45t-109.5 -45t-43.5 -120t43.5 -119.5t109.5 -44.5zM339 535l-182 110l69 87l148 -154z" />
<glyph unicode="&#xf7f3;" horiz-adv-x="598" d="M299 -10q-119 0 -192.5 70t-73.5 183t73.5 183.5t192.5 70.5t192.5 -70.5t73.5 -183.5t-73.5 -183t-192.5 -70zM299 79q66 0 109.5 44.5t43.5 119.5t-43.5 120t-109.5 45t-109.5 -45t-43.5 -120t43.5 -119.5t109.5 -44.5zM260 535l-35 43l148 154l69 -87z" />
<glyph unicode="&#xf7f4;" horiz-adv-x="598" d="M299 -10q-119 0 -192.5 70t-73.5 183t73.5 183.5t192.5 70.5t192.5 -70.5t73.5 -183.5t-73.5 -183t-192.5 -70zM299 79q66 0 109.5 44.5t43.5 119.5t-43.5 120t-109.5 45t-109.5 -45t-43.5 -120t43.5 -119.5t109.5 -44.5zM162 535l-23 31l126 129h69l126 -129l-22 -31 l-139 62z" />
<glyph unicode="&#xf7f5;" horiz-adv-x="598" d="M299 -10q-119 0 -192.5 70t-73.5 183t73.5 183.5t192.5 70.5t192.5 -70.5t73.5 -183.5t-73.5 -183t-192.5 -70zM299 79q66 0 109.5 44.5t43.5 119.5t-43.5 120t-109.5 45t-109.5 -45t-43.5 -120t43.5 -119.5t109.5 -44.5zM168 539l-38 19q13 33 23 53.5t32 40.5t49 20 q24 0 65 -21.5t63 -21.5q38 0 61 46l38 -21q-46 -113 -108 -113q-24 0 -66.5 21t-58.5 21q-37 0 -60 -44z" />
<glyph unicode="&#xf7f6;" horiz-adv-x="598" d="M299 -10q-119 0 -192.5 70t-73.5 183t73.5 183.5t192.5 70.5t192.5 -70.5t73.5 -183.5t-73.5 -183t-192.5 -70zM299 79q66 0 109.5 44.5t43.5 119.5t-43.5 120t-109.5 45t-109.5 -45t-43.5 -120t43.5 -119.5t109.5 -44.5zM209 538q-25 0 -43 17.5t-18 42.5q0 26 18 43.5 t43 17.5t42.5 -18t17.5 -43t-17.5 -42.5t-42.5 -17.5zM389 538q-25 0 -42.5 17.5t-17.5 42.5t17.5 43t42.5 18t43 -17.5t18 -43.5q0 -25 -18 -42.5t-43 -17.5z" />
<glyph unicode="&#xf7f8;" horiz-adv-x="597" d="M298 -10q-91 0 -158 42l-44 -49l-35 29l43 49q-72 69 -72 182t73.5 183.5t192.5 70.5q90 0 158 -43l45 50l34 -30l-44 -49q73 -70 73 -182q0 -113 -73.5 -183t-192.5 -70zM298 408q-66 0 -109.5 -45t-43.5 -120q0 -61 30 -104l214 240q-38 29 -91 29zM298 79 q66 0 109.5 44.5t43.5 119.5q0 60 -30 103l-214 -239q37 -28 91 -28z" />
<glyph unicode="&#xf7f9;" horiz-adv-x="605" d="M303 -10q-89 0 -149 42.5t-60 134.5v236h-65v84h244v-84h-69v-233q0 -91 103 -91t103 92v232h-71v84h238v-84h-65v-225q0 -88 -54.5 -138t-154.5 -50zM347 530l-182 110l69 87l148 -154z" />
<glyph unicode="&#xf7fa;" horiz-adv-x="605" d="M303 -10q-89 0 -149 42.5t-60 134.5v236h-65v84h244v-84h-69v-233q0 -91 103 -91t103 92v232h-71v84h238v-84h-65v-225q0 -88 -54.5 -138t-154.5 -50zM266 530l-35 43l148 154l69 -87z" />
<glyph unicode="&#xf7fb;" horiz-adv-x="605" d="M303 -10q-89 0 -149 42.5t-60 134.5v236h-65v84h244v-84h-69v-233q0 -91 103 -91t103 92v232h-71v84h238v-84h-65v-225q0 -88 -54.5 -138t-154.5 -50zM170 530l-23 31l126 129h69l126 -129l-22 -31l-139 62z" />
<glyph unicode="&#xf7fc;" horiz-adv-x="605" d="M303 -10q-89 0 -149 42.5t-60 134.5v236h-65v84h244v-84h-69v-233q0 -91 103 -91t103 92v232h-71v84h238v-84h-65v-225q0 -88 -54.5 -138t-154.5 -50zM216 533q-25 0 -43 17.5t-18 42.5t17.5 43t43.5 18q25 0 42.5 -18t17.5 -43t-17.5 -42.5t-42.5 -17.5zM396 533 q-25 0 -42.5 17.5t-17.5 42.5t17.5 43t42.5 18q26 0 43.5 -18t17.5 -43t-18 -42.5t-43 -17.5z" />
<glyph unicode="&#xf7fd;" horiz-adv-x="548" d="M143 0v84h76v84l-154 235h-61v84h245v-82h-66l94 -142l94 142h-66v82h238v-84h-60l-155 -236v-83h76v-84h-261zM224 530l-35 43l148 154l69 -87z" />
<glyph unicode="&#xf7fe;" horiz-adv-x="502" d="M44 0v84h60v319h-60v84h248v-85h-78v-19h78q188 0 188 -139t-190 -139h-76v-21h78v-84h-248zM214 188h81q75 0 75 56q0 55 -76 55h-80v-111z" />
<glyph unicode="&#xf7ff;" horiz-adv-x="548" d="M143 0v84h76v84l-154 235h-61v84h245v-82h-66l94 -142l94 142h-66v82h238v-84h-60l-155 -236v-83h76v-84h-261zM187 533q-25 0 -43 17.5t-18 42.5t18 43t43 18t42.5 -18t17.5 -43t-17.5 -42.5t-42.5 -17.5zM367 533q-25 0 -42.5 17.5t-17.5 42.5t17.5 43t42.5 18t43 -18 t18 -43t-18 -42.5t-43 -17.5z" />
<glyph unicode="&#xfb06;" horiz-adv-x="756" d="M206 -11q-92 0 -171 24v122h90v-54q38 -10 80 -10q36 0 53.5 12t17.5 30q0 21 -24.5 34t-59 22t-69.5 22.5t-59.5 43t-24.5 74.5q0 61 44 97.5t130 36.5q31 0 68 -5v15q0 152 158 152h174v-173h118v-89h-118v-218q0 -29 14.5 -39t43.5 -10q36 0 67 11v-83 q-56 -15 -103 -15q-76 0 -105.5 33t-29.5 97v224h-75v89h75v96h-66q-39 0 -53 -20.5t-14 -72.5v-131h-92v52q-36 6 -58 6q-70 0 -70 -41q0 -22 24.5 -36t59.5 -23t70 -22t59.5 -43t24.5 -76q0 -132 -179 -132z" />
<glyph horiz-adv-x="540" d="M270 -12q-120 0 -174 79t-54 237q0 159 54 238t174 79t174 -79t54 -238t-54 -237.5t-174 -78.5zM270 75q59 0 84.5 54t25.5 175q0 122 -25.5 176t-84.5 54t-84.5 -54t-25.5 -176q0 -121 25.5 -175t84.5 -54z" />
<glyph horiz-adv-x="382" d="M52 0v86h103v428q-36 -36 -75 -36q-31 0 -44.5 19t-8.5 51l141 61h100v-523h80v-86h-296z" />
<glyph horiz-adv-x="530" d="M99 -11q-31 0 -48.5 19t-17.5 52q0 39 26 68t90 78q58 44 84.5 65.5t59 54t45 60.5t12.5 61q0 87 -97 87q-41 0 -79 -18q4 -11 4 -24q0 -29 -18 -47.5t-49 -18.5t-49 19t-18 48q0 55 63.5 91.5t153.5 36.5q105 0 154.5 -49.5t49.5 -123.5q0 -49 -21.5 -94t-59 -81 t-73 -63t-81 -57t-64.5 -46q40 3 95.5 -7.5t68.5 -10.5q18 0 31.5 7t19.5 15.5t10 22.5t5 21.5t1 20.5h100q0 -48 -10.5 -87t-43 -69t-84.5 -30q-41 0 -105.5 24t-90.5 24q-4 -18 -19.5 -33.5t-44.5 -15.5z" />
<glyph horiz-adv-x="516" d="M249 -12q-84 0 -148.5 32t-64.5 88q0 31 19.5 50t49.5 19t47 -19t17 -47q0 -10 -4 -23q35 -14 78 -14q58 0 88 26t30 73q0 101 -148 101h-34v82h30q63 0 97.5 24t34.5 71q0 84 -99 84q-41 0 -73 -15q4 -9 4 -22q0 -29 -17.5 -47.5t-46.5 -18.5q-31 0 -49 19t-18 48 q1 54 62.5 88t146.5 34q91 0 148 -41.5t57 -120.5q0 -105 -102 -138q124 -33 124 -151q0 -86 -65 -134t-164 -48z" />
<glyph horiz-adv-x="513" d="M198 0v80h92v74h-274v76q71 83 124 191.5t64 196.5q46 10 72 -6.5t26 -56.5q0 -61 -55 -157.5t-112 -160.5h160v69q35 54 58 121h48v-190h82v-83h-79v-74h78v-80h-284z" />
<glyph horiz-adv-x="524" d="M263 -12q-87 0 -155 39t-68 95q0 29 18 47.5t48 18.5q29 0 47 -18.5t18 -46.5q0 -12 -5 -25q33 -22 84 -22q57 0 90 30t33 85q0 54 -32 85t-84 31q-78 0 -123 -59l-77 36q43 164 44 325h357q6 -23 6 -38q0 -71 -103 -71q-29 0 -92 7.5t-81 8.5q-4 -85 -25 -157 q56 35 123 35q88 0 145.5 -55.5t57.5 -145.5q0 -95 -63.5 -150t-162.5 -55z" />
<glyph horiz-adv-x="534" d="M274 -12q-112 0 -173 75t-61 218q0 147 64.5 243.5t187.5 96.5q77 0 125.5 -35.5t48.5 -78.5q0 -25 -15.5 -44.5t-45.5 -19.5q-28 0 -45.5 17.5t-17.5 42.5q0 9 3 20q-19 12 -57 12q-126 0 -136 -213q52 68 152 68q87 0 139.5 -54t52.5 -142q0 -94 -61 -150t-161 -56z M271 74q51 0 79 31.5t28 84.5q0 52 -27.5 86t-79.5 34q-50 0 -81 -33t-31 -86q0 -52 29.5 -84.5t82.5 -32.5z" />
<glyph horiz-adv-x="490" d="M247 -12q-34 0 -52.5 18t-18.5 65q0 78 52 203t118 229q-13 -3 -25 -3q-21 0 -64.5 11.5t-66.5 11.5q-77 0 -80 -88h-88v174h81v-60q20 64 86 64q33 0 80.5 -21.5t70.5 -21.5q8 0 12 1q5 21 22 34t42 13q28 0 45 -17.5t17 -44.5q0 -23 -19 -54q-79 -131 -121.5 -239 t-42.5 -222q0 -29 2 -45q-24 -8 -50 -8z" />
<glyph horiz-adv-x="542" d="M271 -12q-111 0 -172 47t-61 128q0 61 34.5 101.5t94.5 56.5q-47 16 -76 50.5t-29 87.5q0 71 54.5 116.5t154.5 45.5t154.5 -45.5t54.5 -116.5q0 -53 -29 -87.5t-76 -50.5q60 -16 94.5 -56.5t34.5 -101.5q0 -81 -61 -128t-172 -47zM271 72q56 0 86.5 28t30.5 75 q0 48 -31.5 75.5t-85.5 27.5t-85.5 -27.5t-31.5 -75.5q0 -47 31 -75t86 -28zM271 539q-45 0 -71.5 -22t-26.5 -63t26.5 -66t71.5 -25t71.5 25t26.5 66t-26.5 63t-71.5 22z" />
<glyph horiz-adv-x="538" d="M267 534q-51 0 -80.5 -34.5t-29.5 -83.5t28.5 -82.5t78.5 -33.5q51 0 81.5 34t30.5 84q0 47 -28.5 81.5t-80.5 34.5zM255 -12q-74 0 -136.5 32.5t-62.5 84.5q0 28 19 47t48 19q28 0 46 -19t18 -45q0 -8 -4 -22q24 -12 65 -12q68 0 100.5 53.5t35.5 163.5 q-56 -71 -155 -71q-86 0 -138 54.5t-52 139.5q0 94 63 151t164 57q110 0 170.5 -75t60.5 -224q0 -152 -62.5 -243t-179.5 -91z" />
<glyph horiz-adv-x="541" d="M223 -11q-88 0 -141 62.5t-53 163.5q0 104 56 166t145 62q71 0 122 -47v36h107v-344h63v-88h-166v48q-55 -59 -133 -59zM254 75q51 0 92 36v209q-43 37 -90 37q-49 0 -80 -35t-31 -105q0 -63 27 -102.5t82 -39.5z" />
<glyph horiz-adv-x="541" d="M223 -11q-88 0 -141 62.5t-53 163.5q0 104 56 166t145 62q71 0 122 -47v36h107v-344h63v-88h-166v48q-55 -59 -133 -59zM254 75q51 0 92 36v209q-43 37 -90 37q-49 0 -80 -35t-31 -105q0 -63 27 -102.5t82 -39.5zM315 503l-196 118l74 94l159 -166z" />
<glyph horiz-adv-x="541" d="M223 -11q-88 0 -141 62.5t-53 163.5q0 104 56 166t145 62q71 0 122 -47v36h107v-344h63v-88h-166v48q-55 -59 -133 -59zM254 75q51 0 92 36v209q-43 37 -90 37q-49 0 -80 -35t-31 -105q0 -63 27 -102.5t82 -39.5zM195 503l-37 46l159 166l74 -94z" />
<glyph horiz-adv-x="541" d="M223 -11q-88 0 -141 62.5t-53 163.5q0 104 56 166t145 62q71 0 122 -47v36h107v-344h63v-88h-166v48q-55 -59 -133 -59zM254 75q51 0 92 36v209q-43 37 -90 37q-49 0 -80 -35t-31 -105q0 -63 27 -102.5t82 -39.5zM114 498l-24 33l135 139h74l136 -139l-24 -33l-149 67z " />
<glyph horiz-adv-x="541" d="M223 -11q-88 0 -141 62.5t-53 163.5q0 104 56 166t145 62q71 0 122 -47v36h107v-344h63v-88h-166v48q-55 -59 -133 -59zM254 75q51 0 92 36v209q-43 37 -90 37q-49 0 -80 -35t-31 -105q0 -63 27 -102.5t82 -39.5zM118 502l-41 21q13 35 24 57t35 43.5t53 21.5 q26 0 70 -23t67 -23q42 0 66 49l41 -22q-22 -53 -49 -87.5t-67 -34.5q-26 0 -71.5 23t-63.5 23q-38 0 -64 -48z" />
<glyph horiz-adv-x="541" d="M223 -11q-88 0 -141 62.5t-53 163.5q0 104 56 166t145 62q71 0 122 -47v36h107v-344h63v-88h-166v48q-55 -59 -133 -59zM254 75q51 0 92 36v209q-43 37 -90 37q-49 0 -80 -35t-31 -105q0 -63 27 -102.5t82 -39.5zM160 501q-27 0 -46 19t-19 46t19 46t46 19t46 -19t19 -46 t-19 -46t-46 -19zM354 501q-27 0 -46 19t-19 46t19 46t46 19t46 -19t19 -46t-19 -46t-46 -19z" />
<glyph horiz-adv-x="541" d="M223 -11q-88 0 -141 62.5t-53 163.5q0 104 56 166t145 62q71 0 122 -47v36h107v-344h63v-88h-166v48q-55 -59 -133 -59zM254 75q51 0 92 36v209q-43 37 -90 37q-49 0 -80 -35t-31 -105q0 -63 27 -102.5t82 -39.5zM258 498q-59 0 -92 32t-33 80t33 80t92 32t92 -32t33 -80 t-33 -80t-92 -32zM258 559q20 0 31 14.5t11 36.5q0 21 -11 35.5t-31 14.5t-31 -14.5t-11 -35.5q0 -22 11 -36.5t31 -14.5z" />
<glyph horiz-adv-x="541" d="M223 -11q-88 0 -141 62.5t-53 163.5q0 104 56 166t145 62q71 0 122 -47v36h107v-344h63v-88h-166v48q-55 -59 -133 -59zM254 75q51 0 92 36v209q-43 37 -90 37q-49 0 -80 -35t-31 -105q0 -63 27 -102.5t82 -39.5zM115 517v84h284v-84h-284z" />
<glyph horiz-adv-x="541" d="M223 -11q-88 0 -141 62.5t-53 163.5q0 104 56 166t145 62q71 0 122 -47v36h107v-344h63v-88h-166v48q-55 -59 -133 -59zM254 75q51 0 92 36v209q-43 37 -90 37q-49 0 -80 -35t-31 -105q0 -63 27 -102.5t82 -39.5zM257 506q-68 0 -111 44.5t-46 111.5h81q10 -65 76 -65 t76 65h81q-3 -67 -46 -111.5t-111 -44.5z" />
<glyph horiz-adv-x="541" d="M437 -208q-48 0 -79 22.5t-31 65.5q0 65 81 120h-52v48q-55 -59 -133 -59q-88 0 -141 62.5t-53 163.5q0 104 56 166t145 62q71 0 122 -47v36h107v-344h63v-88h-37q-58 -49 -58 -101q0 -37 41 -37q27 0 57 14l7 -65q-46 -19 -95 -19zM254 75q51 0 92 36v209q-43 37 -90 37 q-49 0 -80 -35t-31 -105q0 -63 27 -102.5t82 -39.5z" />
<glyph horiz-adv-x="542" d="M251 -210q-87 0 -164 27v88q77 -29 145 -29q111 0 111 85v83q-50 -47 -123 -47q-87 0 -138.5 60.5t-51.5 161.5q0 104 54.5 164t144.5 60q69 0 122 -41v30h172v-88h-67v-385q0 -85 -55.5 -127t-149.5 -42zM258 357q-112 0 -112 -133q0 -62 26 -101.5t82 -39.5q50 0 89 34 v207q-36 33 -85 33z" />
<glyph horiz-adv-x="542" d="M251 -210q-87 0 -164 27v88q77 -29 145 -29q111 0 111 85v83q-50 -47 -123 -47q-87 0 -138.5 60.5t-51.5 161.5q0 104 54.5 164t144.5 60q69 0 122 -41v30h172v-88h-67v-385q0 -85 -55.5 -127t-149.5 -42zM258 357q-112 0 -112 -133q0 -62 26 -101.5t82 -39.5q50 0 89 34 v207q-36 33 -85 33zM113 498l-24 33l135 139h74l136 -139l-24 -33l-149 67z" />
<glyph horiz-adv-x="542" d="M251 -210q-87 0 -164 27v88q77 -29 145 -29q111 0 111 85v83q-50 -47 -123 -47q-87 0 -138.5 60.5t-51.5 161.5q0 104 54.5 164t144.5 60q69 0 122 -41v30h172v-88h-67v-385q0 -85 -55.5 -127t-149.5 -42zM258 357q-112 0 -112 -133q0 -62 26 -101.5t82 -39.5q50 0 89 34 v207q-36 33 -85 33zM256 506q-68 0 -111 44.5t-46 111.5h81q10 -65 76 -65t76 65h81q-3 -67 -46 -111.5t-111 -44.5z" />
<glyph horiz-adv-x="542" d="M251 -210q-87 0 -164 27v88q77 -29 145 -29q111 0 111 85v83q-50 -47 -123 -47q-87 0 -138.5 60.5t-51.5 161.5q0 104 54.5 164t144.5 60q69 0 122 -41v30h172v-88h-67v-385q0 -85 -55.5 -127t-149.5 -42zM258 357q-112 0 -112 -133q0 -62 26 -101.5t82 -39.5q50 0 89 34 v207q-36 33 -85 33zM256 501q-29 0 -49.5 20.5t-20.5 49.5t20.5 49.5t49.5 20.5t49.5 -20.5t20.5 -49.5t-20.5 -49.5t-49.5 -20.5z" />
<glyph horiz-adv-x="542" d="M243 501q-35 0 -51.5 22t-16.5 52q0 41 29 84t74 78l47 -37q-15 -18 -23 -28.5t-16.5 -31t-8.5 -41.5q0 -42 38 -70v-6q-32 -22 -72 -22zM251 -210q-87 0 -164 27v88q77 -29 145 -29q111 0 111 85v83q-50 -47 -123 -47q-87 0 -138.5 60.5t-51.5 161.5q0 104 54.5 164 t144.5 60q69 0 122 -41v30h172v-88h-67v-385q0 -85 -55.5 -127t-149.5 -42zM258 357q-112 0 -112 -133q0 -62 26 -101.5t82 -39.5q50 0 89 34v207q-36 33 -85 33z" />
<glyph horiz-adv-x="552" d="M258 -13q-100 0 -161.5 47t-61.5 132q0 113 124 153q-100 43 -100 138q0 78 60.5 120t159.5 42q90 0 188 -31v-141h-101v77q-42 8 -79 8q-117 0 -117 -82q0 -45 34.5 -70t96.5 -25h231v-83h-49v-89q0 -90 -59 -143t-166 -53zM259 76q59 0 88 28t29 79v89h-79 q-148 0 -148 -102q0 -94 110 -94z" />
<glyph horiz-adv-x="540" d="M19 -149l396 905h105l-395 -905h-106z" />
<glyph horiz-adv-x="540" d="M415 -149l-395 905h105l396 -905h-106z" />
<glyph horiz-adv-x="252" d="M74 -149v905h104v-905h-104z" />
<glyph horiz-adv-x="254" d="M75 401v355h104v-355h-104zM75 -149v408h104v-408h-104z" />
<glyph horiz-adv-x="366" d="M183 183q-50 0 -86 35.5t-36 85.5t36 85.5t86 35.5t86 -35.5t36 -85.5t-36 -85.5t-86 -35.5z" />
<glyph horiz-adv-x="280" d="M164 -119q-61 85 -94.5 180.5t-33.5 181.5t34 182.5t94 179.5h105q-64 -82 -98 -179.5t-34 -182.5q0 -86 34 -183.5t98 -178.5h-105z" />
<glyph horiz-adv-x="280" d="M11 -119q64 81 98 178.5t34 183.5q0 85 -34 182.5t-98 179.5h105q60 -83 94 -179.5t34 -182.5t-33.5 -181.5t-94.5 -180.5h-105z" />
<glyph horiz-adv-x="312" d="M216 -129q-62 0 -92 30.5t-30 72.5q0 20 12 74t12 77q0 35 -20.5 56.5t-72.5 25.5v71q52 4 72.5 25.5t20.5 56.5q0 24 -12 78t-12 74q0 41 30 71.5t92 30.5q29 0 63 -8v-60q-28 4 -43 4q-46 0 -46 -44q0 -19 13 -75.5t13 -86.5q0 -78 -77 -101q77 -23 77 -102 q0 -30 -13 -86.5t-13 -75.5q0 -44 46 -44q20 0 43 5v-61q-34 -8 -63 -8z" />
<glyph horiz-adv-x="312" d="M96 -129q-29 0 -63 8v61q23 -5 43 -5q46 0 46 44q0 19 -13 75.5t-13 86.5q0 79 77 102q-77 23 -77 101q0 30 13 86.5t13 75.5q0 44 -46 44q-15 0 -43 -4v60q34 8 63 8q62 0 92 -30.5t30 -71.5q0 -20 -12 -74t-12 -78q0 -35 20.5 -56.5t72.5 -25.5v-71q-52 -4 -72.5 -25.5 t-20.5 -56.5q0 -23 12 -77t12 -74q0 -42 -30 -72.5t-92 -30.5z" />
<glyph horiz-adv-x="298" d="M81 -119v724h187v-71h-90v-583h90v-70h-187z" />
<glyph horiz-adv-x="298" d="M30 -119v70h90v583h-90v71h187v-724h-187z" />
<glyph horiz-adv-x="259" d="M81 -119v724h97v-724h-97z" />
<glyph horiz-adv-x="631" d="M280 87q-54 0 -86 35.5t-32 91.5q0 67 44 115.5t107 48.5q68 0 95 -54h3q5 19 15 41h56q-30 -109 -30 -168q0 -64 35 -64q27 0 47.5 31.5t20.5 85.5q0 95 -64.5 154t-160.5 59q-102 0 -175 -65t-73 -163q0 -96 69 -160.5t170 -64.5q75 0 140 40l26 -39q-85 -48 -168 -48 q-123 0 -204 79.5t-81 192.5q0 117 87.5 196t208.5 79q116 0 194.5 -74t78.5 -188q0 -78 -36.5 -119.5t-92.5 -41.5q-70 0 -82 61h-3q-38 -61 -109 -61zM296 146q36 0 61.5 31.5t25.5 74.5q0 32 -15 49.5t-42 17.5q-36 0 -61 -30.5t-25 -74.5q0 -33 15 -50.5t41 -17.5z" />
<glyph horiz-adv-x="482" d="M226 -10q-85 0 -136.5 38.5t-51.5 107.5q0 88 102 122q-80 34 -80 106q0 63 50 98t134 35q75 0 158 -25v-119h-95v60q-26 4 -53 4q-89 0 -89 -58q0 -34 27 -52t77 -18h185v-76h-37v-61q0 -73 -49.5 -117.5t-141.5 -44.5zM227 72q89 0 89 79v62h-52q-58 0 -88.5 -16.5 t-30.5 -57.5q0 -67 82 -67z" />
<glyph horiz-adv-x="510" d="M259 -47q32 0 47 -21t15 -47q0 -34 -25 -70.5t-64 -65.5l-44 34q13 15 18.5 21.5t13.5 24.5t8 36q0 40 -32 60v8q31 20 63 20zM124 0v84h76v318h-79v-75h-99v160h466v-160h-99v75h-79v-318h76v-84h-262z" />
<glyph horiz-adv-x="1084" d="M536 0v88h66v429h-249v-425h90v-92h-296v92h90v425h-114v-93h-105v185h590l20 98h87v-326q77 62 157 62q60 0 94.5 -34.5t34.5 -99.5v-221h66v-88h-245v88h66v210q0 28 -12 42t-41 14q-55 0 -120 -50v-216h66v-88h-245z" />
<glyph horiz-adv-x="803" d="M256 -11q-107 0 -167 58.5t-60 166.5q0 111 62 170t167 59q37 0 70 -6v16q0 152 158 152h174v-173h118v-89h-118v-218q0 -29 14.5 -39t43.5 -10q36 0 67 11v-83q-56 -15 -103 -15q-76 0 -105.5 33t-29.5 97v224h-75v89h75v96h-66q-39 0 -53 -20.5t-14 -72.5v-167h-94v84 q-24 6 -50 6q-61 0 -92.5 -36.5t-31.5 -103.5q0 -66 31.5 -104t96.5 -38q62 0 136 38v-89q-64 -36 -154 -36z" />
</font>
</defs>
</svg>
